{
.appVersion = "1357";
DisplayStrings = (
ABCDEFGHIJKLMNOPQRSTUVWXYZ,
abcdefghijklmnopqrstuvwxyz,
"aá/brevecomb/abreve/abreveacute/abrevedotbelow/abrevegrave/abrevehookabove/abrevetilde/acaron â/acircumflexacute/acircumflexdotbelow/acircumflexgrave/acircumflexhookabove/acircumflextilde/adblgrave ä/adotbelow à/ahookabove/ainvertedbreve/amacron/aogonek å/aringacute ã",
"/circumflexcomb/circumflexcomb_acutecomb",
"/circumflexcomb_hookabovecomb",
"/tildecomb/circumflexcomb/circumflexcomb_tildecomb",
"aá/abreve/abreveacute/abrevedotbelow/abrevegrave/abrevehookabove/abrevetilde/acaron â/acircumflexacute/acircumflexdotbelow/acircumflexgrave/acircumflexhookabove/acircumflextilde/adblgrave ä/adotbelow à/ahookabove/ainvertedbreve/amacron a/aogonek å/aringacute ãæ/aeacute",
"12+3/minus 4×5÷6=7/notequal ></greaterequal/lessequal ±",
"/brevecomb.case/Abreve",
"non,nono.no:no;nônno/ellipsis no!no¡no?no¿no·no/bullet *#///backslash/periodcentered.loclCAT (no)\012{nono}[non]no-no­/endash m/emdash/hyphentwo _/quotesinglbase no/quotedblbase/quotedblleft/quotedblright/quoteleft/quoteright \012«nono»/guilsinglleft no/guilsinglright \"'/leftanglebracket-math 202/rightanglebracket-math"
);
copyright = "Copyright 2003-2021 The Moo Lah Lah Project Authors (https://github.com/googlefonts/moolahlah)";
customParameters = (
{
name = licenseURL;
value = "https://scripts.sil.org/OFL";
},
{
name = license;
value = "This Font Software is licensed under the SIL Open Font License, Version 1.1. This license is available with a FAQ at: https://scripts.sil.org/OFL";
},
{
name = vendorID;
value = GOOG;
},
{
name = "Disable Subroutines";
value = 1;
},
{
name = glyphOrder;
value = (
.notdef,
CR,
NULL,
space,
nbspace
);
},
{
name = fsType;
value = (
);
},
{
name = "Use Typo Metrics";
value = 1;
}
);
date = "2021-11-18 01:34:51 +0000";
designer = "Robert E. Leuschke";
designerURL = www.typesetit.com;
familyName = "Moo Lah Lah";
featurePrefixes = (
{
automatic = 1;

glyphs = (
{
glyphname = .notdef;
lastChange = "2021-11-18 01:48:27 +0000";
layers = (
{
layerId = "F72AA8BB-7F63-4F07-AEAC-030E55A5CABB";
paths = (
{
closed = 1;
nodes = (
"438 15 LINE",
"438 815 LINE",
"63 815 LINE",
"63 15 LINE"
);
},
{
closed = 1;
nodes = (
"300 714 OFFCURVE",
"286 640 OFFCURVE",
"270 608 CURVE SMOOTH",
"255 579 OFFCURVE",
"263 536 OFFCURVE",
"261 511 CURVE",
"232 604 OFFCURVE",
"201 707 OFFCURVE",
"185 753 CURVE",
"207 753 OFFCURVE",
"229 753 OFFCURVE",
"251 753 CURVE SMOOTH",
"312 753 LINE"
);
},
{
closed = 1;
nodes = (
"314 351 OFFCURVE",
"295 404 OFFCURVE",
"275 467 CURVE",
"282 488 OFFCURVE",
"289 503 OFFCURVE",
"293 511 CURVE SMOOTH",
"315 550 OFFCURVE",
"358 651 OFFCURVE",
"382 707 CURVE",
"384 690 OFFCURVE",
"384 671 OFFCURVE",
"375 651 CURVE",
"375 612 OFFCURVE",
"369 578 OFFCURVE",
"375 553 CURVE SMOOTH",
"391 485 OFFCURVE",
"344 403 OFFCURVE",
"375 328 CURVE SMOOTH",
"387 299 OFFCURVE",
"381 258 OFFCURVE",
"377 218 CURVE",
"357 263 OFFCURVE",
"336 310 OFFCURVE",
"323 334 CURVE SMOOTH"
);
},
{
closed = 1;
nodes = (
"125 274 OFFCURVE",
"148 318 OFFCURVE",
"125 343 CURVE SMOOTH",
"107 363 OFFCURVE",
"119 383 OFFCURVE",
"125 403 CURVE SMOOTH",
"147 474 OFFCURVE",
"136 558 OFFCURVE",
"125 579 CURVE SMOOTH",
"108 612 OFFCURVE",
"112 649 OFFCURVE",
"118 686 CURVE",
"124 676 OFFCURVE",
"132 667 OFFCURVE",
"139 662 CURVE SMOOTH",
"158 649 OFFCURVE",
"203 616 OFFCURVE",
"200 586 CURVE SMOOTH",
"193 527 OFFCURVE",
"206 491 OFFCURVE",
"220 461 CURVE",
"219 459 OFFCURVE",
"219 458 OFFCURVE",
"218 457 CURVE",
"192 401 OFFCURVE",
"173 289 OFFCURVE",
"170 259 CURVE SMOOTH",
"168 236 OFFCURVE",
"144 211 OFFCURVE",
"125 195 CURVE",
"125 240 LINE SMOOTH"
);
},
{
closed = 1;
nodes = (
"222 78 OFFCURVE",
"199 108 OFFCURVE",
"167 78 CURVE",
"151 78 LINE",
"166 120 OFFCURVE",
"211 274 OFFCURVE",
"248 387 CURVE",
"252 362 OFFCURVE",
"226 318 OFFCURVE",
"250 312 CURVE SMOOTH",
"274 306 OFFCURVE",
"279 279 OFFCURVE",
"300 237 CURVE SMOOTH",
"318 200 OFFCURVE",
"334 110 OFFCURVE",
"346 78 CURVE",
"298 78 LINE",
"282 90 OFFCURVE",
"267 92 OFFCURVE",
"250 78 CURVE"
);
}
);
width = 500;
}
);
note = .notdef;
},
{
glyphname = A;
lastChange = "2021-11-18 14:29:56 +0000";
layers = (
{
anchors = (
{
name = bottom;
position = "{359, 0}";
},
{
name = ogonek;
position = "{759, 33}";
},
{
name = top;
position = "{340, 650}";
}
);
layerId = "F72AA8BB-7F63-4F07-AEAC-030E55A5CABB";
paths = (
{
closed = 1;
nodes = (
"-4 5 OFFCURVE",
"9 -2 OFFCURVE",
"34 -1 CURVE SMOOTH",
"58 2 OFFCURVE",
"76 4 OFFCURVE",
"89 5 CURVE",
"120 4 OFFCURVE",
"145 3 OFFCURVE",
"162 1 CURVE",
"195 2 OFFCURVE",
"229 6 OFFCURVE",
"262 13 CURVE",
"263 7 OFFCURVE",
"266 4 OFFCURVE",
"270 5 CURVE",
"288 5 OFFCURVE",
"299 65 OFFCURVE",
"298 80 CURVE SMOOTH",
"297 90 LINE",
"380 90 LINE",
"422 94 OFFCURVE",
"443 105 OFFCURVE",
"442 123 CURVE SMOOTH",
"442 127 OFFCURVE",
"438 128 OFFCURVE",
"429 128 CURVE SMOOTH",
"322 125 LINE SMOOTH",
"311 125 OFFCURVE",
"283 133 OFFCURVE",
"271 132 CURVE SMOOTH",
"255 132 OFFCURVE",
"245 112 OFFCURVE",
"246 96 CURVE SMOOTH",
"250 70 OFFCURVE",
"254 50 OFFCURVE",
"257 36 CURVE",
"214 38 LINE",
"210 44 OFFCURVE",
"198 57 OFFCURVE",
"177 77 CURVE SMOOTH",
"162 91 OFFCURVE",
"155 106 OFFCURVE",
"154 123 CURVE SMOOTH",
"153 142 OFFCURVE",
"159 163 OFFCURVE",
"172 186 CURVE SMOOTH",
"185 209 OFFCURVE",
"191 225 OFFCURVE",
"191 235 CURVE SMOOTH",
"190 262 OFFCURVE",
"178 282 OFFCURVE",
"157 295 CURVE",
"179 371 OFFCURVE",
"195 428 OFFCURVE",
"206 467 CURVE",
"217 481 OFFCURVE",
"238 494 OFFCURVE",
"271 505 CURVE SMOOTH",
"298 514 OFFCURVE",
"314 529 OFFCURVE",
"321 549 CURVE SMOOTH",
"328 574 OFFCURVE",
"332 607 OFFCURVE",
"363 607 CURVE SMOOTH",
"393 608 OFFCURVE",
"422 604 OFFCURVE",
"450 594 CURVE",
"468 573 OFFCURVE",
"496 517 OFFCURVE",
"497 490 CURVE SMOOTH",
"497 485 OFFCURVE",
"496 480 OFFCURVE",
"495 477 CURVE",
"475 503 OFFCURVE",
"456 516 OFFCURVE",
"439 515 CURVE SMOOTH",
"408 513 OFFCURVE",
"399 505 OFFCURVE",
"400 476 CURVE SMOOTH",
"401 453 OFFCURVE",
"412 434 OFFCURVE",
"431 415 CURVE SMOOTH",
"434 412 OFFCURVE",
"454 400 OFFCURVE",
"490 375 CURVE SMOOTH",
"509 362 OFFCURVE",
"524 338 OFFCURVE",
"534 301 CURVE SMOOTH",
"543 269 OFFCURVE",
"552 253 OFFCURVE",
"561 253 CURVE SMOOTH",
"566 253 OFFCURVE",
"578 260 OFFCURVE",
"583 260 CURVE",
"594 245 OFFCURVE",
"635 149 OFFCURVE",
"635 136 CURVE SMOOTH",
"635 130 OFFCURVE",
"633 127 OFFCURVE",
"630 127 CURVE SMOOTH",
"622 127 OFFCURVE",
"594 143 OFFCURVE",
"582 143 CURVE SMOOTH",
"558 141 OFFCURVE",
"548 94 OFFCURVE",
"548 75 CURVE",
"549 68 OFFCURVE",
"550 60 OFFCURVE",
"551 53 CURVE",
"512 51 OFFCURVE",
"490 51 OFFCURVE",
"487 52 CURVE SMOOTH",
"467 59 OFFCURVE",
"467 92 OFFCURVE",
"459 92 CURVE SMOOTH",
"455 92 OFFCURVE",
"432 68 OFFCURVE",
"432 63 CURVE SMOOTH",
"433 46 OFFCURVE",
"441 32 OFFCURVE",
"456 21 CURVE SMOOTH",
"469 11 OFFCURVE",
"485 6 OFFCURVE",
"502 7 CURVE SMOOTH",
"526 8 OFFCURVE",
"562 10 OFFCURVE",
"609 14 CURVE SMOOTH",
"655 18 OFFCURVE",
"691 21 OFFCURVE",
"715 21 CURVE SMOOTH",
"750 21 LINE",
"761 24 OFFCURVE",
"767 33 OFFCURVE",
"766 49 CURVE SMOOTH",
"765 64 OFFCURVE",
"755 72 OFFCURVE",
"736 73 CURVE SMOOTH",
"717 74 OFFCURVE",
"685 131 OFFCURVE",
"636 240 CURVE SMOOTH",
"621 273 OFFCURVE",
"595 339 OFFCURVE",
"556 440 CURVE SMOOTH",
"529 509 OFFCURVE",
"507 563 OFFCURVE",
"495 605 CURVE SMOOTH",
"492 615 OFFCURVE",
"490 625 OFFCURVE",
"488 636 CURVE",
"484 646 OFFCURVE",
"476 651 OFFCURVE",
"463 651 CURVE SMOOTH",
"359 644 OFFCURVE",
"281 638 OFFCURVE",
"229 633 CURVE SMOOTH",
"219 632 OFFCURVE",
"212 624 OFFCURVE",
"208 609 CURVE SMOOTH",
"155 411 OFFCURVE",
"118 296 OFFCURVE",
"107 263 CURVE SMOOTH",
"102 249 OFFCURVE",
"92 216 OFFCURVE",
"80 165 CURVE SMOOTH",
"70 123 OFFCURVE",
"61 90 OFFCURVE",
"49 69 CURVE SMOOTH",
"46 64 OFFCURVE",
"36 58 OFFCURVE",
"17 52 CURVE SMOOTH",
"2 47 OFFCURVE",
"-6 36 OFFCURVE",
"-5 20 CURVE SMOOTH"
);
},
{
closed = 1;
nodes = (
"244 286 OFFCURVE",
"264 259 OFFCURVE",
"265 243 CURVE SMOOTH",
"265 235 OFFCURVE",
"260 216 OFFCURVE",
"261 208 CURVE SMOOTH",
"262 175 OFFCURVE",
"291 156 OFFCURVE",
"323 157 CURVE SMOOTH",
"368 158 OFFCURVE",
"402 187 OFFCURVE",
"401 230 CURVE",
"408 229 OFFCURVE",
"413 229 OFFCURVE",
"417 229 CURVE SMOOTH",
"433 229 OFFCURVE",
"442 239 OFFCURVE",
"440 260 CURVE SMOOTH",
"439 271 OFFCURVE",
"433 288 OFFCURVE",
"421 310 CURVE SMOOTH",
"395 360 LINE",
"394 363 OFFCURVE",
"386 384 OFFCURVE",
"374 424 CURVE SMOOTH",
"364 457 OFFCURVE",
"356 475 OFFCURVE",
"351 478 CURVE",
"344 478 OFFCURVE",
"329 432 OFFCURVE",
"329 424 CURVE",
"370 347 OFFCURVE",
"388 294 OFFCURVE",
"388 263 CURVE SMOOTH",
"388 257 LINE",
"369 251 OFFCURVE",
"355 246 OFFCURVE",
"346 241 CURVE",
"340 241 OFFCURVE",
"337 246 OFFCURVE",
"336 255 CURVE SMOOTH",
"336 275 OFFCURVE",
"346 329 OFFCURVE",
"345 350 CURVE SMOOTH",
"344 364 OFFCURVE",
"336 371 OFFCURVE",
"319 371 CURVE SMOOTH",
"299 370 OFFCURVE",
"283 363 OFFCURVE",
"267 351 CURVE SMOOTH",
"250 338 OFFCURVE",
"242 321 OFFCURVE",
"243 302 CURVE SMOOTH"
);
}
);
width = 777;
}
);
note = A;
unicode = 0041;
},
{
glyphname = AE;
lastChange = "2021-11-18 14:34:11 +0000";
layers = (
{
anchors = (
{
name = bottom;
position = "{485, 0}";
},
{
name = top;
position = "{579, 650}";
}
);
layerId = "F72AA8BB-7F63-4F07-AEAC-030E55A5CABB";
paths = (
{
closed = 1;
nodes = (
"83 19 LINE SMOOTH",
"98 20 OFFCURVE",
"141 12 OFFCURVE",
"156 12 CURVE SMOOTH",
"189 12 OFFCURVE",
"223 15 OFFCURVE",
"256 21 CURVE",
"257 15 OFFCURVE",
"260 12 OFFCURVE",
"264 12 CURVE SMOOTH",
"272 12 OFFCURVE",
"279 23 OFFCURVE",
"286 44 CURVE SMOOTH",
"292 62 OFFCURVE",
"294 76 OFFCURVE",
"294 86 CURVE SMOOTH",
"294 96 LINE",
"343 94 OFFCURVE",
"364 93 OFFCURVE",
"356 93 CURVE SMOOTH",
"412 93 OFFCURVE",
"440 103 OFFCURVE",
"440 124 CURVE SMOOTH",
"440 128 OFFCURVE",
"436 130 OFFCURVE",
"427 130 CURVE SMOOTH",
"320 130 LINE",
"309 131 OFFCURVE",
"281 140 OFFCURVE",
"269 140 CURVE SMOOTH",
"254 140 OFFCURVE",
"243 120 OFFCURVE",
"243 104 CURVE SMOOTH",
"243 92 OFFCURVE",
"252 59 OFFCURVE",
"252 44 CURVE",
"209 47 LINE",
"206 54 OFFCURVE",
"194 67 OFFCURVE",
"174 87 CURVE SMOOTH",
"159 102 OFFCURVE",
"152 118 OFFCURVE",
"152 135 CURVE SMOOTH",
"152 154 OFFCURVE",
"159 174 OFFCURVE",
"173 197 CURVE SMOOTH",
"186 219 OFFCURVE",
"193 235 OFFCURVE",
"193 245 CURVE SMOOTH",
"193 272 OFFCURVE",
"182 292 OFFCURVE",
"161 306 CURVE",
"169 327 OFFCURVE",
"187 384 OFFCURVE",
"216 476 CURVE",
"227 489 OFFCURVE",
"249 502 OFFCURVE",
"282 512 CURVE SMOOTH",
"309 520 OFFCURVE",
"328 534 OFFCURVE",
"334 554 CURVE SMOOTH",
"342 579 OFFCURVE",
"347 611 OFFCURVE",
"378 611 CURVE SMOOTH",
"408 611 OFFCURVE",
"437 606 OFFCURVE",
"464 595 CURVE",
"474 582 OFFCURVE",
"484 564 OFFCURVE",
"494 541 CURVE",
"495 528 OFFCURVE",
"498 508 OFFCURVE",
"501 482 CURVE",
"484 505 OFFCURVE",
"467 516 OFFCURVE",
"451 516 CURVE SMOOTH",
"420 516 OFFCURVE",
"410 509 OFFCURVE",
"410 478 CURVE SMOOTH",
"410 455 OFFCURVE",
"420 434 OFFCURVE",
"439 416 CURVE",
"500 372 LINE",
"498 307 OFFCURVE",
"497 263 OFFCURVE",
"497 241 CURVE SMOOTH",
"497 218 OFFCURVE",
"504 136 OFFCURVE",
"504 113 CURVE SMOOTH",
"504 105 OFFCURVE",
"500 87 OFFCURVE",
"500 80 CURVE SMOOTH",
"500 69 OFFCURVE",
"508 63 OFFCURVE",
"523 63 CURVE SMOOTH",
"530 63 OFFCURVE",
"533 73 OFFCURVE",
"533 92 CURVE SMOOTH",
"533 113 OFFCURVE",
"536 183 OFFCURVE",
"536 203 CURVE SMOOTH",
"536 240 OFFCURVE",
"536 296 OFFCURVE",
"535 370 CURVE",
"544 368 OFFCURVE",
"552 367 OFFCURVE",
"559 367 CURVE SMOOTH",
"595 367 OFFCURVE",
"623 395 OFFCURVE",
"623 431 CURVE SMOOTH",
"623 442 OFFCURVE",
"614 467 OFFCURVE",
"614 478 CURVE SMOOTH",
"614 496 OFFCURVE",
"627 517 OFFCURVE",
"652 541 CURVE SMOOTH",
"681 569 OFFCURVE",
"698 591 OFFCURVE",
"703 608 CURVE",
"714 608 OFFCURVE",
"735 607 OFFCURVE",
"768 606 CURVE SMOOTH",
"797 605 OFFCURVE",
"819 605 OFFCURVE",
"835 606 CURVE SMOOTH",
"860 606 OFFCURVE",
"881 608 OFFCURVE",
"900 612 CURVE",
"894 585 OFFCURVE",
"891 566 OFFCURVE",
"891 553 CURVE SMOOTH",
"891 541 OFFCURVE",
"900 516 OFFCURVE",
"900 504 CURVE SMOOTH",
"900 495 LINE",
"891 494 OFFCURVE",
"884 493 OFFCURVE",
"878 492 CURVE",
"881 501 OFFCURVE",
"882 509 OFFCURVE",
"882 517 CURVE SMOOTH",
"882 552 OFFCURVE",
"864 569 OFFCURVE",
"829 569 CURVE SMOOTH",
"781 569 OFFCURVE",
"746 530 OFFCURVE",
"745 481 CURVE",
"721 482 OFFCURVE",
"709 474 OFFCURVE",
"709 456 CURVE SMOOTH",
"709 451 OFFCURVE",
"714 437 OFFCURVE",
"723 414 CURVE",
"715 405 LINE",
"715 399 OFFCURVE",
"740 396 OFFCURVE",
"789 396 CURVE",
"797 371 OFFCURVE",
"799 339 OFFCURVE",
"839 339 CURVE SMOOTH",
"862 339 OFFCURVE",
"877 350 OFFCURVE",
"884 373 CURVE",
"881 332 OFFCURVE",
"882 299 OFFCURVE",
"887 272 CURVE",
"875 272 OFFCURVE",
"843 267 OFFCURVE",
"828 267 CURVE SMOOTH",
"823 267 LINE",
"801 290 OFFCURVE",
"788 303 OFFCURVE",
"784 306 CURVE SMOOTH",
"769 317 OFFCURVE",
"753 323 OFFCURVE",
"734 323 CURVE SMOOTH",
"682 323 OFFCURVE",
"573 186 OFFCURVE",
"571 136 CURVE",
"553 126 OFFCURVE",
"545 91 OFFCURVE",
"545 72 CURVE SMOOTH",
"545 65 OFFCURVE",
"546 57 OFFCURVE",
"547 50 CURVE",
"535 50 LINE SMOOTH",
"525 50 OFFCURVE",
"516 51 OFFCURVE",
"508 51 CURVE SMOOTH",
"505 51 OFFCURVE",
"502 51 OFFCURVE",
"499 50 CURVE",
"479 52 OFFCURVE",
"470 54 OFFCURVE",
"465 77 CURVE SMOOTH",
"463 87 OFFCURVE",
"460 92 OFFCURVE",
"456 92 CURVE SMOOTH",
"452 92 OFFCURVE",
"428 70 OFFCURVE",
"428 65 CURVE SMOOTH",
"428 29 OFFCURVE",
"461 6 OFFCURVE",
"496 6 CURVE SMOOTH",
"505 6 LINE",
"509 5 OFFCURVE",
"513 5 OFFCURVE",
"518 5 CURVE SMOOTH",
"538 5 OFFCURVE",
"606 7 OFFCURVE",
"721 12 CURVE",
"736 11 OFFCURVE",
"745 11 OFFCURVE",
"750 13 CURVE",
"774 14 OFFCURVE",
"796 15 OFFCURVE",
"816 15 CURVE SMOOTH",
"831 15 OFFCURVE",
"851 12 OFFCURVE",
"876 7 CURVE SMOOTH",
"901 2 OFFCURVE",
"919 -1 OFFCURVE",
"928 -1 CURVE SMOOTH",
"946 -1 OFFCURVE",
"955 26 OFFCURVE",
"955 79 CURVE SMOOTH",
"955 99 OFFCURVE",
"940 168 OFFCURVE",
"940 189 CURVE SMOOTH",
"940 208 LINE",
"938 213 OFFCURVE",
"933 216 OFFCURVE",
"924 216 CURVE SMOOTH",
"904 216 OFFCURVE",
"834 205 OFFCURVE",
"813 205 CURVE SMOOTH",
"747 205 LINE",
"746 224 OFFCURVE",
"742 240 OFFCURVE",
"736 253 CURVE",
"747 253 LINE",
"756 237 OFFCURVE",
"802 229 OFFCURVE",
"884 229 CURVE SMOOTH",
"905 229 OFFCURVE",
"915 237 OFFCURVE",
"915 254 CURVE SMOOTH",
"915 261 OFFCURVE",
"913 267 OFFCURVE",
"908 270 CURVE",
"909 275 OFFCURVE",
"914 298 OFFCURVE",
"921 337 CURVE SMOOTH",
"928 376 OFFCURVE",
"931 398 OFFCURVE",
"931 402 CURVE SMOOTH",
"931 416 OFFCURVE",
"918 423 OFFCURVE",
"892 423 CURVE SMOOTH",
"876 423 OFFCURVE",
"851 423 OFFCURVE",
"818 421 CURVE SMOOTH",
"785 419 OFFCURVE",
"760 418 OFFCURVE",
"743 418 CURVE",
"744 449 LINE SMOOTH",
"744 453 OFFCURVE",
"773 455 OFFCURVE",
"830 455 CURVE SMOOTH",
"850 455 OFFCURVE",
"897 450 OFFCURVE",
"916 450 CURVE SMOOTH",
"928 450 OFFCURVE",
"934 456 OFFCURVE",
"934 468 CURVE SMOOTH",
"934 473 OFFCURVE",
"932 477 OFFCURVE",
"929 481 CURVE",
"929 571 LINE SMOOTH",
"929 578 OFFCURVE",
"932 604 OFFCURVE",
"932 616 CURVE SMOOTH",
"932 638 OFFCURVE",
"925 649 OFFCURVE",
"910 649 CURVE SMOOTH",
"885 649 OFFCURVE",
"795 640 OFFCURVE",
"770 640 CURVE SMOOTH",
"402 640 OFFCURVE",
"227 640 OFFCURVE",
"245 641 CURVE",
"235 641 OFFCURVE",
"228 633 OFFCURVE",
"223 618 CURVE SMOOTH",
"198 542 OFFCURVE",
"164 426 OFFCURVE",
"110 276 CURVE SMOOTH",
"105 262 OFFCURVE",
"95 229 OFFCURVE",
"80 178 CURVE SMOOTH",
"68 137 OFFCURVE",
"57 105 OFFCURVE",
"45 84 CURVE SMOOTH",
"42 79 OFFCURVE",
"32 74 OFFCURVE",
"13 68 CURVE SMOOTH",
"-2 63 OFFCURVE",
"-10 53 OFFCURVE",
"-10 37 CURVE SMOOTH",
"-10 22 OFFCURVE",
"3 13 OFFCURVE",
"28 15 CURVE SMOOTH"
);
},
{
closed = 1;
nodes = (
"248 294 OFFCURVE",
"267 266 OFFCURVE",
"267 250 CURVE SMOOTH",
"267 242 OFFCURVE",
"262 223 OFFCURVE",
"262 215 CURVE SMOOTH",
"262 183 OFFCURVE",
"290 162 OFFCURVE",
"323 162 CURVE SMOOTH",
"367 162 OFFCURVE",
"403 189 OFFCURVE",
"403 233 CURVE",
"410 232 OFFCURVE",
"416 231 OFFCURVE",
"420 231 CURVE SMOOTH",
"435 231 OFFCURVE",
"443 241 OFFCURVE",
"443 261 CURVE SMOOTH",
"443 272 OFFCURVE",
"437 289 OFFCURVE",
"426 312 CURVE SMOOTH",
"418 329 OFFCURVE",
"409 346 OFFCURVE",
"401 363 CURVE SMOOTH",
"400 366 OFFCURVE",
"394 387 OFFCURVE",
"383 427 CURVE SMOOTH",
"374 460 OFFCURVE",
"367 479 OFFCURVE",
"362 482 CURVE",
"355 482 OFFCURVE",
"337 438 OFFCURVE",
"337 429 CURVE",
"375 351 OFFCURVE",
"391 297 OFFCURVE",
"391 266 CURVE SMOOTH",
"391 260 LINE",
"379 260 OFFCURVE",
"355 246 OFFCURVE",
"348 246 CURVE SMOOTH",
"342 246 OFFCURVE",
"339 251 OFFCURVE",
"339 260 CURVE SMOOTH",
"339 280 OFFCURVE",
"351 333 OFFCURVE",
"351 354 CURVE SMOOTH",
"351 369 OFFCURVE",
"343 376 OFFCURVE",
"326 376 CURVE SMOOTH",
"286 376 OFFCURVE",
"248 349 OFFCURVE",
"248 310 CURVE SMOOTH"
);
}
);
width = 969;
}
);
note = AE;
unicode = 00C6;
},
{
glyphname = B;
lastChange = "2021-11-18 14:34:11 +0000";
layers = (
{
background = {
paths = (
{
closed = 1;
nodes = (
"22 0 OFFCURVE",
"47 1 OFFCURVE",
"80 3 CURVE SMOOTH",
"113 5 OFFCURVE",
"138 6 OFFCURVE",
"155 6 CURVE SMOOTH",
"173 6 OFFCURVE",
"253 4 OFFCURVE",
"278 4 CURVE SMOOTH",
"418 4 OFFCURVE",
"585 24 OFFCURVE",
"585 202 CURVE SMOOTH",
"585 275 OFFCURVE",
"554 299 OFFCURVE",
"495 334 CURVE",
"545 366 OFFCURVE",
"553 406 OFFCURVE",
"553 462 CURVE SMOOTH",
"553 588 OFFCURVE",
"466 621 OFFCURVE",
"357 628 CURVE SMOOTH",
"277 630 OFFCURVE",
"198 631 OFFCURVE",
"118 638 CURVE SMOOTH",
"81 641 OFFCURVE",
"50 642 OFFCURVE",
"27 642 CURVE SMOOTH",
"2 642 OFFCURVE",
"-11 633 OFFCURVE",
"-11 614 CURVE SMOOTH",
"-11 607 OFFCURVE",
"-3 600 OFFCURVE",
"13 593 CURVE SMOOTH",
"29 586 OFFCURVE",
"38 571 OFFCURVE",
"40 549 CURVE SMOOTH",
"43 516 OFFCURVE",
"44 463 OFFCURVE",
"44 390 CURVE SMOOTH",
"44 179 OFFCURVE",
"36 70 OFFCURVE",
"20 63 CURVE SMOOTH",
"-9 50 OFFCURVE",
"-24 37 OFFCURVE",
"-24 24 CURVE SMOOTH",
"-24 8 OFFCURVE",
"-14 0 OFFCURVE",
"5 0 CURVE SMOOTH"
);
},
{
closed = 1;
nodes = (
"237 165 OFFCURVE",
"244 153 OFFCURVE",
"258 150 CURVE SMOOTH",
"263 149 OFFCURVE",
"277 148 OFFCURVE",
"300 148 CURVE SMOOTH",
"339 148 OFFCURVE",
"365 163 OFFCURVE",
"377 193 CURVE",
"386 194 LINE SMOOTH",
"395 194 OFFCURVE",
"405 187 OFFCURVE",
"417 174 CURVE SMOOTH",
"429 161 OFFCURVE",
"440 154 OFFCURVE",
"450 154 CURVE SMOOTH",
"475 154 OFFCURVE",
"496 175 OFFCURVE",
"496 202 CURVE SMOOTH",
"496 237 OFFCURVE",
"470 241 OFFCURVE",
"450 250 CURVE",
"439 258 OFFCURVE",
"428 290 OFFCURVE",
"413 299 CURVE SMOOTH",
"401 306 OFFCURVE",
"383 310 OFFCURVE",
"358 310 CURVE SMOOTH",
"337 310 OFFCURVE",
"320 306 OFFCURVE",
"308 297 CURVE SMOOTH",
"301 292 OFFCURVE",
"294 289 OFFCURVE",
"287 288 CURVE",
"286 287 OFFCURVE",
"278 287 OFFCURVE",
"264 287 CURVE SMOOTH",
"247 286 OFFCURVE",
"238 281 OFFCURVE",
"238 271 CURVE SMOOTH",
"238 263 OFFCURVE",
"244 233 OFFCURVE",
"251 230 CURVE",
"259 230 OFFCURVE",
"266 255 OFFCURVE",
"279 255 CURVE SMOOTH",
"330 255 OFFCURVE",
"355 243 OFFCURVE",
"355 219 CURVE SMOOTH",
"355 186 OFFCURVE",
"300 176 OFFCURVE",
"275 176 CURVE SMOOTH",
"262 176 OFFCURVE",
"266 203 OFFCURVE",
"258 203 CURVE SMOOTH",
"247 203 OFFCURVE",
"237 191 OFFCURVE",
"237 182 CURVE SMOOTH"
);
},
{
closed = 1;
nodes = (
"135 203 OFFCURVE",
"142 229 OFFCURVE",
"161 279 CURVE SMOOTH",
"170 303 OFFCURVE",
"180 315 OFFCURVE",
"192 315 CURVE SMOOTH",
"231 315 OFFCURVE",
"255 317 OFFCURVE",
"265 320 CURVE SMOOTH",
"288 327 OFFCURVE",
"305 344 OFFCURVE",
"314 373 CURVE",
"333 377 OFFCURVE",
"371 419 OFFCURVE",
"371 438 CURVE SMOOTH",
"371 458 OFFCURVE",
"347 475 OFFCURVE",
"299 488 CURVE",
"299 501 OFFCURVE",
"321 533 OFFCURVE",
"321 556 CURVE SMOOTH",
"321 573 OFFCURVE",
"315 588 OFFCURVE",
"304 600 CURVE",
"332 601 LINE SMOOTH",
"367 602 OFFCURVE",
"405 595 OFFCURVE",
"446 582 CURVE",
"433 572 OFFCURVE",
"420 562 OFFCURVE",
"407 553 CURVE",
"396 543 OFFCURVE",
"391 528 OFFCURVE",
"391 507 CURVE SMOOTH",
"391 449 OFFCURVE",
"430 396 OFFCURVE",
"489 390 CURVE SMOOTH",
"500 389 OFFCURVE",
"505 387 OFFCURVE",
"505 385 CURVE SMOOTH",
"505 380 OFFCURVE",
"492 368 OFFCURVE",
"466 349 CURVE",
"458 352 OFFCURVE",
"451 353 OFFCURVE",
"444 353 CURVE SMOOTH",
"433 353 OFFCURVE",
"427 349 OFFCURVE",
"427 340 CURVE SMOOTH",
"427 336 OFFCURVE",
"430 332 OFFCURVE",
"436 328 CURVE",
"429 325 OFFCURVE",
"425 321 OFFCURVE",
"425 317 CURVE SMOOTH",
"425 314 LINE",
"435 309 LINE",
"443 309 OFFCURVE",
"452 311 OFFCURVE",
"463 316 CURVE",
"524 289 OFFCURVE",
"553 255 OFFCURVE",
"553 186 CURVE SMOOTH",
"553 155 OFFCURVE",
"536 94 OFFCURVE",
"497 94 CURVE SMOOTH",
"478 94 OFFCURVE",
"431 116 OFFCURVE",
"410 116 CURVE SMOOTH",
"395 116 OFFCURVE",
"376 110 OFFCURVE",
"351 99 CURVE SMOOTH",
"326 88 OFFCURVE",
"307 82 OFFCURVE",
"294 82 CURVE SMOOTH",
"279 82 OFFCURVE",
"265 88 OFFCURVE",
"250 100 CURVE SMOOTH",
"235 112 OFFCURVE",
"221 118 OFFCURVE",
"208 118 CURVE SMOOTH",
"190 118 OFFCURVE",
"169 106 OFFCURVE",
"145 81 CURVE SMOOTH",
"120 55 OFFCURVE",
"104 43 OFFCURVE",
"95 43 CURVE SMOOTH",
"80 43 OFFCURVE",
"73 72 OFFCURVE",
"73 130 CURVE",
"99 145 OFFCURVE",
"119 169 OFFCURVE",
"134 202 CURVE"
);
},
{
closed = 1;
nodes = (
"140 602 OFFCURVE",
"177 603 OFFCURVE",
"202 604 CURVE SMOOTH",
"235 603 LINE",
"171 592 OFFCURVE",
"128 552 OFFCURVE",
"106 481 CURVE SMOOTH",
"94 433 LINE SMOOTH",
"87 407 OFFCURVE",
"81 394 OFFCURVE",
"76 394 CURVE SMOOTH",
"73 394 LINE",
"71 583 LINE SMOOTH",
"71 598 OFFCURVE",
"72 604 OFFCURVE",
"91 603 CURVE SMOOTH"
);
},
{
closed = 1;
nodes = (
"265 444 LINE",
"265 454 OFFCURVE",
"269 460 OFFCURVE",
"277 462 CURVE",
"278 463 OFFCURVE",
"287 463 OFFCURVE",
"302 463 CURVE SMOOTH",
"313 463 OFFCURVE",
"322 460 OFFCURVE",
"327 454 CURVE SMOOTH",
"330 450 OFFCURVE",
"333 441 OFFCURVE",
"337 428 CURVE",
"335 415 OFFCURVE",
"329 406 OFFCURVE",
"319 403 CURVE SMOOTH",
"315 402 OFFCURVE",
"304 401 OFFCURVE",
"286 401 CURVE SMOOTH",
"279 401 OFFCURVE",
"273 401 OFFCURVE",
"270 402 CURVE",
"267 409 OFFCURVE",
"265 415 OFFCURVE",
"265 422 CURVE SMOOTH"
);
}
);
};
layerId = "F72AA8BB-7F63-4F07-AEAC-030E55A5CABB";
paths = (
{
closed = 1;
nodes = (
"22 15 OFFCURVE",
"47 16 OFFCURVE",
"80 18 CURVE SMOOTH",
"113 20 OFFCURVE",
"138 21 OFFCURVE",
"155 21 CURVE SMOOTH",
"173 21 OFFCURVE",
"253 19 OFFCURVE",
"278 19 CURVE SMOOTH",
"418 19 OFFCURVE",
"585 39 OFFCURVE",
"585 217 CURVE SMOOTH",
"585 290 OFFCURVE",
"554 314 OFFCURVE",
"495 349 CURVE",
"545 381 OFFCURVE",
"553 421 OFFCURVE",
"553 477 CURVE SMOOTH",
"553 603 OFFCURVE",
"466 636 OFFCURVE",
"357 643 CURVE SMOOTH",
"277 645 OFFCURVE",
"198 646 OFFCURVE",
"118 653 CURVE SMOOTH",
"81 656 OFFCURVE",
"50 657 OFFCURVE",
"27 657 CURVE SMOOTH",
"2 657 OFFCURVE",
"-11 648 OFFCURVE",
"-11 629 CURVE SMOOTH",
"-11 622 OFFCURVE",
"-3 615 OFFCURVE",
"13 608 CURVE SMOOTH",
"29 601 OFFCURVE",
"38 586 OFFCURVE",
"40 564 CURVE SMOOTH",
"43 531 OFFCURVE",
"44 478 OFFCURVE",
"44 405 CURVE SMOOTH",
"44 194 OFFCURVE",
"36 85 OFFCURVE",
"20 78 CURVE SMOOTH",
"-9 65 OFFCURVE",
"-24 52 OFFCURVE",
"-24 39 CURVE SMOOTH",
"-24 23 OFFCURVE",
"-14 15 OFFCURVE",
"5 15 CURVE SMOOTH"
);
},
{
closed = 1;
nodes = (
"135 218 OFFCURVE",
"142 244 OFFCURVE",
"161 294 CURVE SMOOTH",
"170 318 OFFCURVE",
"180 330 OFFCURVE",
"192 330 CURVE SMOOTH",
"231 330 OFFCURVE",
"255 332 OFFCURVE",
"265 335 CURVE SMOOTH",
"288 342 OFFCURVE",
"305 359 OFFCURVE",
"314 388 CURVE",
"333 392 OFFCURVE",
"371 434 OFFCURVE",
"371 453 CURVE SMOOTH",
"371 473 OFFCURVE",
"347 490 OFFCURVE",
"299 503 CURVE",
"299 516 OFFCURVE",
"321 548 OFFCURVE",
"321 571 CURVE SMOOTH",
"321 588 OFFCURVE",
"315 603 OFFCURVE",
"304 615 CURVE",
"332 616 LINE SMOOTH",
"367 617 OFFCURVE",
"405 610 OFFCURVE",
"446 597 CURVE",
"433 587 OFFCURVE",
"420 577 OFFCURVE",
"407 568 CURVE",
"396 558 OFFCURVE",
"391 543 OFFCURVE",
"391 522 CURVE SMOOTH",
"391 464 OFFCURVE",
"430 411 OFFCURVE",
"489 405 CURVE SMOOTH",
"500 404 OFFCURVE",
"505 402 OFFCURVE",
"505 400 CURVE SMOOTH",
"505 395 OFFCURVE",
"492 383 OFFCURVE",
"466 364 CURVE",
"458 367 OFFCURVE",
"451 368 OFFCURVE",
"444 368 CURVE SMOOTH",
"433 368 OFFCURVE",
"427 364 OFFCURVE",
"427 355 CURVE SMOOTH",
"427 351 OFFCURVE",
"430 347 OFFCURVE",
"436 343 CURVE",
"429 340 OFFCURVE",
"425 336 OFFCURVE",
"425 332 CURVE SMOOTH",
"425 329 LINE",
"435 324 LINE",
"443 324 OFFCURVE",
"452 326 OFFCURVE",
"463 331 CURVE",
"524 304 OFFCURVE",
"553 270 OFFCURVE",
"553 201 CURVE SMOOTH",
"553 170 OFFCURVE",
"536 109 OFFCURVE",
"497 109 CURVE SMOOTH",
"478 109 OFFCURVE",
"431 131 OFFCURVE",
"410 131 CURVE SMOOTH",
"395 131 OFFCURVE",
"376 125 OFFCURVE",
"351 114 CURVE SMOOTH",
"326 103 OFFCURVE",
"307 97 OFFCURVE",
"294 97 CURVE SMOOTH",
"279 97 OFFCURVE",
"265 103 OFFCURVE",
"250 115 CURVE SMOOTH",
"235 127 OFFCURVE",
"221 133 OFFCURVE",
"208 133 CURVE SMOOTH",
"190 133 OFFCURVE",
"169 121 OFFCURVE",
"145 96 CURVE SMOOTH",
"120 70 OFFCURVE",
"104 58 OFFCURVE",
"95 58 CURVE SMOOTH",
"80 58 OFFCURVE",
"73 87 OFFCURVE",
"73 145 CURVE",
"99 160 OFFCURVE",
"119 184 OFFCURVE",
"134 217 CURVE"
);
},
{
closed = 1;
nodes = (
"140 617 OFFCURVE",
"177 618 OFFCURVE",
"202 619 CURVE SMOOTH",
"235 618 LINE",
"171 607 OFFCURVE",
"128 567 OFFCURVE",
"106 496 CURVE SMOOTH",
"94 448 LINE SMOOTH",
"87 422 OFFCURVE",
"81 409 OFFCURVE",
"76 409 CURVE SMOOTH",
"73 409 LINE",
"71 598 LINE SMOOTH",
"71 613 OFFCURVE",
"72 619 OFFCURVE",
"91 618 CURVE SMOOTH"
);
},
{
closed = 1;
nodes = (
"265 459 LINE",
"265 469 OFFCURVE",
"269 475 OFFCURVE",
"277 477 CURVE",
"278 478 OFFCURVE",
"287 478 OFFCURVE",
"302 478 CURVE SMOOTH",
"313 478 OFFCURVE",
"322 475 OFFCURVE",
"327 469 CURVE SMOOTH",
"330 465 OFFCURVE",
"333 456 OFFCURVE",
"337 443 CURVE",
"335 430 OFFCURVE",
"329 421 OFFCURVE",
"319 418 CURVE SMOOTH",
"315 417 OFFCURVE",
"304 416 OFFCURVE",
"286 416 CURVE SMOOTH",
"279 416 OFFCURVE",
"273 416 OFFCURVE",
"270 417 CURVE",
"267 424 OFFCURVE",
"265 430 OFFCURVE",
"265 437 CURVE SMOOTH"
);
},
{
closed = 1;
nodes = (
"237 180 OFFCURVE",
"244 168 OFFCURVE",
"258 165 CURVE SMOOTH",
"263 164 OFFCURVE",
"277 163 OFFCURVE",
"300 163 CURVE SMOOTH",
"339 163 OFFCURVE",
"365 178 OFFCURVE",
"377 208 CURVE",
"386 209 LINE SMOOTH",
"395 209 OFFCURVE",
"405 202 OFFCURVE",
"417 189 CURVE SMOOTH",
"429 176 OFFCURVE",
"440 169 OFFCURVE",
"450 169 CURVE SMOOTH",
"475 169 OFFCURVE",
"496 190 OFFCURVE",
"496 217 CURVE SMOOTH",
"496 252 OFFCURVE",
"470 256 OFFCURVE",
"450 265 CURVE",
"439 273 OFFCURVE",
"428 305 OFFCURVE",
"413 314 CURVE SMOOTH",
"401 321 OFFCURVE",
"383 325 OFFCURVE",
"358 325 CURVE SMOOTH",
"337 325 OFFCURVE",
"320 321 OFFCURVE",
"308 312 CURVE SMOOTH",
"301 307 OFFCURVE",
"294 304 OFFCURVE",
"287 303 CURVE",
"286 302 OFFCURVE",
"278 302 OFFCURVE",
"264 302 CURVE SMOOTH",
"247 301 OFFCURVE",
"238 296 OFFCURVE",
"238 286 CURVE SMOOTH",
"238 278 OFFCURVE",
"244 248 OFFCURVE",
"251 245 CURVE",
"259 245 OFFCURVE",
"266 270 OFFCURVE",
"279 270 CURVE SMOOTH",
"330 270 OFFCURVE",
"355 258 OFFCURVE",
"355 234 CURVE SMOOTH",
"355 201 OFFCURVE",
"300 191 OFFCURVE",
"275 191 CURVE SMOOTH",
"262 191 OFFCURVE",
"266 218 OFFCURVE",
"258 218 CURVE SMOOTH",
"247 218 OFFCURVE",
"237 206 OFFCURVE",
"237 197 CURVE SMOOTH"
);
}
);
width = 595;
}
);
note = B;
unicode = 0042;
},
{
glyphname = C;
lastChange = "2021-11-18 14:34:11 +0000";
layers = (
{
anchors = (
{
name = bottom;
position = "{340, -12}";
},
{
name = top;
position = "{301, 643}";
}
);
layerId = "F72AA8BB-7F63-4F07-AEAC-030E55A5CABB";
paths = (
{
closed = 1;
nodes = (
"15 263 OFFCURVE",
"33 155 OFFCURVE",
"80 108 CURVE SMOOTH",
"157 31 OFFCURVE",
"241 -7 OFFCURVE",
"332 -7 CURVE SMOOTH",
"351 -7 OFFCURVE",
"377 -4 OFFCURVE",
"410 2 CURVE SMOOTH",
"447 9 OFFCURVE",
"473 12 OFFCURVE",
"488 13 CURVE SMOOTH",
"525 15 OFFCURVE",
"542 31 OFFCURVE",
"540 58 CURVE SMOOTH",
"539 69 OFFCURVE",
"535 88 OFFCURVE",
"526 115 CURVE SMOOTH",
"517 142 OFFCURVE",
"512 162 OFFCURVE",
"511 177 CURVE SMOOTH",
"509 197 OFFCURVE",
"526 262 OFFCURVE",
"525 281 CURVE SMOOTH",
"524 298 OFFCURVE",
"500 308 OFFCURVE",
"481 307 CURVE SMOOTH",
"466 306 OFFCURVE",
"458 290 OFFCURVE",
"456 261 CURVE",
"427 236 OFFCURVE",
"398 222 OFFCURVE",
"369 220 CURVE SMOOTH",
"316 216 OFFCURVE",
"261 254 OFFCURVE",
"257 307 CURVE SMOOTH",
"252 375 OFFCURVE",
"291 417 OFFCURVE",
"359 422 CURVE SMOOTH",
"384 424 OFFCURVE",
"412 419 OFFCURVE",
"441 407 CURVE SMOOTH",
"470 395 OFFCURVE",
"486 389 OFFCURVE",
"488 389 CURVE SMOOTH",
"497 390 OFFCURVE",
"500 410 OFFCURVE",
"498 450 CURVE SMOOTH",
"497 475 OFFCURVE",
"480 558 OFFCURVE",
"478 581 CURVE SMOOTH",
"478 588 OFFCURVE",
"481 604 OFFCURVE",
"481 611 CURVE SMOOTH",
"480 626 OFFCURVE",
"454 636 OFFCURVE",
"403 640 CURVE SMOOTH",
"370 643 OFFCURVE",
"338 643 OFFCURVE",
"307 641 CURVE SMOOTH",
"266 638 OFFCURVE",
"228 628 OFFCURVE",
"192 612 CURVE SMOOTH",
"145 591 OFFCURVE",
"123 564 OFFCURVE",
"126 531 CURVE SMOOTH",
"127 521 LINE",
"131 524 OFFCURVE",
"133 526 OFFCURVE",
"134 529 CURVE",
"156 563 OFFCURVE",
"194 587 OFFCURVE",
"249 600 CURVE",
"248 592 OFFCURVE",
"247 584 OFFCURVE",
"247 577 CURVE SMOOTH",
"247 524 OFFCURVE",
"284 498 OFFCURVE",
"358 498 CURVE SMOOTH",
"369 498 OFFCURVE",
"389 499 OFFCURVE",
"418 501 CURVE SMOOTH",
"432 502 OFFCURVE",
"443 506 OFFCURVE",
"452 511 CURVE",
"456 485 LINE SMOOTH",
"459 464 OFFCURVE",
"445 454 OFFCURVE",
"417 450 CURVE SMOOTH",
"410 449 OFFCURVE",
"398 449 OFFCURVE",
"383 450 CURVE SMOOTH",
"368 451 OFFCURVE",
"356 451 OFFCURVE",
"348 451 CURVE SMOOTH",
"329 450 OFFCURVE",
"311 444 OFFCURVE",
"292 435 CURVE",
"271 433 OFFCURVE",
"242 442 OFFCURVE",
"206 463 CURVE SMOOTH",
"170 484 OFFCURVE",
"139 493 OFFCURVE",
"113 490 CURVE SMOOTH",
"106 489 OFFCURVE",
"98 488 OFFCURVE",
"91 487 CURVE",
"105 510 OFFCURVE",
"112 522 OFFCURVE",
"112 525 CURVE SMOOTH",
"111 530 OFFCURVE",
"108 532 OFFCURVE",
"103 531 CURVE SMOOTH",
"98 531 OFFCURVE",
"93 527 OFFCURVE",
"88 520 CURVE",
"81 513 OFFCURVE",
"37 430 OFFCURVE",
"32 418 CURVE SMOOTH",
"21 391 OFFCURVE",
"15 361 OFFCURVE",
"15 328 CURVE SMOOTH"
);
},
{
closed = 1;
nodes = (
"74 214 OFFCURVE",
"99 208 OFFCURVE",
"119 210 CURVE SMOOTH",
"142 212 OFFCURVE",
"152 213 OFFCURVE",
"151 213 CURVE SMOOTH",
"174 213 OFFCURVE",
"188 204 OFFCURVE",
"192 185 CURVE SMOOTH",
"199 150 OFFCURVE",
"206 125 OFFCURVE",
"215 111 CURVE SMOOTH",
"229 89 OFFCURVE",
"253 79 OFFCURVE",
"284 81 CURVE SMOOTH",
"297 82 OFFCURVE",
"314 88 OFFCURVE",
"334 101 CURVE SMOOTH",
"353 113 OFFCURVE",
"369 119 OFFCURVE",
"382 120 CURVE SMOOTH",
"397 121 OFFCURVE",
"428 111 OFFCURVE",
"443 112 CURVE SMOOTH",
"472 114 OFFCURVE",
"491 129 OFFCURVE",
"502 156 CURVE",
"507 49 LINE",
"475 30 OFFCURVE",
"424 19 OFFCURVE",
"355 14 CURVE SMOOTH",
"284 9 OFFCURVE",
"220 27 OFFCURVE",
"163 66 CURVE SMOOTH",
"106 105 OFFCURVE",
"66 158 OFFCURVE",
"45 225 CURVE"
);
},
{
closed = 1;
nodes = (
"53 405 OFFCURVE",
"63 421 OFFCURVE",
"76 422 CURVE SMOOTH",
"93 423 OFFCURVE",
"112 413 OFFCURVE",
"131 389 CURVE SMOOTH",
"149 367 OFFCURVE",
"159 347 OFFCURVE",
"160 329 CURVE SMOOTH",
"161 310 OFFCURVE",
"153 293 OFFCURVE",
"134 277 CURVE SMOOTH",
"114 261 OFFCURVE",
"96 251 OFFCURVE",
"77 250 CURVE SMOOTH",
"54 249 OFFCURVE",
"41 267 OFFCURVE",
"38 306 CURVE SMOOTH",
"37 323 OFFCURVE",
"40 345 OFFCURVE",
"46 372 CURVE SMOOTH"
);
}
);
width = 549;
}
);
note = C;
unicode = 0043;
},
{
glyphname = D;
lastChange = "2021-11-18 14:34:11 +0000";
layers = (
{
anchors = (
{
name = bottom;
position = "{333, 0}";
},
{
name = center;
position = "{333, 325}";
},
{
name = top;
position = "{333, 650}";
}
);
layerId = "F72AA8BB-7F63-4F07-AEAC-030E55A5CABB";
paths = (
{
closed = 1;
nodes = (
"294 4 OFFCURVE",
"381 9 OFFCURVE",
"430 20 CURVE SMOOTH",
"536 44 OFFCURVE",
"595 96 OFFCURVE",
"607 177 CURVE",
"634 216 OFFCURVE",
"648 266 OFFCURVE",
"648 325 CURVE SMOOTH",
"648 529 OFFCURVE",
"534 616 OFFCURVE",
"343 638 CURVE SMOOTH",
"298 643 OFFCURVE",
"214 646 OFFCURVE",
"89 646 CURVE SMOOTH",
"64 646 OFFCURVE",
"52 636 OFFCURVE",
"52 615 CURVE SMOOTH",
"52 459 OFFCURVE",
"49 304 OFFCURVE",
"35 149 CURVE SMOOTH",
"32 112 OFFCURVE",
"30 81 OFFCURVE",
"30 56 CURVE SMOOTH",
"30 23 OFFCURVE",
"38 7 OFFCURVE",
"55 7 CURVE SMOOTH",
"58 7 OFFCURVE",
"62 8 OFFCURVE",
"67 11 CURVE",
"74 6 OFFCURVE",
"108 4 OFFCURVE",
"171 4 CURVE SMOOTH"
);
},
{
closed = 1;
nodes = (
"358 45 OFFCURVE",
"329 46 OFFCURVE",
"275 48 CURVE",
"281 62 OFFCURVE",
"284 79 OFFCURVE",
"284 100 CURVE SMOOTH",
"284 134 OFFCURVE",
"272 158 OFFCURVE",
"249 173 CURVE",
"228 182 OFFCURVE",
"206 192 OFFCURVE",
"185 202 CURVE",
"162 216 OFFCURVE",
"151 240 OFFCURVE",
"151 275 CURVE SMOOTH",
"151 280 OFFCURVE",
"152 288 OFFCURVE",
"154 299 CURVE SMOOTH",
"156 310 OFFCURVE",
"156 318 OFFCURVE",
"156 323 CURVE SMOOTH",
"156 361 OFFCURVE",
"123 387 OFFCURVE",
"87 389 CURVE",
"87 410 OFFCURVE",
"86 442 OFFCURVE",
"84 485 CURVE SMOOTH",
"82 528 OFFCURVE",
"80 560 OFFCURVE",
"80 581 CURVE SMOOTH",
"80 604 OFFCURVE",
"103 615 OFFCURVE",
"150 615 CURVE SMOOTH",
"157 615 OFFCURVE",
"167 615 OFFCURVE",
"180 614 CURVE SMOOTH",
"192 613 OFFCURVE",
"200 613 OFFCURVE",
"203 613 CURVE SMOOTH",
"227 613 OFFCURVE",
"246 613 OFFCURVE",
"260 612 CURVE",
"221 569 OFFCURVE",
"202 524 OFFCURVE",
"202 475 CURVE SMOOTH",
"202 431 OFFCURVE",
"221 401 OFFCURVE",
"260 384 CURVE",
"253 285 OFFCURVE",
"261 236 OFFCURVE",
"282 236 CURVE SMOOTH",
"290 236 OFFCURVE",
"294 246 OFFCURVE",
"294 267 CURVE SMOOTH",
"294 414 LINE",
"295 421 OFFCURVE",
"300 424 OFFCURVE",
"309 424 CURVE SMOOTH",
"378 424 OFFCURVE",
"413 387 OFFCURVE",
"413 313 CURVE SMOOTH",
"413 256 OFFCURVE",
"355 221 OFFCURVE",
"303 221 CURVE",
"286 224 LINE SMOOTH",
"277 225 OFFCURVE",
"269 225 OFFCURVE",
"264 224 CURVE SMOOTH",
"257 223 OFFCURVE",
"253 221 OFFCURVE",
"253 217 CURVE SMOOTH",
"253 199 OFFCURVE",
"269 190 OFFCURVE",
"300 190 CURVE SMOOTH",
"364 190 OFFCURVE",
"400 204 OFFCURVE",
"430 263 CURVE",
"457 261 OFFCURVE",
"483 267 OFFCURVE",
"506 281 CURVE SMOOTH",
"520 289 OFFCURVE",
"538 306 OFFCURVE",
"562 330 CURVE SMOOTH",
"586 354 OFFCURVE",
"604 371 OFFCURVE",
"619 380 CURVE",
"621 367 OFFCURVE",
"622 353 OFFCURVE",
"622 339 CURVE SMOOTH",
"622 308 OFFCURVE",
"617 273 OFFCURVE",
"606 236 CURVE",
"603 242 OFFCURVE",
"600 245 OFFCURVE",
"595 245 CURVE SMOOTH",
"590 245 OFFCURVE",
"584 242 OFFCURVE",
"579 237 CURVE",
"580 212 OFFCURVE",
"580 194 OFFCURVE",
"581 182 CURVE",
"560 158 OFFCURVE",
"544 141 OFFCURVE",
"533 131 CURVE SMOOTH",
"530 128 OFFCURVE",
"529 127 OFFCURVE",
"529 126 CURVE SMOOTH",
"529 121 OFFCURVE",
"532 119 OFFCURVE",
"538 120 CURVE SMOOTH",
"546 120 LINE",
"531 102 OFFCURVE",
"510 87 OFFCURVE",
"482 74 CURVE",
"477 83 OFFCURVE",
"475 90 OFFCURVE",
"475 95 CURVE SMOOTH",
"475 104 OFFCURVE",
"481 114 OFFCURVE",
"493 126 CURVE SMOOTH",
"505 138 OFFCURVE",
"511 149 OFFCURVE",
"511 158 CURVE SMOOTH",
"511 183 OFFCURVE",
"490 203 OFFCURVE",
"465 203 CURVE SMOOTH",
"445 203 OFFCURVE",
"433 198 OFFCURVE",
"428 187 CURVE SMOOTH",
"423 176 OFFCURVE",
"419 164 OFFCURVE",
"415 153 CURVE",
"412 149 OFFCURVE",
"405 144 OFFCURVE",
"394 139 CURVE SMOOTH",
"383 134 OFFCURVE",
"375 126 OFFCURVE",
"370 119 CURVE SMOOTH",
"362 108 OFFCURVE",
"361 90 OFFCURVE",
"362 67 CURVE SMOOTH",
"363 45 LINE"
);
}
);
width = 666;
}
);
note = D;
unicode = 0044;
},
{
glyphname = Dcroat;
lastChange = "2021-11-18 14:34:11 +0000";
layers = (
{
components = (
{
name = D;
}
);
layerId = "F72AA8BB-7F63-4F07-AEAC-030E55A5CABB";
paths = (
{
closed = 1;
nodes = (
"297 252 OFFCURVE",
"309 252 OFFCURVE",
"319 250 CURVE SMOOTH",
"323 250 OFFCURVE",
"333 248 OFFCURVE",
"350 246 CURVE SMOOTH",
"366 244 OFFCURVE",
"373 249 OFFCURVE",
"374 259 CURVE SMOOTH",
"374 265 OFFCURVE",
"371 283 OFFCURVE",
"371 285 CURVE SMOOTH",
"371 326 LINE",
"373 338 OFFCURVE",
"364 344 OFFCURVE",
"345 344 CURVE SMOOTH",
"318 344 OFFCURVE",
"297 341 OFFCURVE",
"281 338 CURVE",
"281 280 LINE",
"299 282 OFFCURVE",
"318 286 OFFCURVE",
"338 291 CURVE",
"337 284 OFFCURVE",
"336 280 OFFCURVE",
"337 278 CURVE",
"337 275 OFFCURVE",
"343 267 OFFCURVE",
"343 265 CURVE SMOOTH",
"343 263 OFFCURVE",
"340 262 OFFCURVE",
"334 262 CURVE SMOOTH",
"318 262 OFFCURVE",
"301 262 OFFCURVE",
"284 263 CURVE",
"284 252 LINE"
);
},
{
closed = 1;
nodes = (
"93 339 OFFCURVE",
"72 338 OFFCURVE",
"66 338 CURVE",
"62 339 OFFCURVE",
"41 340 OFFCURVE",
"4 342 CURVE SMOOTH",
"-23 343 OFFCURVE",
"-39 343 OFFCURVE",
"-44 342 CURVE SMOOTH",
"-56 338 OFFCURVE",
"-62 334 OFFCURVE",
"-62 326 CURVE SMOOTH",
"-62 321 OFFCURVE",
"-58 283 OFFCURVE",
"-58 280 CURVE SMOOTH",
"-58 279 OFFCURVE",
"-62 262 OFFCURVE",
"-61 256 CURVE SMOOTH",
"-60 251 OFFCURVE",
"-58 249 OFFCURVE",
"-54 248 CURVE SMOOTH",
"-45 247 OFFCURVE",
"-33 247 OFFCURVE",
"-17 248 CURVE SMOOTH",
"-10 249 OFFCURVE",
"-4 253 OFFCURVE",
"0 262 CURVE SMOOTH",
"4 270 OFFCURVE",
"7 274 OFFCURVE",
"11 274 CURVE SMOOTH",
"44 274 OFFCURVE",
"60 270 OFFCURVE",
"60 261 CURVE SMOOTH",
"60 256 OFFCURVE",
"52 246 OFFCURVE",
"52 245 CURVE SMOOTH",
"52 244 OFFCURVE",
"53 244 OFFCURVE",
"54 244 CURVE SMOOTH",
"63 243 OFFCURVE",
"73 242 OFFCURVE",
"84 242 CURVE SMOOTH",
"90 242 OFFCURVE",
"96 242 OFFCURVE",
"102 242 CURVE",
"114 340 LINE"
);
}
);
width = 666;
}
);
unicode = 0110;
},
{
glyphname = E;
lastChange = "2021-11-18 14:34:11 +0000";
layers = (
{
anchors = (
{
name = bottom;
position = "{310, 15}";
},
{
name = ogonek;
position = "{461, 37}";
},
{
name = top;
position = "{257, 650}";
},
{
name = topleft;
position = "{20, 650}";
}
);
layerId = "F72AA8BB-7F63-4F07-AEAC-030E55A5CABB";
paths = (
{
closed = 1;
nodes = (
"35 568 OFFCURVE",
"54 475 OFFCURVE",
"55 448 CURVE SMOOTH",
"56 424 OFFCURVE",
"58 388 OFFCURVE",
"59 339 CURVE SMOOTH",
"60 290 OFFCURVE",
"61 254 OFFCURVE",
"62 230 CURVE SMOOTH",
"63 205 OFFCURVE",
"74 126 OFFCURVE",
"76 102 CURVE SMOOTH",
"76 94 OFFCURVE",
"73 76 OFFCURVE",
"73 71 CURVE SMOOTH",
"73 58 OFFCURVE",
"81 51 OFFCURVE",
"97 53 CURVE SMOOTH",
"104 54 OFFCURVE",
"106 64 OFFCURVE",
"105 83 CURVE SMOOTH",
"105 173 OFFCURVE",
"100 262 OFFCURVE",
"93 352 CURVE",
"113 350 OFFCURVE",
"133 357 OFFCURVE",
"152 373 CURVE SMOOTH",
"170 389 OFFCURVE",
"179 407 OFFCURVE",
"178 426 CURVE SMOOTH",
"178 437 OFFCURVE",
"167 462 OFFCURVE",
"166 473 CURVE SMOOTH",
"165 490 OFFCURVE",
"177 512 OFFCURVE",
"201 538 CURVE SMOOTH",
"228 567 OFFCURVE",
"244 590 OFFCURVE",
"248 607 CURVE",
"281 608 OFFCURVE",
"314 609 OFFCURVE",
"347 610 CURVE SMOOTH",
"387 611 OFFCURVE",
"420 615 OFFCURVE",
"445 621 CURVE",
"440 594 OFFCURVE",
"438 575 OFFCURVE",
"439 562 CURVE SMOOTH",
"443 540 OFFCURVE",
"447 524 OFFCURVE",
"450 514 CURVE",
"451 504 LINE",
"443 503 OFFCURVE",
"436 502 OFFCURVE",
"429 500 CURVE",
"431 507 OFFCURVE",
"432 515 OFFCURVE",
"432 522 CURVE SMOOTH",
"432 559 OFFCURVE",
"414 577 OFFCURVE",
"377 575 CURVE SMOOTH",
"328 572 OFFCURVE",
"296 531 OFFCURVE",
"297 482 CURVE",
"285 483 OFFCURVE",
"277 481 OFFCURVE",
"272 478 CURVE SMOOTH",
"265 474 OFFCURVE",
"262 466 OFFCURVE",
"263 455 CURVE",
"268 437 OFFCURVE",
"273 423 OFFCURVE",
"278 414 CURVE",
"271 405 LINE",
"271 399 OFFCURVE",
"296 397 OFFCURVE",
"345 400 CURVE",
"354 375 OFFCURVE",
"359 344 OFFCURVE",
"398 346 CURVE SMOOTH",
"421 347 OFFCURVE",
"435 359 OFFCURVE",
"441 382 CURVE",
"441 341 OFFCURVE",
"444 308 OFFCURVE",
"450 281 CURVE",
"438 280 OFFCURVE",
"405 273 OFFCURVE",
"392 273 CURVE SMOOTH",
"386 273 LINE",
"363 294 OFFCURVE",
"350 306 OFFCURVE",
"346 309 CURVE SMOOTH",
"330 321 OFFCURVE",
"313 325 OFFCURVE",
"294 324 CURVE SMOOTH",
"238 321 OFFCURVE",
"220 296 OFFCURVE",
"206 247 CURVE SMOOTH",
"201 227 OFFCURVE",
"196 215 OFFCURVE",
"189 212 CURVE SMOOTH",
"155 197 OFFCURVE",
"140 165 OFFCURVE",
"142 122 CURVE SMOOTH",
"144 84 OFFCURVE",
"158 56 OFFCURVE",
"183 37 CURVE",
"139 38 OFFCURVE",
"106 40 OFFCURVE",
"83 41 CURVE",
"70 40 OFFCURVE",
"63 33 OFFCURVE",
"64 18 CURVE SMOOTH",
"65 2 OFFCURVE",
"75 -6 OFFCURVE",
"96 -5 CURVE SMOOTH",
"129 -3 OFFCURVE",
"178 1 OFFCURVE",
"244 8 CURVE SMOOTH",
"310 15 OFFCURVE",
"359 19 OFFCURVE",
"392 20 CURVE SMOOTH",
"416 21 OFFCURVE",
"491 10 OFFCURVE",
"505 10 CURVE SMOOTH",
"523 11 OFFCURVE",
"532 38 OFFCURVE",
"528 91 CURVE SMOOTH",
"527 104 OFFCURVE",
"524 122 OFFCURVE",
"518 146 CURVE SMOOTH",
"506 195 OFFCURVE",
"506 219 OFFCURVE",
"506 220 CURVE",
"504 225 OFFCURVE",
"499 227 OFFCURVE",
"490 227 CURVE",
"441 221 OFFCURVE",
"404 215 OFFCURVE",
"379 210 CURVE",
"313 207 LINE",
"311 226 OFFCURVE",
"307 241 OFFCURVE",
"300 254 CURVE",
"311 255 LINE",
"321 239 OFFCURVE",
"367 234 OFFCURVE",
"450 238 CURVE SMOOTH",
"470 239 OFFCURVE",
"479 248 OFFCURVE",
"478 265 CURVE SMOOTH",
"478 272 OFFCURVE",
"476 277 OFFCURVE",
"471 280 CURVE",
"472 285 OFFCURVE",
"475 308 OFFCURVE",
"480 348 CURVE SMOOTH",
"485 388 OFFCURVE",
"487 410 OFFCURVE",
"487 413 CURVE SMOOTH",
"487 427 OFFCURVE",
"473 433 OFFCURVE",
"447 432 CURVE SMOOTH",
"431 431 OFFCURVE",
"406 429 OFFCURVE",
"373 426 CURVE SMOOTH",
"340 423 OFFCURVE",
"315 420 OFFCURVE",
"298 419 CURVE",
"298 450 LINE SMOOTH",
"298 455 OFFCURVE",
"327 455 OFFCURVE",
"384 461 CURVE SMOOTH",
"393 462 OFFCURVE",
"408 462 OFFCURVE",
"427 461 CURVE SMOOTH",
"446 460 OFFCURVE",
"461 459 OFFCURVE",
"470 460 CURVE SMOOTH",
"482 461 OFFCURVE",
"489 467 OFFCURVE",
"487 479 CURVE SMOOTH",
"486 484 OFFCURVE",
"484 488 OFFCURVE",
"481 492 CURVE",
"476 581 LINE SMOOTH",
"475 598 OFFCURVE",
"476 614 OFFCURVE",
"477 630 CURVE",
"475 650 OFFCURVE",
"467 660 OFFCURVE",
"453 659 CURVE SMOOTH",
"428 657 OFFCURVE",
"339 644 OFFCURVE",
"314 643 CURVE SMOOTH",
"295 642 OFFCURVE",
"266 641 OFFCURVE",
"228 640 CURVE SMOOTH",
"189 639 OFFCURVE",
"161 637 OFFCURVE",
"142 636 CURVE SMOOTH",
"126 636 OFFCURVE",
"88 643 OFFCURVE",
"72 642 CURVE SMOOTH",
"48 641 OFFCURVE",
"33 619 OFFCURVE",
"34 594 CURVE SMOOTH"
);
}
);
width = 527;
}
);
note = E;
unicode = 0045;
},
{
glyphname = F;
lastChange = "2021-11-18 14:34:11 +0000";
layers = (
{
layerId = "F72AA8BB-7F63-4F07-AEAC-030E55A5CABB";
paths = (
{
closed = 1;
nodes = (
"75 -9 OFFCURVE",
"148 -3 OFFCURVE",
"170 -3 CURVE SMOOTH",
"190 -3 OFFCURVE",
"243 -10 OFFCURVE",
"264 -10 CURVE SMOOTH",
"285 -10 OFFCURVE",
"296 3 OFFCURVE",
"296 28 CURVE SMOOTH",
"296 19 OFFCURVE",
"293 79 OFFCURVE",
"288 208 CURVE",
"385 213 OFFCURVE",
"435 220 OFFCURVE",
"443 226 CURVE SMOOTH",
"449 231 OFFCURVE",
"452 239 OFFCURVE",
"452 248 CURVE SMOOTH",
"452 294 OFFCURVE",
"452 318 OFFCURVE",
"451 319 CURVE",
"450 350 OFFCURVE",
"444 372 OFFCURVE",
"435 385 CURVE",
"435 387 LINE",
"431 387 LINE",
"422 393 OFFCURVE",
"391 396 OFFCURVE",
"339 396 CURVE SMOOTH",
"310 396 OFFCURVE",
"298 395 OFFCURVE",
"305 394 CURVE",
"293 395 OFFCURVE",
"287 402 OFFCURVE",
"287 415 CURVE SMOOTH",
"287 423 OFFCURVE",
"292 429 OFFCURVE",
"303 436 CURVE SMOOTH",
"319 446 OFFCURVE",
"328 451 OFFCURVE",
"329 452 CURVE",
"329 461 OFFCURVE",
"287 469 OFFCURVE",
"278 469 CURVE SMOOTH",
"262 469 OFFCURVE",
"254 452 OFFCURVE",
"254 419 CURVE SMOOTH",
"254 400 OFFCURVE",
"255 387 OFFCURVE",
"258 380 CURVE SMOOTH",
"263 369 OFFCURVE",
"273 364 OFFCURVE",
"290 364 CURVE SMOOTH",
"349 367 LINE",
"335 360 OFFCURVE",
"328 349 OFFCURVE",
"328 335 CURVE SMOOTH",
"328 314 OFFCURVE",
"357 294 OFFCURVE",
"416 275 CURVE",
"416 271 OFFCURVE",
"418 261 OFFCURVE",
"418 258 CURVE SMOOTH",
"418 253 OFFCURVE",
"414 251 OFFCURVE",
"405 251 CURVE SMOOTH",
"379 251 OFFCURVE",
"300 272 OFFCURVE",
"277 272 CURVE SMOOTH",
"256 272 OFFCURVE",
"246 263 OFFCURVE",
"246 246 CURVE SMOOTH",
"246 236 OFFCURVE",
"251 226 OFFCURVE",
"260 217 CURVE",
"257 172 OFFCURVE",
"255 146 OFFCURVE",
"255 140 CURVE SMOOTH",
"255 83 OFFCURVE",
"256 64 OFFCURVE",
"257 82 CURVE SMOOTH",
"255 54 OFFCURVE",
"248 41 OFFCURVE",
"235 41 CURVE SMOOTH",
"174 42 LINE",
"190 59 OFFCURVE",
"198 78 OFFCURVE",
"198 101 CURVE SMOOTH",
"198 121 OFFCURVE",
"171 171 OFFCURVE",
"171 187 CURVE SMOOTH",
"171 213 OFFCURVE",
"186 238 OFFCURVE",
"216 261 CURVE SMOOTH",
"245 284 OFFCURVE",
"260 305 OFFCURVE",
"260 326 CURVE SMOOTH",
"260 382 OFFCURVE",
"197 416 OFFCURVE",
"147 416 CURVE SMOOTH",
"113 416 OFFCURVE",
"88 403 OFFCURVE",
"72 377 CURVE",
"71 384 OFFCURVE",
"69 391 OFFCURVE",
"65 398 CURVE",
"63 398 LINE SMOOTH",
"56 398 OFFCURVE",
"52 383 OFFCURVE",
"50 352 CURVE SMOOTH",
"42 232 OFFCURVE",
"41 117 OFFCURVE",
"41 8 CURVE SMOOTH",
"41 -3 OFFCURVE",
"45 -9 OFFCURVE",
"53 -9 CURVE SMOOTH"
);
},
{
closed = 1;
nodes = (
"27 603 OFFCURVE",
"50 527 OFFCURVE",
"63 516 CURVE",
"66 519 OFFCURVE",
"68 523 OFFCURVE",
"68 526 CURVE SMOOTH",
"69 541 OFFCURVE",
"71 556 OFFCURVE",
"72 571 CURVE SMOOTH",
"74 582 OFFCURVE",
"84 589 OFFCURVE",
"103 591 CURVE",
"100 574 OFFCURVE",
"98 564 OFFCURVE",
"98 559 CURVE SMOOTH",
"98 514 OFFCURVE",
"162 476 OFFCURVE",
"203 476 CURVE SMOOTH",
"230 476 OFFCURVE",
"255 486 OFFCURVE",
"278 505 CURVE SMOOTH",
"301 524 OFFCURVE",
"320 533 OFFCURVE",
"335 533 CURVE SMOOTH",
"346 533 OFFCURVE",
"373 526 OFFCURVE",
"385 526 CURVE SMOOTH",
"402 526 OFFCURVE",
"421 531 OFFCURVE",
"441 540 CURVE",
"441 523 OFFCURVE",
"443 496 OFFCURVE",
"443 491 CURVE SMOOTH",
"443 470 OFFCURVE",
"438 469 OFFCURVE",
"393 458 CURVE",
"385 450 LINE",
"385 434 OFFCURVE",
"420 428 OFFCURVE",
"432 428 CURVE SMOOTH",
"448 428 OFFCURVE",
"458 429 OFFCURVE",
"462 431 CURVE SMOOTH",
"469 434 OFFCURVE",
"472 443 OFFCURVE",
"472 456 CURVE SMOOTH",
"472 479 OFFCURVE",
"470 557 OFFCURVE",
"470 580 CURVE SMOOTH",
"470 591 OFFCURVE",
"478 617 OFFCURVE",
"478 628 CURVE SMOOTH",
"478 641 OFFCURVE",
"466 648 OFFCURVE",
"441 648 CURVE SMOOTH",
"418 648 OFFCURVE",
"384 646 OFFCURVE",
"337 641 CURVE SMOOTH",
"290 636 OFFCURVE",
"254 633 OFFCURVE",
"230 633 CURVE SMOOTH",
"212 633 OFFCURVE",
"185 637 OFFCURVE",
"149 644 CURVE SMOOTH",
"113 651 OFFCURVE",
"86 654 OFFCURVE",
"69 654 CURVE SMOOTH",
"41 654 OFFCURVE",
"27 643 OFFCURVE",
"27 621 CURVE SMOOTH"
);
}
);
width = 484;
}
);
note = F;
unicode = 0046;
},
{
glyphname = G;
lastChange = "2021-11-18 14:34:11 +0000";
layers = (
{
anchors = (
{
name = bottom;
position = "{375, 17}";
},
{
name = top;
position = "{337, 650}";
}
);
layerId = "F72AA8BB-7F63-4F07-AEAC-030E55A5CABB";
paths = (
{
closed = 1;
nodes = (
"8 276 OFFCURVE",
"13 240 OFFCURVE",
"23 235 CURVE",
"30 235 OFFCURVE",
"34 243 OFFCURVE",
"34 259 CURVE SMOOTH",
"34 275 OFFCURVE",
"29 316 OFFCURVE",
"29 332 CURVE SMOOTH",
"29 420 OFFCURVE",
"70 522 OFFCURVE",
"145 573 CURVE",
"156 550 OFFCURVE",
"162 534 OFFCURVE",
"162 526 CURVE SMOOTH",
"162 501 OFFCURVE",
"149 477 OFFCURVE",
"122 454 CURVE SMOOTH",
"94 431 OFFCURVE",
"81 409 OFFCURVE",
"81 389 CURVE SMOOTH",
"81 331 OFFCURVE",
"142 302 OFFCURVE",
"193 302 CURVE SMOOTH",
"204 302 OFFCURVE",
"215 304 OFFCURVE",
"225 307 CURVE",
"234 236 OFFCURVE",
"278 188 OFFCURVE",
"347 188 CURVE SMOOTH",
"387 188 OFFCURVE",
"448 214 OFFCURVE",
"448 261 CURVE SMOOTH",
"448 264 OFFCURVE",
"448 267 OFFCURVE",
"447 268 CURVE",
"444 268 OFFCURVE",
"434 259 OFFCURVE",
"415 240 CURVE SMOOTH",
"395 220 OFFCURVE",
"375 212 OFFCURVE",
"352 212 CURVE SMOOTH",
"284 212 OFFCURVE",
"244 258 OFFCURVE",
"244 327 CURVE SMOOTH",
"244 386 OFFCURVE",
"288 456 OFFCURVE",
"353 456 CURVE SMOOTH",
"370 456 OFFCURVE",
"385 450 OFFCURVE",
"397 438 CURVE SMOOTH",
"410 425 OFFCURVE",
"419 419 OFFCURVE",
"428 419 CURVE SMOOTH",
"443 419 OFFCURVE",
"473 427 OFFCURVE",
"516 443 CURVE SMOOTH",
"559 459 OFFCURVE",
"590 466 OFFCURVE",
"609 466 CURVE SMOOTH",
"624 466 OFFCURVE",
"634 467 OFFCURVE",
"637 468 CURVE SMOOTH",
"646 471 OFFCURVE",
"650 478 OFFCURVE",
"650 491 CURVE SMOOTH",
"650 595 OFFCURVE",
"438 660 OFFCURVE",
"353 660 CURVE SMOOTH",
"163 660 OFFCURVE",
"8 544 OFFCURVE",
"8 344 CURVE SMOOTH"
);
},
{
closed = 1;
nodes = (
"360 503 OFFCURVE",
"372 538 OFFCURVE",
"372 584 CURVE SMOOTH",
"372 601 OFFCURVE",
"370 616 OFFCURVE",
"366 631 CURVE",
"407 630 OFFCURVE",
"448 620 OFFCURVE",
"489 600 CURVE",
"482 579 OFFCURVE",
"478 560 OFFCURVE",
"478 543 CURVE SMOOTH",
"478 513 OFFCURVE",
"476 495 OFFCURVE",
"469 488 CURVE SMOOTH",
"467 486 OFFCURVE",
"450 477 OFFCURVE",
"419 461 CURVE",
"402 476 OFFCURVE",
"387 483 OFFCURVE",
"372 483 CURVE SMOOTH",
"362 483 OFFCURVE",
"350 482 OFFCURVE",
"337 479 CURVE"
);
},
{
closed = 1;
nodes = (
"55 170 OFFCURVE",
"57 165 OFFCURVE",
"59 160 CURVE SMOOTH",
"91 79 OFFCURVE",
"259 15 OFFCURVE",
"342 15 CURVE SMOOTH",
"551 15 OFFCURVE",
"697 151 OFFCURVE",
"697 362 CURVE SMOOTH",
"697 389 OFFCURVE",
"684 402 OFFCURVE",
"657 402 CURVE SMOOTH",
"632 402 OFFCURVE",
"593 401 OFFCURVE",
"542 397 CURVE SMOOTH",
"490 393 OFFCURVE",
"451 391 OFFCURVE",
"426 391 CURVE SMOOTH",
"418 391 OFFCURVE",
"389 394 OFFCURVE",
"374 394 CURVE SMOOTH",
"337 394 OFFCURVE",
"319 382 OFFCURVE",
"319 357 CURVE SMOOTH",
"319 351 OFFCURVE",
"321 344 OFFCURVE",
"326 337 CURVE",
"325 331 OFFCURVE",
"325 323 OFFCURVE",
"326 312 CURVE SMOOTH",
"327 299 OFFCURVE",
"327 291 OFFCURVE",
"327 286 CURVE SMOOTH",
"327 278 OFFCURVE",
"322 261 OFFCURVE",
"322 254 CURVE SMOOTH",
"322 245 OFFCURVE",
"331 241 OFFCURVE",
"349 241 CURVE SMOOTH",
"360 241 OFFCURVE",
"416 248 OFFCURVE",
"416 259 CURVE SMOOTH",
"416 260 OFFCURVE",
"414 261 OFFCURVE",
"411 261 CURVE SMOOTH",
"380 261 OFFCURVE",
"362 268 OFFCURVE",
"357 268 CURVE",
"350 273 OFFCURVE",
"347 282 OFFCURVE",
"347 296 CURVE SMOOTH",
"347 323 LINE",
"358 318 OFFCURVE",
"381 318 OFFCURVE",
"416 321 CURVE",
"424 312 LINE SMOOTH",
"437 298 OFFCURVE",
"455 288 OFFCURVE",
"478 282 CURVE SMOOTH",
"501 276 OFFCURVE",
"517 269 OFFCURVE",
"525 261 CURVE SMOOTH",
"530 256 OFFCURVE",
"539 241 OFFCURVE",
"551 218 CURVE SMOOTH",
"561 199 OFFCURVE",
"577 183 OFFCURVE",
"599 170 CURVE",
"576 141 OFFCURVE",
"553 117 OFFCURVE",
"528 100 CURVE",
"501 125 OFFCURVE",
"464 137 OFFCURVE",
"416 137 CURVE SMOOTH",
"400 137 OFFCURVE",
"363 130 OFFCURVE",
"348 130 CURVE SMOOTH",
"323 130 OFFCURVE",
"295 146 OFFCURVE",
"266 177 CURVE SMOOTH",
"237 209 OFFCURVE",
"206 224 OFFCURVE",
"176 224 CURVE SMOOTH",
"133 224 OFFCURVE",
"99 194 OFFCURVE",
"94 151 CURVE",
"77 170 OFFCURVE",
"66 180 OFFCURVE",
"60 180 CURVE SMOOTH",
"57 180 OFFCURVE",
"55 178 OFFCURVE",
"55 173 CURVE SMOOTH"
);
}
);
width = 711;
}
);
note = G;
unicode = 0047;
},
{
glyphname = H;
lastChange = "2021-11-18 14:34:11 +0000";
layers = (
{
anchors = (
{
name = bottom;
position = "{331, 0}";
},
{
name = center;
position = "{331, 325}";
},
{
name = top;
position = "{383, 650}";
},
{
name = topleft;
position = "{20, 650}";
}
);
layerId = "F72AA8BB-7F63-4F07-AEAC-030E55A5CABB";
paths = (
{
closed = 1;
nodes = (
"108 19 OFFCURVE",
"145 17 OFFCURVE",
"206 14 CURVE SMOOTH",
"257 11 OFFCURVE",
"284 22 OFFCURVE",
"285 46 CURVE SMOOTH",
"285 62 OFFCURVE",
"278 97 OFFCURVE",
"278 109 CURVE SMOOTH",
"278 124 OFFCURVE",
"278 143 OFFCURVE",
"279 167 CURVE SMOOTH",
"281 195 OFFCURVE",
"282 214 OFFCURVE",
"282 224 CURVE",
"312 227 OFFCURVE",
"332 229 OFFCURVE",
"342 228 CURVE SMOOTH",
"355 227 OFFCURVE",
"371 226 OFFCURVE",
"390 224 CURVE",
"387 175 OFFCURVE",
"384 139 OFFCURVE",
"383 114 CURVE SMOOTH",
"382 94 OFFCURVE",
"368 43 OFFCURVE",
"368 24 CURVE SMOOTH",
"367 15 OFFCURVE",
"385 9 OFFCURVE",
"422 7 CURVE SMOOTH",
"538 1 OFFCURVE",
"598 -1 OFFCURVE",
"603 2 CURVE SMOOTH",
"611 7 OFFCURVE",
"617 44 OFFCURVE",
"620 111 CURVE SMOOTH",
"622 150 OFFCURVE",
"625 210 OFFCURVE",
"627 289 CURVE SMOOTH",
"629 368 OFFCURVE",
"631 427 OFFCURVE",
"633 466 CURVE SMOOTH",
"634 492 OFFCURVE",
"644 583 OFFCURVE",
"646 608 CURVE SMOOTH",
"647 626 OFFCURVE",
"640 635 OFFCURVE",
"624 636 CURVE SMOOTH",
"602 637 OFFCURVE",
"525 635 OFFCURVE",
"503 636 CURVE SMOOTH",
"494 637 OFFCURVE",
"455 644 OFFCURVE",
"439 644 CURVE SMOOTH",
"415 644 OFFCURVE",
"403 635 OFFCURVE",
"402 616 CURVE SMOOTH",
"401 597 OFFCURVE",
"400 570 OFFCURVE",
"400 534 CURVE SMOOTH",
"400 498 OFFCURVE",
"400 471 OFFCURVE",
"399 453 CURVE SMOOTH",
"398 441 OFFCURVE",
"391 436 OFFCURVE",
"376 437 CURVE SMOOTH",
"370 437 OFFCURVE",
"357 437 OFFCURVE",
"337 441 CURVE SMOOTH",
"321 444 OFFCURVE",
"308 445 OFFCURVE",
"298 444 CURVE",
"300 501 OFFCURVE",
"301 543 OFFCURVE",
"302 572 CURVE SMOOTH",
"302 584 OFFCURVE",
"313 615 OFFCURVE",
"313 628 CURVE SMOOTH",
"314 641 OFFCURVE",
"297 649 OFFCURVE",
"263 653 CURVE SMOOTH",
"240 654 OFFCURVE",
"218 655 OFFCURVE",
"195 656 CURVE SMOOTH",
"174 657 OFFCURVE",
"104 666 OFFCURVE",
"84 667 CURVE SMOOTH",
"68 668 OFFCURVE",
"61 657 OFFCURVE",
"59 636 CURVE SMOOTH",
"58 625 OFFCURVE",
"68 617 OFFCURVE",
"88 617 CURVE SMOOTH",
"124 617 LINE",
"151 589 OFFCURVE",
"165 567 OFFCURVE",
"164 552 CURVE SMOOTH",
"163 539 OFFCURVE",
"157 519 OFFCURVE",
"146 493 CURVE SMOOTH",
"135 466 OFFCURVE",
"129 445 OFFCURVE",
"128 430 CURVE SMOOTH",
"124 364 OFFCURVE",
"180 300 OFFCURVE",
"246 297 CURVE SMOOTH",
"267 296 OFFCURVE",
"294 301 OFFCURVE",
"326 312 CURVE SMOOTH",
"357 323 OFFCURVE",
"375 329 OFFCURVE",
"378 329 CURVE SMOOTH",
"389 328 OFFCURVE",
"406 322 OFFCURVE",
"428 310 CURVE SMOOTH",
"449 298 OFFCURVE",
"469 291 OFFCURVE",
"487 290 CURVE SMOOTH",
"530 288 OFFCURVE",
"569 300 OFFCURVE",
"602 327 CURVE",
"600 272 OFFCURVE",
"599 242 OFFCURVE",
"599 236 CURVE SMOOTH",
"598 218 OFFCURVE",
"595 191 OFFCURVE",
"591 156 CURVE SMOOTH",
"587 120 OFFCURVE",
"584 93 OFFCURVE",
"583 75 CURVE",
"584 64 OFFCURVE",
"585 56 OFFCURVE",
"586 51 CURVE",
"585 42 OFFCURVE",
"557 40 OFFCURVE",
"502 42 CURVE SMOOTH",
"433 45 LINE SMOOTH",
"423 45 OFFCURVE",
"417 72 OFFCURVE",
"416 124 CURVE SMOOTH",
"415 156 OFFCURVE",
"415 188 OFFCURVE",
"415 221 CURVE",
"424 223 OFFCURVE",
"430 228 OFFCURVE",
"430 236 CURVE SMOOTH",
"430 250 OFFCURVE",
"409 260 OFFCURVE",
"366 265 CURVE SMOOTH",
"362 265 OFFCURVE",
"334 266 OFFCURVE",
"282 269 CURVE SMOOTH",
"265 270 OFFCURVE",
"257 264 OFFCURVE",
"255 250 CURVE SMOOTH",
"254 243 OFFCURVE",
"255 237 OFFCURVE",
"258 232 CURVE",
"253 220 OFFCURVE",
"247 187 OFFCURVE",
"247 132 CURVE SMOOTH",
"247 81 LINE",
"245 60 OFFCURVE",
"235 51 OFFCURVE",
"218 52 CURVE SMOOTH",
"156 57 LINE",
"168 67 OFFCURVE",
"180 77 OFFCURVE",
"193 88 CURVE",
"203 99 OFFCURVE",
"208 114 OFFCURVE",
"209 134 CURVE SMOOTH",
"211 175 OFFCURVE",
"185 208 OFFCURVE",
"144 211 CURVE SMOOTH",
"119 211 OFFCURVE",
"90 210 OFFCURVE",
"73 229 CURVE",
"74 252 OFFCURVE",
"74 274 OFFCURVE",
"75 296 CURVE SMOOTH",
"74 333 OFFCURVE",
"70 351 OFFCURVE",
"62 352 CURVE SMOOTH",
"50 353 OFFCURVE",
"44 343 OFFCURVE",
"44 324 CURVE SMOOTH",
"44 309 OFFCURVE",
"51 271 OFFCURVE",
"51 263 CURVE SMOOTH",
"50 240 OFFCURVE",
"43 205 OFFCURVE",
"31 160 CURVE SMOOTH",
"19 114 OFFCURVE",
"12 81 OFFCURVE",
"11 60 CURVE SMOOTH",
"10 42 OFFCURVE",
"38 28 OFFCURVE",
"94 21 CURVE SMOOTH"
);
},
{
closed = 1;
nodes = (
"458 601 OFFCURVE",
"497 602 OFFCURVE",
"567 598 CURVE SMOOTH",
"576 598 OFFCURVE",
"586 599 OFFCURVE",
"596 597 CURVE SMOOTH",
"609 594 OFFCURVE",
"615 590 OFFCURVE",
"614 582 CURVE SMOOTH",
"611 550 LINE",
"598 557 OFFCURVE",
"584 560 OFFCURVE",
"570 561 CURVE SMOOTH",
"551 562 OFFCURVE",
"508 544 OFFCURVE",
"491 545 CURVE SMOOTH",
"466 546 OFFCURVE",
"452 563 OFFCURVE",
"449 594 CURVE"
);
},
{
closed = 1;
nodes = (
"451 103 OFFCURVE",
"472 75 OFFCURVE",
"513 74 CURVE SMOOTH",
"545 73 OFFCURVE",
"567 99 OFFCURVE",
"569 132 CURVE SMOOTH",
"570 147 OFFCURVE",
"561 169 OFFCURVE",
"541 197 CURVE SMOOTH",
"521 225 OFFCURVE",
"503 238 OFFCURVE",
"489 239 CURVE SMOOTH",
"466 241 OFFCURVE",
"453 225 OFFCURVE",
"452 194 CURVE SMOOTH",
"451 175 OFFCURVE",
"451 162 OFFCURVE",
"451 156 CURVE SMOOTH"
);
},
{
closed = 1;
nodes = (
"56 373 OFFCURVE",
"60 378 OFFCURVE",
"61 388 CURVE SMOOTH",
"63 410 OFFCURVE",
"66 445 OFFCURVE",
"70 492 CURVE SMOOTH",
"74 539 OFFCURVE",
"75 575 OFFCURVE",
"78 599 CURVE SMOOTH",
"79 606 OFFCURVE",
"74 609 OFFCURVE",
"65 609 CURVE SMOOTH",
"57 609 OFFCURVE",
"52 606 OFFCURVE",
"52 600 CURVE SMOOTH",
"52 577 OFFCURVE",
"49 540 OFFCURVE",
"47 489 CURVE SMOOTH",
"45 437 OFFCURVE",
"48 400 OFFCURVE",
"43 379 CURVE SMOOTH",
"42 375 OFFCURVE",
"44 373 OFFCURVE",
"47 373 CURVE SMOOTH"
);
}
);
width = 661;
}
);
note = H;
unicode = 0048;
},
{
glyphname = Hbar;
lastChange = "2021-11-18 14:34:11 +0000";
layers = (
{
layerId = "F72AA8BB-7F63-4F07-AEAC-030E55A5CABB";
paths = (
{
closed = 1;
nodes = (
"753 513 OFFCURVE",
"753 515 OFFCURVE",
"754 516 CURVE",
"754 523 OFFCURVE",
"739 527 OFFCURVE",
"709 529 CURVE SMOOTH",
"688 531 OFFCURVE",
"669 531 OFFCURVE",
"652 532 CURVE",
"659 608 LINE SMOOTH",
"660 626 OFFCURVE",
"653 635 OFFCURVE",
"637 636 CURVE SMOOTH",
"615 637 OFFCURVE",
"538 635 OFFCURVE",
"516 636 CURVE SMOOTH",
"507 637 OFFCURVE",
"468 644 OFFCURVE",
"452 644 CURVE SMOOTH",
"428 644 OFFCURVE",
"416 635 OFFCURVE",
"415 616 CURVE SMOOTH",
"414 599 OFFCURVE",
"413 577 OFFCURVE",
"413 547 CURVE",
"409 548 OFFCURVE",
"404 548 OFFCURVE",
"399 548 CURVE SMOOTH",
"382 550 OFFCURVE",
"353 552 OFFCURVE",
"314 554 CURVE",
"315 560 OFFCURVE",
"315 566 OFFCURVE",
"315 572 CURVE SMOOTH",
"315 584 OFFCURVE",
"326 615 OFFCURVE",
"326 628 CURVE SMOOTH",
"327 641 OFFCURVE",
"310 649 OFFCURVE",
"276 653 CURVE",
"208 656 LINE SMOOTH",
"187 657 OFFCURVE",
"117 666 OFFCURVE",
"97 667 CURVE SMOOTH",
"81 668 OFFCURVE",
"74 657 OFFCURVE",
"72 636 CURVE SMOOTH",
"71 625 OFFCURVE",
"81 618 OFFCURVE",
"101 617 CURVE SMOOTH",
"137 617 LINE",
"164 589 OFFCURVE",
"178 567 OFFCURVE",
"177 552 CURVE SMOOTH",
"176 539 OFFCURVE",
"170 519 OFFCURVE",
"159 493 CURVE SMOOTH",
"148 466 OFFCURVE",
"142 445 OFFCURVE",
"141 430 CURVE SMOOTH",
"137 364 OFFCURVE",
"193 300 OFFCURVE",
"259 297 CURVE SMOOTH",
"280 296 OFFCURVE",
"307 301 OFFCURVE",
"339 312 CURVE SMOOTH",
"370 323 OFFCURVE",
"388 329 OFFCURVE",
"391 329 CURVE SMOOTH",
"402 328 OFFCURVE",
"419 322 OFFCURVE",
"441 310 CURVE SMOOTH",
"462 298 OFFCURVE",
"482 291 OFFCURVE",
"500 290 CURVE SMOOTH",
"543 288 OFFCURVE",
"582 300 OFFCURVE",
"615 327 CURVE",
"612 236 LINE SMOOTH",
"611 218 OFFCURVE",
"608 191 OFFCURVE",
"604 156 CURVE SMOOTH",
"600 120 OFFCURVE",
"597 93 OFFCURVE",
"596 75 CURVE",
"597 64 OFFCURVE",
"598 56 OFFCURVE",
"599 51 CURVE",
"598 42 OFFCURVE",
"570 40 OFFCURVE",
"515 42 CURVE SMOOTH",
"446 45 LINE SMOOTH",
"436 45 OFFCURVE",
"430 72 OFFCURVE",
"429 124 CURVE SMOOTH",
"428 156 OFFCURVE",
"428 188 OFFCURVE",
"428 221 CURVE",
"437 223 OFFCURVE",
"443 228 OFFCURVE",
"443 236 CURVE SMOOTH",
"443 250 OFFCURVE",
"422 260 OFFCURVE",
"379 265 CURVE SMOOTH",
"375 265 OFFCURVE",
"347 266 OFFCURVE",
"295 269 CURVE SMOOTH",
"278 270 OFFCURVE",
"270 264 OFFCURVE",
"268 250 CURVE SMOOTH",
"267 243 OFFCURVE",
"268 237 OFFCURVE",
"271 232 CURVE",
"266 220 OFFCURVE",
"263 187 OFFCURVE",
"260 132 CURVE SMOOTH",
"260 81 LINE",
"258 60 OFFCURVE",
"248 51 OFFCURVE",
"231 52 CURVE SMOOTH",
"169 57 LINE",
"206 88 LINE",
"216 99 OFFCURVE",
"221 114 OFFCURVE",
"222 134 CURVE SMOOTH",
"224 175 OFFCURVE",
"198 208 OFFCURVE",
"157 211 CURVE SMOOTH",
"132 211 OFFCURVE",
"103 210 OFFCURVE",
"86 229 CURVE",
"87 252 OFFCURVE",
"87 274 OFFCURVE",
"88 296 CURVE SMOOTH",
"87 333 OFFCURVE",
"83 351 OFFCURVE",
"75 352 CURVE SMOOTH",
"63 353 OFFCURVE",
"57 343 OFFCURVE",
"57 324 CURVE SMOOTH",
"57 309 OFFCURVE",
"64 271 OFFCURVE",
"64 263 CURVE SMOOTH",
"63 240 OFFCURVE",
"56 205 OFFCURVE",
"44 160 CURVE SMOOTH",
"32 114 OFFCURVE",
"25 81 OFFCURVE",
"24 60 CURVE SMOOTH",
"23 42 OFFCURVE",
"51 28 OFFCURVE",
"107 21 CURVE SMOOTH",
"121 19 OFFCURVE",
"158 17 OFFCURVE",
"219 14 CURVE SMOOTH",
"270 11 OFFCURVE",
"297 22 OFFCURVE",
"298 46 CURVE SMOOTH",
"298 62 OFFCURVE",
"291 97 OFFCURVE",
"291 109 CURVE SMOOTH",
"291 124 OFFCURVE",
"291 143 OFFCURVE",
"292 167 CURVE SMOOTH",
"294 195 OFFCURVE",
"295 214 OFFCURVE",
"295 224 CURVE",
"325 227 OFFCURVE",
"345 229 OFFCURVE",
"355 228 CURVE SMOOTH",
"368 227 OFFCURVE",
"384 226 OFFCURVE",
"403 224 CURVE",
"400 175 OFFCURVE",
"397 139 OFFCURVE",
"396 114 CURVE SMOOTH",
"395 94 OFFCURVE",
"381 43 OFFCURVE",
"381 24 CURVE SMOOTH",
"380 15 OFFCURVE",
"398 9 OFFCURVE",
"435 7 CURVE SMOOTH",
"551 1 OFFCURVE",
"611 -1 OFFCURVE",
"616 2 CURVE SMOOTH",
"624 7 OFFCURVE",
"630 44 OFFCURVE",
"633 111 CURVE SMOOTH",
"635 150 OFFCURVE",
"638 210 OFFCURVE",
"640 289 CURVE SMOOTH",
"642 363 OFFCURVE",
"644 420 OFFCURVE",
"646 459 CURVE",
"650 459 OFFCURVE",
"655 458 OFFCURVE",
"659 458 CURVE SMOOTH",
"666 457 OFFCURVE",
"685 454 OFFCURVE",
"712 451 CURVE SMOOTH",
"722 450 LINE SMOOTH",
"739 449 OFFCURVE",
"753 450 OFFCURVE",
"754 460 CURVE SMOOTH",
"754 464 OFFCURVE",
"750 476 OFFCURVE",
"750 479 CURVE SMOOTH",
"752 501 OFFCURVE",
"752 511 OFFCURVE",
"752 511 CURVE"
);
},
{
closed = 1;
nodes = (
"58 437 OFFCURVE",
"61 400 OFFCURVE",
"56 379 CURVE SMOOTH",
"55 375 OFFCURVE",
"57 373 OFFCURVE",
"60 373 CURVE SMOOTH",
"69 373 OFFCURVE",
"73 378 OFFCURVE",
"74 388 CURVE SMOOTH",
"83 492 LINE SMOOTH",
"87 539 OFFCURVE",
"88 575 OFFCURVE",
"91 599 CURVE SMOOTH",
"92 606 OFFCURVE",
"87 609 OFFCURVE",
"78 609 CURVE SMOOTH",
"70 609 OFFCURVE",
"65 606 OFFCURVE",
"65 600 CURVE SMOOTH",
"65 592 OFFCURVE",
"65 583 OFFCURVE",
"64 573 CURVE",
"45 573 LINE SMOOTH",
"34 572 OFFCURVE",
"27 572 OFFCURVE",
"25 572 CURVE SMOOTH",
"18 571 OFFCURVE",
"14 568 OFFCURVE",
"14 563 CURVE SMOOTH",
"14 559 OFFCURVE",
"15 553 OFFCURVE",
"16 544 CURVE SMOOTH",
"18 526 LINE",
"17 524 OFFCURVE",
"11 514 OFFCURVE",
"11 509 CURVE SMOOTH",
"11 505 OFFCURVE",
"14 502 OFFCURVE",
"23 501 CURVE SMOOTH",
"33 499 OFFCURVE",
"45 498 OFFCURVE",
"60 498 CURVE",
"60 489 LINE SMOOTH"
);
},
{
closed = 1;
nodes = (
"564 562 OFFCURVE",
"521 544 OFFCURVE",
"504 545 CURVE SMOOTH",
"479 546 OFFCURVE",
"465 563 OFFCURVE",
"462 594 CURVE",
"471 601 OFFCURVE",
"510 602 OFFCURVE",
"580 598 CURVE SMOOTH",
"589 598 OFFCURVE",
"599 599 OFFCURVE",
"609 597 CURVE SMOOTH",
"622 594 OFFCURVE",
"628 590 OFFCURVE",
"627 582 CURVE SMOOTH",
"624 550 LINE",
"611 557 OFFCURVE",
"597 560 OFFCURVE",
"583 561 CURVE SMOOTH"
);
},
{
closed = 1;
nodes = (
"686 465 LINE SMOOTH",
"671 467 OFFCURVE",
"658 468 OFFCURVE",
"646 470 CURVE",
"646 474 OFFCURVE",
"647 480 OFFCURVE",
"647 486 CURVE",
"662 486 OFFCURVE",
"678 487 OFFCURVE",
"694 488 CURVE",
"692 484 OFFCURVE",
"691 482 OFFCURVE",
"691 479 CURVE SMOOTH",
"691 478 OFFCURVE",
"692 478 OFFCURVE",
"692 477 CURVE",
"693 475 OFFCURVE",
"701 468 OFFCURVE",
"701 467 CURVE SMOOTH",
"701 465 OFFCURVE",
"697 465 OFFCURVE",
"691 465 CURVE SMOOTH"
);
},
{
closed = 1;
nodes = (
"383 437 OFFCURVE",
"370 437 OFFCURVE",
"350 441 CURVE SMOOTH",
"334 444 OFFCURVE",
"321 445 OFFCURVE",
"311 444 CURVE",
"311 455 OFFCURVE",
"312 466 OFFCURVE",
"312 476 CURVE",
"356 473 OFFCURVE",
"390 473 OFFCURVE",
"413 475 CURVE",
"413 467 OFFCURVE",
"412 459 OFFCURVE",
"412 453 CURVE SMOOTH",
"411 441 OFFCURVE",
"404 436 OFFCURVE",
"389 437 CURVE SMOOTH"
);
},
{
closed = 1;
nodes = (
"583 147 OFFCURVE",
"574 169 OFFCURVE",
"554 197 CURVE SMOOTH",
"534 225 OFFCURVE",
"516 238 OFFCURVE",
"502 239 CURVE SMOOTH",
"479 241 OFFCURVE",
"466 225 OFFCURVE",
"465 194 CURVE SMOOTH",
"464 175 OFFCURVE",
"464 162 OFFCURVE",
"464 156 CURVE SMOOTH",
"464 103 OFFCURVE",
"485 75 OFFCURVE",
"526 74 CURVE SMOOTH",
"558 73 OFFCURVE",
"580 99 OFFCURVE",
"582 132 CURVE SMOOTH"
);
}
);
width = 764;
}
);
unicode = 0126;
},
{
glyphname = I;
lastChange = "2021-11-18 14:34:11 +0000";
layers = (
{
anchors = (
{
name = bottom;
position = "{182, 15}";
},
{
name = ogonek;
position = "{320, 29}";
},
{
name = top;
position = "{168, 650}";
},
{
name = topleft;
position = "{20, 650}";
}
);
layerId = "F72AA8BB-7F63-4F07-AEAC-030E55A5CABB";
paths = (
{
closed = 1;
nodes = (
"34 8 OFFCURVE",
"54 -4 OFFCURVE",
"93 -2 CURVE SMOOTH",
"119 -1 OFFCURVE",
"212 17 OFFCURVE",
"238 18 CURVE SMOOTH",
"258 19 OFFCURVE",
"284 1 OFFCURVE",
"292 1 CURVE SMOOTH",
"308 1 OFFCURVE",
"335 30 OFFCURVE",
"335 46 CURVE SMOOTH",
"334 58 OFFCURVE",
"325 68 OFFCURVE",
"306 75 CURVE",
"304 204 OFFCURVE",
"303 300 OFFCURVE",
"304 365 CURVE",
"303 380 OFFCURVE",
"297 388 OFFCURVE",
"285 387 CURVE SMOOTH",
"272 387 OFFCURVE",
"266 378 OFFCURVE",
"267 360 CURVE SMOOTH",
"268 343 OFFCURVE",
"275 299 OFFCURVE",
"276 280 CURVE SMOOTH",
"280 166 OFFCURVE",
"281 100 OFFCURVE",
"279 81 CURVE",
"256 78 OFFCURVE",
"238 74 OFFCURVE",
"227 71 CURVE",
"220 80 OFFCURVE",
"217 89 OFFCURVE",
"216 98 CURVE SMOOTH",
"216 104 OFFCURVE",
"224 118 OFFCURVE",
"239 139 CURVE SMOOTH",
"254 159 OFFCURVE",
"262 180 OFFCURVE",
"261 199 CURVE SMOOTH",
"258 249 OFFCURVE",
"232 263 OFFCURVE",
"190 277 CURVE SMOOTH",
"166 285 OFFCURVE",
"148 292 OFFCURVE",
"139 300 CURVE SMOOTH",
"133 305 OFFCURVE",
"127 316 OFFCURVE",
"117 333 CURVE SMOOTH",
"109 347 OFFCURVE",
"98 357 OFFCURVE",
"83 363 CURVE",
"82 408 OFFCURVE",
"80 440 OFFCURVE",
"79 457 CURVE",
"99 445 OFFCURVE",
"117 439 OFFCURVE",
"134 440 CURVE SMOOTH",
"146 440 OFFCURVE",
"173 449 OFFCURVE",
"184 449 CURVE SMOOTH",
"197 449 OFFCURVE",
"227 440 OFFCURVE",
"240 440 CURVE SMOOTH",
"247 441 OFFCURVE",
"255 443 OFFCURVE",
"264 448 CURVE",
"265 435 OFFCURVE",
"273 424 OFFCURVE",
"290 417 CURVE",
"297 418 OFFCURVE",
"300 427 OFFCURVE",
"299 446 CURVE SMOOTH",
"298 465 OFFCURVE",
"288 514 OFFCURVE",
"288 534 CURVE SMOOTH",
"288 547 OFFCURVE",
"296 578 OFFCURVE",
"295 587 CURVE SMOOTH",
"295 598 OFFCURVE",
"279 607 OFFCURVE",
"268 607 CURVE SMOOTH",
"258 606 OFFCURVE",
"253 601 OFFCURVE",
"254 591 CURVE SMOOTH",
"255 582 OFFCURVE",
"256 576 OFFCURVE",
"257 572 CURVE",
"216 576 OFFCURVE",
"186 587 OFFCURVE",
"167 604 CURVE",
"191 605 OFFCURVE",
"302 622 OFFCURVE",
"302 635 CURVE SMOOTH",
"302 644 OFFCURVE",
"284 670 OFFCURVE",
"275 670 CURVE SMOOTH",
"255 669 OFFCURVE",
"214 649 OFFCURVE",
"195 647 CURVE SMOOTH",
"145 642 OFFCURVE",
"113 639 OFFCURVE",
"98 638 CURVE SMOOTH",
"91 638 OFFCURVE",
"68 642 OFFCURVE",
"60 642 CURVE SMOOTH",
"43 642 OFFCURVE",
"35 634 OFFCURVE",
"36 619 CURVE SMOOTH",
"38 596 OFFCURVE",
"49 518 OFFCURVE",
"49 495 CURVE SMOOTH",
"51 452 OFFCURVE",
"54 410 OFFCURVE",
"56 367 CURVE SMOOTH",
"59 304 OFFCURVE",
"60 254 OFFCURVE",
"60 216 CURVE SMOOTH",
"60 168 OFFCURVE",
"59 120 OFFCURVE",
"43 75 CURVE SMOOTH",
"36 56 OFFCURVE",
"33 41 OFFCURVE",
"33 31 CURVE SMOOTH"
);
}
);
width = 347;
}
);
note = I;
unicode = 0049;
},
{
glyphname = J;
lastChange = "2021-11-18 14:34:11 +0000";
layers = (
{
anchors = (
{
name = bottom;
position = "{238, 0}";
},
{
name = top;
position = "{335, 650}";
}
);
layerId = "F72AA8BB-7F63-4F07-AEAC-030E55A5CABB";
paths = (
{
closed = 1;
nodes = (
"30 26 OFFCURVE",
"151 2 OFFCURVE",
"201 2 CURVE SMOOTH",
"360 2 OFFCURVE",
"439 90 OFFCURVE",
"439 266 CURVE SMOOTH",
"439 303 LINE SMOOTH",
"439 320 OFFCURVE",
"438 333 OFFCURVE",
"438 340 CURVE SMOOTH",
"438 366 OFFCURVE",
"441 410 OFFCURVE",
"448 472 CURVE SMOOTH",
"454 529 OFFCURVE",
"456 573 OFFCURVE",
"454 604 CURVE SMOOTH",
"453 620 LINE",
"464 627 OFFCURVE",
"470 633 OFFCURVE",
"470 637 CURVE SMOOTH",
"470 650 OFFCURVE",
"457 656 OFFCURVE",
"431 656 CURVE SMOOTH",
"414 656 OFFCURVE",
"369 650 OFFCURVE",
"352 650 CURVE SMOOTH",
"335 650 OFFCURVE",
"311 654 OFFCURVE",
"279 660 CURVE SMOOTH",
"247 666 OFFCURVE",
"223 669 OFFCURVE",
"208 669 CURVE SMOOTH",
"189 669 OFFCURVE",
"179 659 OFFCURVE",
"179 640 CURVE SMOOTH",
"179 619 OFFCURVE",
"187 604 OFFCURVE",
"202 593 CURVE",
"203 346 LINE SMOOTH",
"203 269 OFFCURVE",
"197 227 OFFCURVE",
"184 219 CURVE",
"178 219 OFFCURVE",
"169 233 OFFCURVE",
"156 262 CURVE SMOOTH",
"143 291 OFFCURVE",
"132 304 OFFCURVE",
"123 304 CURVE SMOOTH",
"106 304 OFFCURVE",
"96 274 OFFCURVE",
"96 260 CURVE SMOOTH",
"96 254 OFFCURVE",
"97 250 OFFCURVE",
"98 247 CURVE",
"88 231 OFFCURVE",
"30 102 OFFCURVE",
"30 91 CURVE SMOOTH"
);
},
{
closed = 1;
nodes = (
"144 192 OFFCURVE",
"162 186 OFFCURVE",
"181 186 CURVE SMOOTH",
"232 186 OFFCURVE",
"243 267 OFFCURVE",
"243 305 CURVE SMOOTH",
"243 327 OFFCURVE",
"236 403 OFFCURVE",
"236 425 CURVE SMOOTH",
"236 429 LINE",
"245 431 OFFCURVE",
"253 432 OFFCURVE",
"259 432 CURVE SMOOTH",
"270 432 OFFCURVE",
"296 426 OFFCURVE",
"307 426 CURVE SMOOTH",
"343 426 OFFCURVE",
"371 461 OFFCURVE",
"371 497 CURVE SMOOTH",
"371 531 OFFCURVE",
"358 561 OFFCURVE",
"333 587 CURVE",
"370 590 OFFCURVE",
"399 596 OFFCURVE",
"419 605 CURVE",
"416 598 OFFCURVE",
"415 517 OFFCURVE",
"416 362 CURVE",
"343 367 OFFCURVE",
"289 327 OFFCURVE",
"289 252 CURVE SMOOTH",
"289 249 OFFCURVE",
"289 239 OFFCURVE",
"292 222 CURVE SMOOTH",
"294 211 OFFCURVE",
"294 201 OFFCURVE",
"291 192 CURVE SMOOTH",
"284 171 OFFCURVE",
"269 156 OFFCURVE",
"243 146 CURVE SMOOTH",
"220 139 OFFCURVE",
"198 131 OFFCURVE",
"176 124 CURVE",
"153 113 OFFCURVE",
"142 96 OFFCURVE",
"142 72 CURVE SMOOTH",
"142 61 OFFCURVE",
"144 51 OFFCURVE",
"149 42 CURVE",
"106 53 OFFCURVE",
"78 71 OFFCURVE",
"65 95 CURVE",
"86 134 OFFCURVE",
"106 170 OFFCURVE",
"127 205 CURVE"
);
}
);
width = 476;
}
);
note = J;
unicode = 004A;
},
{
glyphname = K;
lastChange = "2021-11-18 14:34:11 +0000";
layers = (
{
anchors = (
{
name = bottom;
position = "{328, 19}";
},
{
name = top;
position = "{291, 651}";
}
);
layerId = "F72AA8BB-7F63-4F07-AEAC-030E55A5CABB";
paths = (
{
closed = 1;
nodes = (
"22 470 OFFCURVE",
"28 374 OFFCURVE",
"29 309 CURVE SMOOTH",
"31 111 LINE",
"29 77 OFFCURVE",
"27 52 OFFCURVE",
"25 35 CURVE SMOOTH",
"25 17 OFFCURVE",
"43 8 OFFCURVE",
"79 8 CURVE SMOOTH",
"92 8 OFFCURVE",
"121 10 OFFCURVE",
"125 10 CURVE SMOOTH",
"146 10 OFFCURVE",
"218 19 OFFCURVE",
"240 19 CURVE SMOOTH",
"248 19 OFFCURVE",
"254 19 OFFCURVE",
"259 18 CURVE",
"268 19 OFFCURVE",
"272 51 OFFCURVE",
"271 114 CURVE SMOOTH",
"271 130 OFFCURVE",
"267 200 OFFCURVE",
"267 219 CURVE",
"272 210 OFFCURVE",
"290 183 OFFCURVE",
"318 140 CURVE SMOOTH",
"341 105 OFFCURVE",
"356 79 OFFCURVE",
"362 63 CURVE SMOOTH",
"370 43 OFFCURVE",
"374 32 OFFCURVE",
"375 31 CURVE SMOOTH",
"381 22 OFFCURVE",
"391 16 OFFCURVE",
"405 15 CURVE SMOOTH",
"416 14 OFFCURVE",
"438 14 OFFCURVE",
"472 15 CURVE SMOOTH",
"598 17 LINE",
"664 22 OFFCURVE",
"697 33 OFFCURVE",
"696 52 CURVE SMOOTH",
"696 71 OFFCURVE",
"659 117 OFFCURVE",
"584 189 CURVE SMOOTH",
"508 262 OFFCURVE",
"471 310 OFFCURVE",
"470 336 CURVE SMOOTH",
"470 349 OFFCURVE",
"498 404 OFFCURVE",
"553 499 CURVE SMOOTH",
"635 642 LINE",
"635 655 OFFCURVE",
"621 661 OFFCURVE",
"592 660 CURVE SMOOTH",
"568 660 OFFCURVE",
"485 649 OFFCURVE",
"461 648 CURVE SMOOTH",
"449 648 OFFCURVE",
"420 650 OFFCURVE",
"411 650 CURVE SMOOTH",
"372 650 OFFCURVE",
"346 634 OFFCURVE",
"334 603 CURVE SMOOTH",
"309 537 OFFCURVE",
"288 492 OFFCURVE",
"272 468 CURVE",
"259 454 OFFCURVE",
"246 440 OFFCURVE",
"233 426 CURVE SMOOTH",
"216 407 OFFCURVE",
"207 391 OFFCURVE",
"208 379 CURVE SMOOTH",
"208 363 OFFCURVE",
"237 348 OFFCURVE",
"254 348 CURVE SMOOTH",
"266 348 OFFCURVE",
"276 359 OFFCURVE",
"284 380 CURVE",
"318 453 OFFCURVE",
"345 508 OFFCURVE",
"364 544 CURVE",
"382 531 OFFCURVE",
"400 524 OFFCURVE",
"417 524 CURVE SMOOTH",
"449 525 OFFCURVE",
"467 549 OFFCURVE",
"467 580 CURVE SMOOTH",
"466 591 OFFCURVE",
"463 602 OFFCURVE",
"458 614 CURVE",
"523 614 LINE SMOOTH",
"557 614 OFFCURVE",
"577 613 OFFCURVE",
"582 610 CURVE",
"557 572 OFFCURVE",
"533 535 OFFCURVE",
"508 500 CURVE",
"420 502 OFFCURVE",
"310 401 OFFCURVE",
"312 312 CURVE SMOOTH",
"312 288 OFFCURVE",
"320 267 OFFCURVE",
"338 252 CURVE SMOOTH",
"347 245 OFFCURVE",
"365 233 OFFCURVE",
"394 218 CURVE SMOOTH",
"439 195 OFFCURVE",
"450 181 OFFCURVE",
"468 135 CURVE SMOOTH",
"483 96 OFFCURVE",
"501 84 OFFCURVE",
"545 84 CURVE SMOOTH",
"557 85 OFFCURVE",
"567 87 OFFCURVE",
"576 91 CURVE",
"583 75 OFFCURVE",
"589 63 OFFCURVE",
"592 54 CURVE",
"483 53 LINE SMOOTH",
"468 53 OFFCURVE",
"432 54 OFFCURVE",
"417 53 CURVE SMOOTH",
"404 53 OFFCURVE",
"395 62 OFFCURVE",
"391 79 CURVE SMOOTH",
"383 112 OFFCURVE",
"295 262 OFFCURVE",
"270 273 CURVE",
"264 294 OFFCURVE",
"257 304 OFFCURVE",
"248 304 CURVE SMOOTH",
"231 304 OFFCURVE",
"216 268 OFFCURVE",
"217 249 CURVE",
"218 245 LINE",
"207 249 OFFCURVE",
"196 251 OFFCURVE",
"186 251 CURVE SMOOTH",
"183 251 OFFCURVE",
"175 250 OFFCURVE",
"163 249 CURVE SMOOTH",
"154 248 OFFCURVE",
"146 247 OFFCURVE",
"141 248 CURVE",
"130 248 OFFCURVE",
"102 261 OFFCURVE",
"87 261 CURVE SMOOTH",
"80 261 OFFCURVE",
"71 259 OFFCURVE",
"59 255 CURVE",
"60 351 LINE",
"132 363 OFFCURVE",
"182 431 OFFCURVE",
"180 506 CURVE SMOOTH",
"179 541 OFFCURVE",
"168 575 OFFCURVE",
"147 607 CURVE",
"176 606 OFFCURVE",
"192 605 OFFCURVE",
"195 604 CURVE SMOOTH",
"212 598 OFFCURVE",
"222 590 OFFCURVE",
"223 573 CURVE SMOOTH",
"223 561 OFFCURVE",
"230 509 OFFCURVE",
"244 509 CURVE SMOOTH",
"255 510 OFFCURVE",
"259 525 OFFCURVE",
"259 554 CURVE SMOOTH",
"258 622 LINE SMOOTH",
"258 634 OFFCURVE",
"196 639 OFFCURVE",
"71 636 CURVE SMOOTH",
"35 635 OFFCURVE",
"17 623 OFFCURVE",
"18 599 CURVE SMOOTH"
);
},
{
closed = 1;
nodes = (
"60 132 LINE",
"127 114 OFFCURVE",
"162 88 OFFCURVE",
"159 54 CURVE SMOOTH",
"158 43 LINE",
"132 43 LINE SMOOTH",
"119 43 OFFCURVE",
"111 42 OFFCURVE",
"108 42 CURVE SMOOTH",
"77 42 OFFCURVE",
"60 57 OFFCURVE",
"60 88 CURVE SMOOTH"
);
}
);
width = 706;
}
);
note = K;
unicode = 004B;
},
{
glyphname = L;
lastChange = "2021-11-18 14:34:11 +0000";
layers = (
{
anchors = (
{
name = bottom;
position = "{252, 0}";
},
{
name = center;
position = "{252, 325}";
},
{
name = top;
position = "{157, 651}";
},
{
name = topright;
position = "{380, 700}";
}
);
layerId = "F72AA8BB-7F63-4F07-AEAC-030E55A5CABB";
paths = (
{
closed = 1;
nodes = (
"74 -3 OFFCURVE",
"84 5 OFFCURVE",
"89 21 CURVE",
"135 20 OFFCURVE",
"181 19 OFFCURVE",
"228 17 CURVE SMOOTH",
"283 15 OFFCURVE",
"328 10 OFFCURVE",
"365 4 CURVE SMOOTH",
"400 -2 OFFCURVE",
"421 -5 OFFCURVE",
"430 -5 CURVE SMOOTH",
"465 -5 OFFCURVE",
"483 10 OFFCURVE",
"483 41 CURVE SMOOTH",
"483 58 OFFCURVE",
"478 101 OFFCURVE",
"478 120 CURVE SMOOTH",
"478 137 OFFCURVE",
"486 180 OFFCURVE",
"486 197 CURVE SMOOTH",
"486 230 OFFCURVE",
"477 246 OFFCURVE",
"460 246 CURVE SMOOTH",
"453 246 OFFCURVE",
"429 243 OFFCURVE",
"416 243 CURVE SMOOTH",
"404 243 OFFCURVE",
"375 246 OFFCURVE",
"364 246 CURVE SMOOTH",
"355 246 OFFCURVE",
"333 245 OFFCURVE",
"299 242 CURVE",
"300 250 OFFCURVE",
"301 259 OFFCURVE",
"301 269 CURVE SMOOTH",
"301 288 OFFCURVE",
"292 359 OFFCURVE",
"292 377 CURVE SMOOTH",
"292 440 OFFCURVE",
"290 472 OFFCURVE",
"287 474 CURVE",
"279 473 OFFCURVE",
"275 463 OFFCURVE",
"270 447 CURVE SMOOTH",
"269 444 OFFCURVE",
"268 432 OFFCURVE",
"266 411 CURVE",
"257 412 OFFCURVE",
"233 408 OFFCURVE",
"226 408 CURVE SMOOTH",
"201 408 OFFCURVE",
"188 408 OFFCURVE",
"187 407 CURVE",
"172 404 OFFCURVE",
"165 395 OFFCURVE",
"165 379 CURVE SMOOTH",
"165 354 OFFCURVE",
"227 302 OFFCURVE",
"249 293 CURVE",
"240 270 OFFCURVE",
"236 253 OFFCURVE",
"236 243 CURVE SMOOTH",
"236 211 OFFCURVE",
"252 195 OFFCURVE",
"283 195 CURVE SMOOTH",
"302 195 OFFCURVE",
"349 210 OFFCURVE",
"370 210 CURVE SMOOTH",
"425 210 OFFCURVE",
"452 202 OFFCURVE",
"452 187 CURVE SMOOTH",
"452 158 OFFCURVE",
"447 118 OFFCURVE",
"440 68 CURVE SMOOTH",
"438 54 OFFCURVE",
"432 47 OFFCURVE",
"421 46 CURVE",
"420 106 OFFCURVE",
"380 152 OFFCURVE",
"321 152 CURVE SMOOTH",
"300 152 OFFCURVE",
"248 125 OFFCURVE",
"232 125 CURVE SMOOTH",
"214 125 OFFCURVE",
"200 134 OFFCURVE",
"194 151 CURVE SMOOTH",
"189 166 OFFCURVE",
"183 182 OFFCURVE",
"177 197 CURVE",
"166 213 OFFCURVE",
"153 224 OFFCURVE",
"136 231 CURVE SMOOTH",
"96 247 OFFCURVE",
"76 302 OFFCURVE",
"76 395 CURVE SMOOTH",
"76 410 OFFCURVE",
"77 431 OFFCURVE",
"78 456 CURVE SMOOTH",
"79 481 OFFCURVE",
"79 497 OFFCURVE",
"79 504 CURVE SMOOTH",
"79 523 OFFCURVE",
"79 533 OFFCURVE",
"80 536 CURVE",
"77 496 OFFCURVE",
"101 460 OFFCURVE",
"141 460 CURVE SMOOTH",
"180 460 OFFCURVE",
"215 501 OFFCURVE",
"215 538 CURVE SMOOTH",
"215 559 OFFCURVE",
"215 572 OFFCURVE",
"216 575 CURVE SMOOTH",
"217 578 OFFCURVE",
"221 590 OFFCURVE",
"229 610 CURVE",
"238 609 OFFCURVE",
"267 598 OFFCURVE",
"280 598 CURVE SMOOTH",
"297 598 OFFCURVE",
"305 607 OFFCURVE",
"305 625 CURVE SMOOTH",
"305 655 OFFCURVE",
"291 670 OFFCURVE",
"263 670 CURVE SMOOTH",
"247 670 OFFCURVE",
"223 667 OFFCURVE",
"190 659 CURVE SMOOTH",
"157 651 OFFCURVE",
"133 647 OFFCURVE",
"116 647 CURVE SMOOTH",
"108 647 OFFCURVE",
"78 652 OFFCURVE",
"66 652 CURVE SMOOTH",
"45 652 OFFCURVE",
"34 642 OFFCURVE",
"34 622 CURVE SMOOTH",
"34 602 OFFCURVE",
"44 553 OFFCURVE",
"45 536 CURVE SMOOTH",
"47 495 OFFCURVE",
"48 399 OFFCURVE",
"48 248 CURVE SMOOTH",
"48 187 OFFCURVE",
"49 134 OFFCURVE",
"35 91 CURVE SMOOTH",
"30 77 OFFCURVE",
"22 44 OFFCURVE",
"22 29 CURVE SMOOTH",
"22 8 OFFCURVE",
"35 -3 OFFCURVE",
"61 -3 CURVE SMOOTH"
);
},
{
closed = 1;
nodes = (
"266 558 OFFCURVE",
"272 492 OFFCURVE",
"277 490 CURVE",
"292 490 OFFCURVE",
"299 510 OFFCURVE",
"299 549 CURVE SMOOTH",
"299 570 OFFCURVE",
"294 581 OFFCURVE",
"285 581 CURVE SMOOTH",
"272 581 OFFCURVE",
"266 577 OFFCURVE",
"266 568 CURVE SMOOTH"
);
}
);
width = 504;
}
);
note = L;
unicode = 004C;
},
{
glyphname = Lslash;
lastChange = "2021-11-18 14:34:11 +0000";
layers = (
{
layerId = "F72AA8BB-7F63-4F07-AEAC-030E55A5CABB";
paths = (
{
closed = 1;
nodes = (
"486 230 OFFCURVE",
"477 246 OFFCURVE",
"460 246 CURVE SMOOTH",
"453 246 OFFCURVE",
"429 243 OFFCURVE",
"416 243 CURVE SMOOTH",
"404 243 OFFCURVE",
"375 246 OFFCURVE",
"364 246 CURVE SMOOTH",
"355 246 OFFCURVE",
"333 245 OFFCURVE",
"299 242 CURVE",
"300 250 OFFCURVE",
"301 259 OFFCURVE",
"301 269 CURVE SMOOTH",
"301 277 OFFCURVE",
"299 293 OFFCURVE",
"298 311 CURVE",
"322 317 OFFCURVE",
"342 326 OFFCURVE",
"358 326 CURVE",
"362 327 OFFCURVE",
"372 327 OFFCURVE",
"389 329 CURVE SMOOTH",
"406 331 OFFCURVE",
"410 339 OFFCURVE",
"407 354 CURVE SMOOTH",
"405 363 OFFCURVE",
"395 387 OFFCURVE",
"394 391 CURVE SMOOTH",
"377 449 LINE",
"374 467 OFFCURVE",
"363 473 OFFCURVE",
"344 468 CURVE SMOOTH",
"322 462 OFFCURVE",
"304 453 OFFCURVE",
"291 444 CURVE",
"290 463 OFFCURVE",
"289 473 OFFCURVE",
"287 474 CURVE",
"279 473 OFFCURVE",
"275 463 OFFCURVE",
"270 447 CURVE SMOOTH",
"269 445 OFFCURVE",
"269 438 OFFCURVE",
"268 428 CURVE",
"261 422 OFFCURVE",
"257 419 OFFCURVE",
"255 418 CURVE",
"245 416 OFFCURVE",
"229 416 OFFCURVE",
"207 419 CURVE SMOOTH",
"199 420 OFFCURVE",
"187 419 OFFCURVE",
"171 414 CURVE SMOOTH",
"155 410 OFFCURVE",
"89 386 OFFCURVE",
"79 383 CURVE",
"78 383 OFFCURVE",
"77 383 OFFCURVE",
"76 382 CURVE",
"76 395 LINE SMOOTH",
"76 410 OFFCURVE",
"77 431 OFFCURVE",
"78 456 CURVE SMOOTH",
"79 481 OFFCURVE",
"79 497 OFFCURVE",
"79 504 CURVE SMOOTH",
"79 523 OFFCURVE",
"79 533 OFFCURVE",
"80 536 CURVE",
"77 496 OFFCURVE",
"101 460 OFFCURVE",
"141 460 CURVE SMOOTH",
"180 460 OFFCURVE",
"215 501 OFFCURVE",
"215 538 CURVE SMOOTH",
"215 559 OFFCURVE",
"215 572 OFFCURVE",
"216 575 CURVE SMOOTH",
"217 578 OFFCURVE",
"221 590 OFFCURVE",
"229 610 CURVE",
"238 609 OFFCURVE",
"267 598 OFFCURVE",
"280 598 CURVE SMOOTH",
"297 598 OFFCURVE",
"305 607 OFFCURVE",
"305 625 CURVE SMOOTH",
"305 655 OFFCURVE",
"291 670 OFFCURVE",
"263 670 CURVE SMOOTH",
"247 670 OFFCURVE",
"223 667 OFFCURVE",
"190 659 CURVE SMOOTH",
"157 651 OFFCURVE",
"133 647 OFFCURVE",
"116 647 CURVE SMOOTH",
"108 647 OFFCURVE",
"78 652 OFFCURVE",
"66 652 CURVE SMOOTH",
"45 652 OFFCURVE",
"34 642 OFFCURVE",
"34 622 CURVE SMOOTH",
"34 602 OFFCURVE",
"44 553 OFFCURVE",
"45 536 CURVE SMOOTH",
"46 508 OFFCURVE",
"47 455 OFFCURVE",
"48 376 CURVE",
"39 375 OFFCURVE",
"29 373 OFFCURVE",
"18 370 CURVE SMOOTH",
"-9 365 OFFCURVE",
"-24 360 OFFCURVE",
"-28 357 CURVE SMOOTH",
"-39 349 OFFCURVE",
"-42 341 OFFCURVE",
"-39 329 CURVE SMOOTH",
"-37 322 OFFCURVE",
"-18 269 OFFCURVE",
"-16 265 CURVE",
"-16 264 OFFCURVE",
"-13 238 OFFCURVE",
"-9 229 CURVE SMOOTH",
"-7 223 OFFCURVE",
"-4 221 OFFCURVE",
"0 221 CURVE SMOOTH",
"10 221 OFFCURVE",
"21 225 OFFCURVE",
"36 231 CURVE SMOOTH",
"39 232 OFFCURVE",
"43 235 OFFCURVE",
"48 238 CURVE",
"48 181 OFFCURVE",
"48 132 OFFCURVE",
"35 91 CURVE SMOOTH",
"30 77 OFFCURVE",
"22 44 OFFCURVE",
"22 29 CURVE SMOOTH",
"22 8 OFFCURVE",
"35 -3 OFFCURVE",
"61 -3 CURVE SMOOTH",
"74 -3 OFFCURVE",
"84 5 OFFCURVE",
"89 21 CURVE",
"135 20 OFFCURVE",
"181 19 OFFCURVE",
"228 17 CURVE SMOOTH",
"283 15 OFFCURVE",
"328 10 OFFCURVE",
"365 4 CURVE SMOOTH",
"400 -2 OFFCURVE",
"421 -5 OFFCURVE",
"430 -5 CURVE SMOOTH",
"465 -5 OFFCURVE",
"483 10 OFFCURVE",
"483 41 CURVE SMOOTH",
"483 58 OFFCURVE",
"478 101 OFFCURVE",
"478 120 CURVE SMOOTH",
"478 137 OFFCURVE",
"486 180 OFFCURVE",
"486 197 CURVE SMOOTH"
);
},
{
closed = 1;
nodes = (
"272 581 OFFCURVE",
"266 577 OFFCURVE",
"266 568 CURVE SMOOTH",
"266 558 OFFCURVE",
"272 492 OFFCURVE",
"277 490 CURVE",
"292 490 OFFCURVE",
"299 510 OFFCURVE",
"299 549 CURVE SMOOTH",
"299 570 OFFCURVE",
"294 581 OFFCURVE",
"285 581 CURVE SMOOTH"
);
},
{
closed = 1;
nodes = (
"362 379 OFFCURVE",
"362 373 OFFCURVE",
"364 371 CURVE",
"365 366 OFFCURVE",
"374 357 OFFCURVE",
"375 354 CURVE SMOOTH",
"376 351 OFFCURVE",
"373 349 OFFCURVE",
"367 348 CURVE",
"345 341 OFFCURVE",
"319 335 OFFCURVE",
"296 330 CURVE",
"295 338 OFFCURVE",
"294 346 OFFCURVE",
"294 353 CURVE",
"315 360 OFFCURVE",
"337 372 OFFCURVE",
"359 390 CURVE"
);
},
{
closed = 1;
nodes = (
"438 54 OFFCURVE",
"432 47 OFFCURVE",
"421 46 CURVE",
"420 106 OFFCURVE",
"380 152 OFFCURVE",
"321 152 CURVE SMOOTH",
"300 152 OFFCURVE",
"248 125 OFFCURVE",
"232 125 CURVE SMOOTH",
"214 125 OFFCURVE",
"200 134 OFFCURVE",
"194 151 CURVE SMOOTH",
"189 166 OFFCURVE",
"183 182 OFFCURVE",
"177 197 CURVE",
"166 213 OFFCURVE",
"153 224 OFFCURVE",
"136 231 CURVE SMOOTH",
"128 234 OFFCURVE",
"121 239 OFFCURVE",
"114 245 CURVE",
"121 246 OFFCURVE",
"128 248 OFFCURVE",
"135 250 CURVE SMOOTH",
"193 266 OFFCURVE",
"224 284 OFFCURVE",
"231 303 CURVE",
"238 299 OFFCURVE",
"244 295 OFFCURVE",
"249 293 CURVE",
"240 270 OFFCURVE",
"236 253 OFFCURVE",
"236 243 CURVE SMOOTH",
"236 211 OFFCURVE",
"252 195 OFFCURVE",
"283 195 CURVE SMOOTH",
"302 195 OFFCURVE",
"349 210 OFFCURVE",
"370 210 CURVE SMOOTH",
"425 210 OFFCURVE",
"452 202 OFFCURVE",
"452 187 CURVE SMOOTH",
"452 158 OFFCURVE",
"447 118 OFFCURVE",
"440 68 CURVE SMOOTH"
);
}
);
width = 504;
}
);
unicode = 0141;
},
{
glyphname = M;
lastChange = "2021-11-18 14:34:11 +0000";
layers = (
{
layerId = "F72AA8BB-7F63-4F07-AEAC-030E55A5CABB";
paths = (
{
closed = 1;
nodes = (
"23 -7 OFFCURVE",
"33 -14 OFFCURVE",
"50 -13 CURVE SMOOTH",
"75 -12 OFFCURVE",
"161 -10 OFFCURVE",
"186 -8 CURVE SMOOTH",
"245 -3 OFFCURVE",
"275 11 OFFCURVE",
"273 37 CURVE SMOOTH",
"272 52 OFFCURVE",
"263 61 OFFCURVE",
"246 64 CURVE SMOOTH",
"239 65 OFFCURVE",
"225 65 OFFCURVE",
"202 64 CURVE",
"203 95 OFFCURVE",
"183 131 OFFCURVE",
"182 150 CURVE SMOOTH",
"181 167 OFFCURVE",
"200 205 OFFCURVE",
"198 224 CURVE SMOOTH",
"194 259 OFFCURVE",
"159 286 OFFCURVE",
"124 283 CURVE SMOOTH",
"112 282 OFFCURVE",
"100 278 OFFCURVE",
"88 271 CURVE",
"90 316 OFFCURVE",
"90 353 OFFCURVE",
"88 382 CURVE",
"107 381 OFFCURVE",
"134 351 OFFCURVE",
"150 353 CURVE SMOOTH",
"174 356 OFFCURVE",
"190 376 OFFCURVE",
"188 399 CURVE SMOOTH",
"185 432 OFFCURVE",
"161 433 OFFCURVE",
"141 440 CURVE",
"138 442 OFFCURVE",
"132 450 OFFCURVE",
"124 463 CURVE SMOOTH",
"118 472 OFFCURVE",
"105 478 OFFCURVE",
"86 481 CURVE",
"85 497 OFFCURVE",
"86 516 OFFCURVE",
"87 538 CURVE",
"92 537 OFFCURVE",
"98 536 OFFCURVE",
"103 536 CURVE SMOOTH",
"118 536 OFFCURVE",
"134 542 OFFCURVE",
"151 553 CURVE SMOOTH",
"168 564 OFFCURVE",
"181 570 OFFCURVE",
"190 570 CURVE SMOOTH",
"194 570 LINE SMOOTH",
"209 571 OFFCURVE",
"221 561 OFFCURVE",
"230 540 CURVE SMOOTH",
"243 509 OFFCURVE",
"261 489 OFFCURVE",
"286 479 CURVE SMOOTH",
"311 469 OFFCURVE",
"328 453 OFFCURVE",
"336 431 CURVE SMOOTH",
"347 400 OFFCURVE",
"355 372 OFFCURVE",
"383 347 CURVE",
"392 303 OFFCURVE",
"406 282 OFFCURVE",
"425 283 CURVE SMOOTH",
"440 284 OFFCURVE",
"457 299 OFFCURVE",
"456 314 CURVE",
"451 327 OFFCURVE",
"447 337 OFFCURVE",
"443 343 CURVE",
"474 473 OFFCURVE",
"497 570 OFFCURVE",
"514 635 CURVE",
"536 631 OFFCURVE",
"571 632 OFFCURVE",
"619 638 CURVE",
"610 629 OFFCURVE",
"602 611 OFFCURVE",
"593 585 CURVE SMOOTH",
"584 559 OFFCURVE",
"575 540 OFFCURVE",
"564 529 CURVE",
"531 506 OFFCURVE",
"487 489 OFFCURVE",
"491 438 CURVE SMOOTH",
"494 403 OFFCURVE",
"520 373 OFFCURVE",
"553 364 CURVE",
"548 327 OFFCURVE",
"540 283 OFFCURVE",
"528 234 CURVE SMOOTH",
"496 106 LINE SMOOTH",
"489 76 OFFCURVE",
"475 60 OFFCURVE",
"454 58 CURVE SMOOTH",
"407 55 OFFCURVE",
"378 72 OFFCURVE",
"367 108 CURVE",
"391 106 OFFCURVE",
"410 109 OFFCURVE",
"419 121 CURVE SMOOTH",
"422 125 OFFCURVE",
"429 136 OFFCURVE",
"436 154 CURVE SMOOTH",
"441 167 OFFCURVE",
"449 173 OFFCURVE",
"459 174 CURVE SMOOTH",
"485 177 OFFCURVE",
"498 188 OFFCURVE",
"496 209 CURVE SMOOTH",
"493 239 OFFCURVE",
"475 253 OFFCURVE",
"441 250 CURVE SMOOTH",
"428 249 OFFCURVE",
"407 231 OFFCURVE",
"394 230 CURVE SMOOTH",
"386 230 OFFCURVE",
"368 233 OFFCURVE",
"360 233 CURVE SMOOTH",
"348 232 OFFCURVE",
"338 228 OFFCURVE",
"329 219 CURVE",
"290 310 OFFCURVE",
"271 360 OFFCURVE",
"270 371 CURVE SMOOTH",
"269 375 OFFCURVE",
"271 399 OFFCURVE",
"270 407 CURVE SMOOTH",
"269 414 OFFCURVE",
"267 418 OFFCURVE",
"262 421 CURVE",
"250 420 OFFCURVE",
"238 398 OFFCURVE",
"239 385 CURVE SMOOTH",
"244 314 OFFCURVE",
"240 259 OFFCURVE",
"229 218 CURVE SMOOTH",
"223 196 OFFCURVE",
"220 175 OFFCURVE",
"222 156 CURVE SMOOTH",
"225 125 OFFCURVE",
"235 109 OFFCURVE",
"253 111 CURVE SMOOTH",
"262 112 OFFCURVE",
"263 118 OFFCURVE",
"267 126 CURVE SMOOTH",
"268 128 OFFCURVE",
"267 136 OFFCURVE",
"266 150 CURVE SMOOTH",
"265 215 OFFCURVE",
"266 263 OFFCURVE",
"267 296 CURVE",
"276 247 OFFCURVE",
"352 4 OFFCURVE",
"380 6 CURVE SMOOTH",
"401 8 OFFCURVE",
"474 7 OFFCURVE",
"493 8 CURVE SMOOTH",
"521 9 OFFCURVE",
"535 29 OFFCURVE",
"531 66 CURVE SMOOTH",
"530 75 OFFCURVE",
"539 126 OFFCURVE",
"555 217 CURVE SMOOTH",
"571 306 OFFCURVE",
"581 357 OFFCURVE",
"586 372 CURVE",
"593 334 OFFCURVE",
"600 281 OFFCURVE",
"606 213 CURVE SMOOTH",
"613 138 OFFCURVE",
"620 85 OFFCURVE",
"625 54 CURVE SMOOTH",
"628 35 OFFCURVE",
"636 26 OFFCURVE",
"649 27 CURVE SMOOTH",
"668 28 OFFCURVE",
"695 30 OFFCURVE",
"732 32 CURVE SMOOTH",
"769 34 OFFCURVE",
"796 35 OFFCURVE",
"815 36 CURVE SMOOTH",
"845 38 OFFCURVE",
"859 47 OFFCURVE",
"858 64 CURVE",
"853 81 OFFCURVE",
"849 94 OFFCURVE",
"845 103 CURVE SMOOTH",
"841 112 OFFCURVE",
"822 192 OFFCURVE",
"787 341 CURVE SMOOTH",
"752 489 OFFCURVE",
"734 574 OFFCURVE",
"731 593 CURVE",
"727 645 LINE",
"723 669 OFFCURVE",
"715 682 OFFCURVE",
"703 680 CURVE SMOOTH",
"682 677 OFFCURVE",
"627 667 OFFCURVE",
"604 665 CURVE SMOOTH",
"588 664 OFFCURVE",
"567 665 OFFCURVE",
"542 668 CURVE SMOOTH",
"517 671 OFFCURVE",
"502 672 OFFCURVE",
"499 672 CURVE SMOOTH",
"476 671 OFFCURVE",
"465 662 OFFCURVE",
"466 646 CURVE SMOOTH",
"467 638 OFFCURVE",
"473 615 OFFCURVE",
"473 604 CURVE",
"456 511 OFFCURVE",
"441 434 OFFCURVE",
"426 373 CURVE",
"373 492 OFFCURVE",
"346 585 OFFCURVE",
"339 652 CURVE SMOOTH",
"338 661 OFFCURVE",
"331 665 OFFCURVE",
"318 664 CURVE SMOOTH",
"298 662 OFFCURVE",
"251 645 OFFCURVE",
"232 644 CURVE SMOOTH",
"209 643 OFFCURVE",
"130 648 OFFCURVE",
"108 647 CURVE SMOOTH",
"91 646 OFFCURVE",
"77 638 OFFCURVE",
"74 623 CURVE SMOOTH",
"73 618 OFFCURVE",
"71 603 OFFCURVE",
"69 579 CURVE SMOOTH",
"69 577 OFFCURVE",
"65 534 OFFCURVE",
"60 451 CURVE SMOOTH",
"57 400 OFFCURVE",
"53 357 OFFCURVE",
"49 324 CURVE SMOOTH",
"46 299 OFFCURVE",
"41 251 OFFCURVE",
"40 179 CURVE SMOOTH",
"39 118 OFFCURVE",
"35 71 OFFCURVE",
"26 36 CURVE SMOOTH",
"23 24 OFFCURVE",
"21 15 OFFCURVE",
"22 9 CURVE SMOOTH"
);
},
{
closed = 1;
nodes = (
"617 389 OFFCURVE",
"631 397 OFFCURVE",
"642 398 CURVE SMOOTH",
"655 399 OFFCURVE",
"673 394 OFFCURVE",
"696 384 CURVE SMOOTH",
"719 374 OFFCURVE",
"737 369 OFFCURVE",
"752 371 CURVE SMOOTH",
"764 373 LINE",
"775 331 OFFCURVE",
"786 289 OFFCURVE",
"797 247 CURVE SMOOTH",
"809 197 OFFCURVE",
"816 155 OFFCURVE",
"819 120 CURVE SMOOTH",
"820 109 OFFCURVE",
"819 101 OFFCURVE",
"816 94 CURVE",
"765 102 OFFCURVE",
"751 114 OFFCURVE",
"747 165 CURVE SMOOTH",
"747 177 OFFCURVE",
"749 208 OFFCURVE",
"749 220 CURVE",
"746 249 OFFCURVE",
"723 273 OFFCURVE",
"694 271 CURVE SMOOTH",
"666 269 OFFCURVE",
"649 257 OFFCURVE",
"639 237 CURVE SMOOTH",
"637 233 OFFCURVE",
"633 211 OFFCURVE",
"627 172 CURVE",
"624 206 OFFCURVE",
"620 240 OFFCURVE",
"617 273 CURVE SMOOTH",
"613 314 OFFCURVE",
"607 347 OFFCURVE",
"600 373 CURVE"
);
},
{
closed = 1;
nodes = (
"703 666 LINE",
"703 665 LINE",
"702 665 OFFCURVE",
"701 665 OFFCURVE",
"700 666 CURVE"
);
}
);
width = 855;
}
);
note = M;
unicode = 004D;
},
{
glyphname = N;
lastChange = "2021-11-18 14:34:11 +0000";
layers = (
{
anchors = (
{
name = bottom;
position = "{335, 0}";
},
{
name = top;
position = "{384, 650}";
}
);
layerId = "F72AA8BB-7F63-4F07-AEAC-030E55A5CABB";
paths = (
{
closed = 1;
nodes = (
"288 249 OFFCURVE",
"296 235 OFFCURVE",
"312 212 CURVE SMOOTH",
"330 186 OFFCURVE",
"341 170 OFFCURVE",
"344 163 CURVE SMOOTH",
"361 123 OFFCURVE",
"370 92 OFFCURVE",
"377 72 CURVE",
"380 58 OFFCURVE",
"383 44 OFFCURVE",
"386 30 CURVE SMOOTH",
"391 14 OFFCURVE",
"400 5 OFFCURVE",
"415 4 CURVE SMOOTH",
"434 3 OFFCURVE",
"463 3 OFFCURVE",
"501 4 CURVE SMOOTH",
"539 5 OFFCURVE",
"568 5 OFFCURVE",
"587 3 CURVE SMOOTH",
"599 2 OFFCURVE",
"629 -8 OFFCURVE",
"641 -8 CURVE SMOOTH",
"652 -9 OFFCURVE",
"658 1 OFFCURVE",
"660 24 CURVE SMOOTH",
"663 55 OFFCURVE",
"664 95 OFFCURVE",
"664 146 CURVE SMOOTH",
"664 186 LINE SMOOTH",
"664 237 OFFCURVE",
"665 279 OFFCURVE",
"667 311 CURVE SMOOTH",
"688 601 LINE SMOOTH",
"689 609 OFFCURVE",
"687 620 OFFCURVE",
"684 633 CURVE SMOOTH",
"680 649 OFFCURVE",
"675 657 OFFCURVE",
"668 658 CURVE SMOOTH",
"665 658 OFFCURVE",
"662 655 OFFCURVE",
"659 650 CURVE",
"659 648 LINE",
"623 660 OFFCURVE",
"558 666 OFFCURVE",
"518 666 CURVE SMOOTH",
"471 666 OFFCURVE",
"447 653 OFFCURVE",
"445 626 CURVE SMOOTH",
"445 619 OFFCURVE",
"442 580 OFFCURVE",
"439 510 CURVE SMOOTH",
"437 463 OFFCURVE",
"434 424 OFFCURVE",
"430 393 CURVE",
"416 420 OFFCURVE",
"402 447 OFFCURVE",
"388 474 CURVE SMOOTH",
"365 515 OFFCURVE",
"347 536 OFFCURVE",
"335 537 CURVE SMOOTH",
"330 537 OFFCURVE",
"328 535 OFFCURVE",
"328 530 CURVE",
"327 527 OFFCURVE",
"333 515 OFFCURVE",
"344 495 CURVE",
"329 486 OFFCURVE",
"320 471 OFFCURVE",
"319 450 CURVE SMOOTH",
"318 430 OFFCURVE",
"335 406 OFFCURVE",
"335 393 CURVE SMOOTH",
"334 385 OFFCURVE",
"327 364 OFFCURVE",
"327 356 CURVE SMOOTH",
"324 324 OFFCURVE",
"351 300 OFFCURVE",
"384 298 CURVE SMOOTH",
"397 297 OFFCURVE",
"411 299 OFFCURVE",
"424 303 CURVE",
"420 266 OFFCURVE",
"428 246 OFFCURVE",
"447 245 CURVE SMOOTH",
"465 244 OFFCURVE",
"475 251 OFFCURVE",
"476 266 CURVE SMOOTH",
"477 284 OFFCURVE",
"476 307 OFFCURVE",
"473 334 CURVE SMOOTH",
"469 369 OFFCURVE",
"464 407 OFFCURVE",
"464 442 CURVE SMOOTH",
"464 449 OFFCURVE",
"464 504 OFFCURVE",
"475 607 CURVE SMOOTH",
"476 616 OFFCURVE",
"480 620 OFFCURVE",
"489 619 CURVE SMOOTH",
"503 617 OFFCURVE",
"527 614 OFFCURVE",
"560 607 CURVE SMOOTH",
"591 600 OFFCURVE",
"614 597 OFFCURVE",
"631 597 CURVE SMOOTH",
"644 597 LINE",
"641 578 OFFCURVE",
"640 565 OFFCURVE",
"640 557 CURVE",
"564 556 OFFCURVE",
"523 529 OFFCURVE",
"520 475 CURVE SMOOTH",
"519 454 OFFCURVE",
"527 428 OFFCURVE",
"545 397 CURVE SMOOTH",
"563 366 OFFCURVE",
"570 342 OFFCURVE",
"569 323 CURVE SMOOTH",
"568 302 OFFCURVE",
"559 283 OFFCURVE",
"541 269 CURVE SMOOTH",
"525 256 OFFCURVE",
"509 243 OFFCURVE",
"493 230 CURVE",
"475 211 OFFCURVE",
"465 187 OFFCURVE",
"463 157 CURVE SMOOTH",
"460 117 OFFCURVE",
"475 81 OFFCURVE",
"506 48 CURVE",
"457 51 LINE SMOOTH",
"438 52 OFFCURVE",
"409 89 OFFCURVE",
"378 165 CURVE SMOOTH",
"332 279 LINE",
"325 282 OFFCURVE",
"319 283 OFFCURVE",
"316 283 CURVE SMOOTH",
"304 284 OFFCURVE",
"289 266 OFFCURVE",
"288 253 CURVE SMOOTH"
);
},
{
closed = 1;
nodes = (
"59 46 OFFCURVE",
"88 44 OFFCURVE",
"133 38 CURVE SMOOTH",
"169 33 OFFCURVE",
"198 31 OFFCURVE",
"220 31 CURVE SMOOTH",
"249 31 OFFCURVE",
"264 42 OFFCURVE",
"266 64 CURVE SMOOTH",
"267 80 OFFCURVE",
"268 104 OFFCURVE",
"267 135 CURVE SMOOTH",
"266 166 OFFCURVE",
"266 190 OFFCURVE",
"267 205 CURVE SMOOTH",
"268 224 OFFCURVE",
"275 250 OFFCURVE",
"287 283 CURVE SMOOTH",
"299 315 OFFCURVE",
"304 338 OFFCURVE",
"305 353 CURVE SMOOTH",
"308 374 OFFCURVE",
"289 389 OFFCURVE",
"268 392 CURVE SMOOTH",
"247 393 OFFCURVE",
"236 384 OFFCURVE",
"234 363 CURVE SMOOTH",
"233 350 OFFCURVE",
"234 332 OFFCURVE",
"237 309 CURVE SMOOTH",
"239 291 OFFCURVE",
"241 273 OFFCURVE",
"244 255 CURVE SMOOTH",
"245 237 OFFCURVE",
"245 194 OFFCURVE",
"239 125 CURVE SMOOTH",
"238 114 OFFCURVE",
"237 104 OFFCURVE",
"235 96 CURVE",
"196 113 OFFCURVE",
"173 141 OFFCURVE",
"168 178 CURVE SMOOTH",
"165 210 OFFCURVE",
"163 242 OFFCURVE",
"161 273 CURVE",
"152 307 OFFCURVE",
"123 330 OFFCURVE",
"75 343 CURVE",
"79 417 OFFCURVE",
"82 473 OFFCURVE",
"83 510 CURVE",
"91 487 OFFCURVE",
"99 463 OFFCURVE",
"106 440 CURVE",
"117 419 OFFCURVE",
"138 407 OFFCURVE",
"170 405 CURVE SMOOTH",
"211 402 OFFCURVE",
"260 436 OFFCURVE",
"262 476 CURVE SMOOTH",
"263 495 OFFCURVE",
"243 528 OFFCURVE",
"244 544 CURVE SMOOTH",
"245 557 OFFCURVE",
"249 571 OFFCURVE",
"260 585 CURVE SMOOTH",
"288 621 LINE",
"293 618 OFFCURVE",
"303 608 OFFCURVE",
"318 591 CURVE SMOOTH",
"334 573 OFFCURVE",
"341 565 OFFCURVE",
"344 565 CURVE SMOOTH",
"350 564 OFFCURVE",
"353 568 OFFCURVE",
"354 576 CURVE SMOOTH",
"355 583 OFFCURVE",
"345 600 OFFCURVE",
"326 625 CURVE SMOOTH",
"306 651 OFFCURVE",
"291 663 OFFCURVE",
"280 664 CURVE SMOOTH",
"259 666 OFFCURVE",
"227 667 OFFCURVE",
"184 669 CURVE SMOOTH",
"141 671 OFFCURVE",
"110 672 OFFCURVE",
"89 673 CURVE SMOOTH",
"72 674 OFFCURVE",
"63 666 OFFCURVE",
"62 650 CURVE SMOOTH",
"60 622 OFFCURVE",
"59 534 OFFCURVE",
"57 507 CURVE SMOOTH",
"44 337 OFFCURVE",
"36 231 OFFCURVE",
"30 188 CURVE SMOOTH",
"21 138 OFFCURVE",
"13 100 OFFCURVE",
"8 75 CURVE",
"7 58 OFFCURVE",
"20 49 OFFCURVE",
"46 47 CURVE SMOOTH"
);
}
);
width = 696;
}
);
note = N;
unicode = 004E;
},
{
glyphname = Eng;
lastChange = "2021-11-18 14:34:11 +0000";
layers = (
{
layerId = "F72AA8BB-7F63-4F07-AEAC-030E55A5CABB";
paths = (
{
closed = 1;
nodes = (
"299 315 OFFCURVE",
"304 338 OFFCURVE",
"305 353 CURVE SMOOTH",
"308 374 OFFCURVE",
"289 389 OFFCURVE",
"268 392 CURVE SMOOTH",
"247 393 OFFCURVE",
"236 384 OFFCURVE",
"234 363 CURVE SMOOTH",
"233 350 OFFCURVE",
"234 332 OFFCURVE",
"237 309 CURVE SMOOTH",
"239 291 OFFCURVE",
"241 273 OFFCURVE",
"244 255 CURVE SMOOTH",
"245 237 OFFCURVE",
"245 194 OFFCURVE",
"239 125 CURVE SMOOTH",
"238 114 OFFCURVE",
"237 104 OFFCURVE",
"235 96 CURVE",
"196 113 OFFCURVE",
"173 141 OFFCURVE",
"168 178 CURVE SMOOTH",
"165 210 OFFCURVE",
"163 242 OFFCURVE",
"161 273 CURVE",
"152 307 OFFCURVE",
"123 330 OFFCURVE",
"75 343 CURVE",
"79 417 OFFCURVE",
"82 473 OFFCURVE",
"83 510 CURVE",
"91 487 OFFCURVE",
"99 463 OFFCURVE",
"106 440 CURVE",
"117 419 OFFCURVE",
"138 407 OFFCURVE",
"170 405 CURVE SMOOTH",
"211 402 OFFCURVE",
"260 436 OFFCURVE",
"262 476 CURVE SMOOTH",
"263 495 OFFCURVE",
"243 528 OFFCURVE",
"244 544 CURVE SMOOTH",
"245 557 OFFCURVE",
"249 571 OFFCURVE",
"260 585 CURVE SMOOTH",
"288 621 LINE",
"293 618 OFFCURVE",
"303 608 OFFCURVE",
"318 591 CURVE SMOOTH",
"334 573 OFFCURVE",
"341 565 OFFCURVE",
"344 565 CURVE SMOOTH",
"350 564 OFFCURVE",
"353 568 OFFCURVE",
"354 576 CURVE SMOOTH",
"355 583 OFFCURVE",
"345 600 OFFCURVE",
"326 625 CURVE SMOOTH",
"306 651 OFFCURVE",
"291 663 OFFCURVE",
"280 664 CURVE SMOOTH",
"259 666 OFFCURVE",
"227 667 OFFCURVE",
"184 669 CURVE SMOOTH",
"89 673 LINE SMOOTH",
"72 674 OFFCURVE",
"63 666 OFFCURVE",
"62 650 CURVE SMOOTH",
"60 622 OFFCURVE",
"59 534 OFFCURVE",
"57 507 CURVE SMOOTH",
"44 337 OFFCURVE",
"36 231 OFFCURVE",
"30 188 CURVE SMOOTH",
"21 138 OFFCURVE",
"13 100 OFFCURVE",
"8 75 CURVE",
"7 58 OFFCURVE",
"20 49 OFFCURVE",
"46 47 CURVE SMOOTH",
"59 46 OFFCURVE",
"88 44 OFFCURVE",
"133 38 CURVE SMOOTH",
"169 33 OFFCURVE",
"198 31 OFFCURVE",
"220 31 CURVE SMOOTH",
"249 31 OFFCURVE",
"264 42 OFFCURVE",
"266 64 CURVE SMOOTH",
"267 80 OFFCURVE",
"268 104 OFFCURVE",
"267 135 CURVE SMOOTH",
"266 166 OFFCURVE",
"266 190 OFFCURVE",
"267 205 CURVE SMOOTH",
"268 224 OFFCURVE",
"275 250 OFFCURVE",
"287 283 CURVE SMOOTH"
);
},
{
closed = 1;
nodes = (
"465 28 OFFCURVE",
"477 31 OFFCURVE",
"457 51 CURVE SMOOTH",
"443 65 OFFCURVE",
"409 89 OFFCURVE",
"378 165 CURVE SMOOTH",
"332 279 LINE",
"325 282 OFFCURVE",
"319 283 OFFCURVE",
"316 283 CURVE SMOOTH",
"304 284 OFFCURVE",
"289 266 OFFCURVE",
"288 253 CURVE SMOOTH",
"288 249 OFFCURVE",
"296 235 OFFCURVE",
"312 212 CURVE SMOOTH",
"330 186 OFFCURVE",
"341 170 OFFCURVE",
"344 163 CURVE SMOOTH",
"361 123 OFFCURVE",
"370 92 OFFCURVE",
"377 72 CURVE",
"386 30 LINE",
"391 14 OFFCURVE",
"400 5 OFFCURVE",
"415 4 CURVE SMOOTH",
"420 4 OFFCURVE",
"426 4 OFFCURVE",
"433 3 CURVE",
"431 -43 OFFCURVE",
"428 -134 OFFCURVE",
"427 -207 CURVE",
"408 -214 OFFCURVE",
"355 -218 OFFCURVE",
"343 -217 CURVE SMOOTH",
"330 -216 OFFCURVE",
"325 -221 OFFCURVE",
"324 -232 CURVE SMOOTH",
"320 -313 LINE SMOOTH",
"320 -322 OFFCURVE",
"325 -329 OFFCURVE",
"339 -330 CURVE SMOOTH",
"454 -340 LINE SMOOTH",
"485 -343 OFFCURVE",
"521 -343 OFFCURVE",
"560 -336 CURVE SMOOTH",
"644 -321 OFFCURVE",
"649 -267 OFFCURVE",
"652 -209 CURVE SMOOTH",
"656 -97 OFFCURVE",
"661 -41 OFFCURVE",
"661 -41 CURVE",
"659 -26 OFFCURVE",
"658 -12 OFFCURVE",
"657 5 CURVE",
"660 24 LINE SMOOTH",
"665 55 OFFCURVE",
"664 95 OFFCURVE",
"664 146 CURVE SMOOTH",
"664 186 LINE SMOOTH",
"664 237 OFFCURVE",
"665 279 OFFCURVE",
"667 311 CURVE SMOOTH",
"688 601 LINE SMOOTH",
"689 621 OFFCURVE",
"685 648 OFFCURVE",
"661 655 CURVE SMOOTH",
"621 667 OFFCURVE",
"558 666 OFFCURVE",
"518 666 CURVE SMOOTH",
"471 666 OFFCURVE",
"447 653 OFFCURVE",
"445 626 CURVE SMOOTH",
"445 619 OFFCURVE",
"442 580 OFFCURVE",
"439 510 CURVE SMOOTH",
"437 463 OFFCURVE",
"434 424 OFFCURVE",
"430 393 CURVE",
"388 474 LINE SMOOTH",
"366 516 OFFCURVE",
"347 536 OFFCURVE",
"335 537 CURVE SMOOTH",
"330 537 OFFCURVE",
"328 535 OFFCURVE",
"328 530 CURVE",
"327 527 OFFCURVE",
"333 515 OFFCURVE",
"344 495 CURVE",
"329 486 OFFCURVE",
"320 471 OFFCURVE",
"319 450 CURVE SMOOTH",
"318 430 OFFCURVE",
"335 406 OFFCURVE",
"335 393 CURVE SMOOTH",
"334 385 OFFCURVE",
"327 364 OFFCURVE",
"327 356 CURVE SMOOTH",
"324 324 OFFCURVE",
"351 300 OFFCURVE",
"384 298 CURVE SMOOTH",
"397 297 OFFCURVE",
"411 299 OFFCURVE",
"424 303 CURVE",
"420 266 OFFCURVE",
"428 246 OFFCURVE",
"447 245 CURVE SMOOTH",
"465 244 OFFCURVE",
"475 251 OFFCURVE",
"476 266 CURVE SMOOTH",
"477 284 OFFCURVE",
"476 307 OFFCURVE",
"473 334 CURVE SMOOTH",
"469 369 OFFCURVE",
"464 407 OFFCURVE",
"464 442 CURVE SMOOTH",
"464 449 OFFCURVE",
"464 504 OFFCURVE",
"475 607 CURVE SMOOTH",
"476 616 OFFCURVE",
"480 620 OFFCURVE",
"489 619 CURVE SMOOTH",
"503 617 OFFCURVE",
"527 614 OFFCURVE",
"560 607 CURVE SMOOTH",
"591 600 OFFCURVE",
"614 597 OFFCURVE",
"631 597 CURVE SMOOTH",
"644 597 LINE",
"641 578 OFFCURVE",
"640 565 OFFCURVE",
"640 557 CURVE",
"564 556 OFFCURVE",
"523 529 OFFCURVE",
"520 475 CURVE SMOOTH",
"519 454 OFFCURVE",
"527 428 OFFCURVE",
"545 397 CURVE SMOOTH",
"563 366 OFFCURVE",
"570 342 OFFCURVE",
"569 323 CURVE SMOOTH",
"568 302 OFFCURVE",
"559 283 OFFCURVE",
"541 269 CURVE SMOOTH",
"493 230 LINE",
"483 154 OFFCURVE",
"593 180 OFFCURVE",
"595 224 CURVE SMOOTH",
"595 231 OFFCURVE",
"627 241 OFFCURVE",
"629 216 CURVE SMOOTH",
"635 165 OFFCURVE",
"613 50 OFFCURVE",
"614 17 CURVE",
"619 -66 LINE SMOOTH",
"621 -93 OFFCURVE",
"613 -112 OFFCURVE",
"595 -121 CURVE SMOOTH",
"577 -128 OFFCURVE",
"560 -134 OFFCURVE",
"542 -140 CURVE",
"521 -150 OFFCURVE",
"507 -168 OFFCURVE",
"500 -195 CURVE SMOOTH",
"498 -208 OFFCURVE",
"516 -222 OFFCURVE",
"552 -236 CURVE SMOOTH",
"589 -250 OFFCURVE",
"606 -257 OFFCURVE",
"606 -258 CURVE SMOOTH",
"595 -298 OFFCURVE",
"528 -311 OFFCURVE",
"484 -311 CURVE SMOOTH",
"458 -311 OFFCURVE",
"441 -308 OFFCURVE",
"423 -291 CURVE SMOOTH",
"408 -277 OFFCURVE",
"400 -264 OFFCURVE",
"400 -249 CURVE",
"431 -249 OFFCURVE",
"451 -248 OFFCURVE",
"460 -245 CURVE SMOOTH",
"476 -240 OFFCURVE",
"486 -226 OFFCURVE",
"487 -205 CURVE SMOOTH",
"488 -188 LINE SMOOTH",
"489 -171 OFFCURVE",
"483 -143 OFFCURVE",
"469 -103 CURVE SMOOTH",
"455 -63 OFFCURVE",
"465 -10 OFFCURVE",
"465 10 CURVE SMOOTH"
);
}
);
width = 696;
}
);
unicode = 014A;
},
{
glyphname = O;
lastChange = "2021-11-18 14:34:11 +0000";
layers = (
{
anchors = (
{
name = bottom;
position = "{347, 0}";
},
{
name = center;
position = "{347, 325}";
},
{
name = ogonek;
position = "{495, 10}";
},
{
name = top;
position = "{347, 650}";
},
{
name = topleft;
position = "{20, 650}";
},
{
name = topright;
position = "{427, 650}";
}
);
layerId = "F72AA8BB-7F63-4F07-AEAC-030E55A5CABB";
paths = (
{
closed = 1;
nodes = (
"372 -13 OFFCURVE",
"445 11 OFFCURVE",
"535 59 CURVE SMOOTH",
"638 114 OFFCURVE",
"684 230 OFFCURVE",
"684 342 CURVE SMOOTH",
"684 551 OFFCURVE",
"544 671 OFFCURVE",
"341 671 CURVE SMOOTH",
"305 671 OFFCURVE",
"172 660 OFFCURVE",
"170 614 CURVE",
"60 567 OFFCURVE",
"0 442 OFFCURVE",
"0 327 CURVE SMOOTH",
"0 154 OFFCURVE",
"137 -13 OFFCURVE",
"316 -13 CURVE SMOOTH"
);
},
{
closed = 1;
nodes = (
"179 595 OFFCURVE",
"182 594 OFFCURVE",
"185 594 CURVE SMOOTH",
"196 594 OFFCURVE",
"259 623 OFFCURVE",
"265 629 CURVE",
"270 558 OFFCURVE",
"298 523 OFFCURVE",
"348 523 CURVE SMOOTH",
"368 523 OFFCURVE",
"392 533 OFFCURVE",
"419 553 CURVE SMOOTH",
"445 573 OFFCURVE",
"468 583 OFFCURVE",
"486 583 CURVE SMOOTH",
"505 583 OFFCURVE",
"525 573 OFFCURVE",
"546 552 CURVE SMOOTH",
"570 528 OFFCURVE",
"588 514 OFFCURVE",
"602 510 CURVE",
"641 446 OFFCURVE",
"661 381 OFFCURVE",
"661 315 CURVE SMOOTH",
"661 292 OFFCURVE",
"660 271 OFFCURVE",
"657 252 CURVE SMOOTH",
"642 160 OFFCURVE",
"516 72 OFFCURVE",
"433 44 CURVE",
"435 48 OFFCURVE",
"441 58 OFFCURVE",
"452 74 CURVE SMOOTH",
"461 87 OFFCURVE",
"465 97 OFFCURVE",
"465 103 CURVE SMOOTH",
"465 122 OFFCURVE",
"454 132 OFFCURVE",
"432 132 CURVE SMOOTH",
"427 132 OFFCURVE",
"421 131 OFFCURVE",
"414 128 CURVE SMOOTH",
"405 124 OFFCURVE",
"399 123 OFFCURVE",
"396 122 CURVE SMOOTH",
"362 111 OFFCURVE",
"325 108 OFFCURVE",
"325 65 CURVE SMOOTH",
"325 49 OFFCURVE",
"329 36 OFFCURVE",
"338 26 CURVE",
"295 26 OFFCURVE",
"252 35 OFFCURVE",
"208 53 CURVE",
"215 71 OFFCURVE",
"218 92 OFFCURVE",
"218 115 CURVE SMOOTH",
"218 143 OFFCURVE",
"209 181 OFFCURVE",
"191 228 CURVE SMOOTH",
"173 274 OFFCURVE",
"164 309 OFFCURVE",
"164 330 CURVE SMOOTH",
"164 348 OFFCURVE",
"178 416 OFFCURVE",
"178 436 CURVE SMOOTH",
"178 490 OFFCURVE",
"157 529 OFFCURVE",
"114 552 CURVE",
"141 573 OFFCURVE",
"161 587 OFFCURVE",
"176 596 CURVE"
);
},
{
closed = 1;
nodes = (
"235 295 OFFCURVE",
"241 265 OFFCURVE",
"254 247 CURVE SMOOTH",
"269 226 OFFCURVE",
"297 217 OFFCURVE",
"338 217 CURVE SMOOTH",
"346 217 LINE",
"354 209 OFFCURVE",
"445 169 OFFCURVE",
"456 169 CURVE SMOOTH",
"485 169 OFFCURVE",
"525 199 OFFCURVE",
"541 201 CURVE SMOOTH",
"586 207 OFFCURVE",
"630 217 OFFCURVE",
"630 272 CURVE SMOOTH",
"630 347 LINE SMOOTH",
"630 390 OFFCURVE",
"595 422 OFFCURVE",
"551 422 CURVE SMOOTH",
"526 422 OFFCURVE",
"487 400 OFFCURVE",
"484 400 CURVE SMOOTH",
"475 400 LINE",
"471 429 OFFCURVE",
"446 462 OFFCURVE",
"419 462 CURVE SMOOTH",
"411 462 OFFCURVE",
"407 458 OFFCURVE",
"407 450 CURVE SMOOTH",
"407 440 OFFCURVE",
"411 431 OFFCURVE",
"420 423 CURVE SMOOTH",
"450 397 OFFCURVE",
"457 381 OFFCURVE",
"457 339 CURVE SMOOTH",
"457 288 OFFCURVE",
"407 246 OFFCURVE",
"355 246 CURVE SMOOTH",
"287 246 OFFCURVE",
"256 300 OFFCURVE",
"256 362 CURVE SMOOTH",
"256 409 OFFCURVE",
"288 459 OFFCURVE",
"333 463 CURVE SMOOTH",
"374 467 OFFCURVE",
"394 471 OFFCURVE",
"394 474 CURVE SMOOTH",
"394 482 OFFCURVE",
"360 490 OFFCURVE",
"348 490 CURVE SMOOTH",
"272 490 OFFCURVE",
"235 403 OFFCURVE",
"235 338 CURVE SMOOTH"
);
}
);
width = 694;
}
);
note = O;
unicode = 004F;
},
{
glyphname = Oslash;
lastChange = "2021-11-18 14:34:11 +0000";
layers = (
{
layerId = "F72AA8BB-7F63-4F07-AEAC-030E55A5CABB";
paths = (
{
closed = 1;
nodes = (
"164 14 LINE SMOOTH",
"153 -11 OFFCURVE",
"142 -31 OFFCURVE",
"135 -44 CURVE SMOOTH",
"130 -57 OFFCURVE",
"130 -63 OFFCURVE",
"136 -63 CURVE SMOOTH",
"254 -63 LINE SMOOTH",
"263 -63 OFFCURVE",
"268 -57 OFFCURVE",
"270 -44 CURVE SMOOTH",
"276 -10 LINE",
"289 -12 OFFCURVE",
"302 -13 OFFCURVE",
"315 -13 CURVE SMOOTH",
"371 -13 OFFCURVE",
"444 11 OFFCURVE",
"534 59 CURVE SMOOTH",
"637 114 OFFCURVE",
"683 230 OFFCURVE",
"683 342 CURVE SMOOTH",
"683 486 OFFCURVE",
"624 585 OFFCURVE",
"507 638 CURVE",
"546 735 LINE SMOOTH",
"548 740 OFFCURVE",
"549 745 OFFCURVE",
"548 749 CURVE SMOOTH",
"548 753 OFFCURVE",
"547 755 OFFCURVE",
"544 754 CURVE SMOOTH",
"518 745 OFFCURVE",
"501 747 OFFCURVE",
"497 747 CURVE SMOOTH",
"493 747 OFFCURVE",
"474 749 OFFCURVE",
"439 754 CURVE SMOOTH",
"432 755 OFFCURVE",
"426 745 OFFCURVE",
"423 724 CURVE SMOOTH",
"418 691 OFFCURVE",
"414 671 OFFCURVE",
"412 666 CURVE",
"389 669 OFFCURVE",
"365 671 OFFCURVE",
"340 671 CURVE SMOOTH",
"304 671 OFFCURVE",
"171 660 OFFCURVE",
"169 614 CURVE",
"59 567 OFFCURVE",
"-1 442 OFFCURVE",
"-1 327 CURVE SMOOTH",
"-1 207 OFFCURVE",
"67 88 OFFCURVE",
"170 28 CURVE"
);
},
{
closed = 1;
nodes = (
"296 76 OFFCURVE",
"308 110 OFFCURVE",
"316 132 CURVE SMOOTH",
"329 167 OFFCURVE",
"339 195 OFFCURVE",
"346 216 CURVE",
"356 207 OFFCURVE",
"443 169 OFFCURVE",
"455 169 CURVE SMOOTH",
"484 169 OFFCURVE",
"524 199 OFFCURVE",
"540 201 CURVE SMOOTH",
"585 207 OFFCURVE",
"629 217 OFFCURVE",
"629 272 CURVE SMOOTH",
"629 347 LINE SMOOTH",
"629 390 OFFCURVE",
"594 422 OFFCURVE",
"550 422 CURVE SMOOTH",
"525 422 OFFCURVE",
"486 400 OFFCURVE",
"483 400 CURVE SMOOTH",
"474 400 LINE",
"470 427 OFFCURVE",
"457 446 OFFCURVE",
"436 457 CURVE",
"486 583 LINE",
"505 583 OFFCURVE",
"524 573 OFFCURVE",
"545 552 CURVE SMOOTH",
"569 528 OFFCURVE",
"587 514 OFFCURVE",
"601 510 CURVE",
"640 446 OFFCURVE",
"660 381 OFFCURVE",
"660 315 CURVE SMOOTH",
"660 292 OFFCURVE",
"659 271 OFFCURVE",
"656 252 CURVE SMOOTH",
"641 160 OFFCURVE",
"515 72 OFFCURVE",
"432 44 CURVE",
"433 47 OFFCURVE",
"440 57 OFFCURVE",
"451 74 CURVE SMOOTH",
"460 87 OFFCURVE",
"464 97 OFFCURVE",
"464 103 CURVE SMOOTH",
"464 122 OFFCURVE",
"453 132 OFFCURVE",
"431 132 CURVE SMOOTH",
"426 132 OFFCURVE",
"420 131 OFFCURVE",
"413 128 CURVE SMOOTH",
"404 124 OFFCURVE",
"398 123 OFFCURVE",
"395 122 CURVE SMOOTH",
"361 111 OFFCURVE",
"324 108 OFFCURVE",
"324 65 CURVE SMOOTH",
"324 49 OFFCURVE",
"328 36 OFFCURVE",
"337 26 CURVE",
"318 26 OFFCURVE",
"300 27 OFFCURVE",
"283 30 CURVE"
);
},
{
closed = 1;
nodes = (
"178 595 OFFCURVE",
"181 594 OFFCURVE",
"184 594 CURVE SMOOTH",
"195 594 OFFCURVE",
"258 623 OFFCURVE",
"264 629 CURVE",
"269 558 OFFCURVE",
"297 523 OFFCURVE",
"347 523 CURVE SMOOTH",
"352 523 OFFCURVE",
"356 523 OFFCURVE",
"360 524 CURVE",
"347 490 LINE",
"271 490 OFFCURVE",
"234 403 OFFCURVE",
"234 338 CURVE SMOOTH",
"234 294 OFFCURVE",
"241 263 OFFCURVE",
"254 246 CURVE",
"215 144 LINE",
"212 165 OFFCURVE",
"202 197 OFFCURVE",
"185 241 CURVE SMOOTH",
"170 280 OFFCURVE",
"163 309 OFFCURVE",
"163 330 CURVE SMOOTH",
"163 348 OFFCURVE",
"177 416 OFFCURVE",
"177 436 CURVE SMOOTH",
"177 490 OFFCURVE",
"156 529 OFFCURVE",
"113 552 CURVE",
"140 573 OFFCURVE",
"160 587 OFFCURVE",
"175 596 CURVE"
);
},
{
closed = 1;
nodes = (
"321 381 LINE",
"336 398 OFFCURVE",
"346 410 OFFCURVE",
"353 415 CURVE",
"366 435 OFFCURVE",
"378 453 OFFCURVE",
"388 470 CURVE",
"391 471 OFFCURVE",
"392 473 OFFCURVE",
"393 474 CURVE",
"393 475 OFFCURVE",
"393 476 OFFCURVE",
"392 477 CURVE",
"412 512 OFFCURVE",
"426 541 OFFCURVE",
"435 565 CURVE",
"447 573 OFFCURVE",
"458 578 OFFCURVE",
"468 581 CURVE",
"422 461 LINE",
"421 462 OFFCURVE",
"419 462 OFFCURVE",
"418 462 CURVE SMOOTH",
"410 462 OFFCURVE",
"406 458 OFFCURVE",
"406 450 CURVE SMOOTH",
"406 443 OFFCURVE",
"408 438 OFFCURVE",
"411 433 CURVE",
"387 371 LINE SMOOTH",
"386 369 OFFCURVE",
"374 357 OFFCURVE",
"351 336 CURVE SMOOTH",
"327 315 OFFCURVE",
"309 290 OFFCURVE",
"296 264 CURVE",
"291 267 OFFCURVE",
"286 272 OFFCURVE",
"281 277 CURVE"
);
},
{
closed = 1;
nodes = (
"367 274 OFFCURVE",
"377 303 OFFCURVE",
"389 334 CURVE SMOOTH",
"422 421 LINE",
"445 402 OFFCURVE",
"456 374 OFFCURVE",
"456 339 CURVE SMOOTH",
"456 290 OFFCURVE",
"408 247 OFFCURVE",
"356 246 CURVE"
);
},
{
closed = 1;
nodes = (
"265 234 LINE",
"270 231 OFFCURVE",
"275 228 OFFCURVE",
"281 225 CURVE",
"274 204 OFFCURVE",
"269 182 OFFCURVE",
"267 158 CURVE SMOOTH",
"264 120 OFFCURVE",
"296 125 OFFCURVE",
"294 117 CURVE",
"275 66 OFFCURVE",
"264 38 OFFCURVE",
"263 34 CURVE",
"245 39 OFFCURVE",
"226 45 OFFCURVE",
"207 53 CURVE",
"213 69 OFFCURVE",
"216 87 OFFCURVE",
"217 108 CURVE"
);
},
{
closed = 1;
nodes = (
"255 405 OFFCURVE",
"285 459 OFFCURVE",
"332 463 CURVE SMOOTH",
"337 463 LINE",
"272 292 LINE",
"261 311 OFFCURVE",
"255 335 OFFCURVE",
"255 362 CURVE SMOOTH"
);
},
{
closed = 1;
nodes = (
"456 710 OFFCURVE",
"473 707 OFFCURVE",
"483 707 CURVE SMOOTH",
"488 707 OFFCURVE",
"494 708 OFFCURVE",
"500 710 CURVE SMOOTH",
"509 713 OFFCURVE",
"516 715 OFFCURVE",
"521 716 CURVE",
"493 644 LINE",
"476 651 OFFCURVE",
"459 656 OFFCURVE",
"441 660 CURVE",
"436 692 OFFCURVE",
"434 711 OFFCURVE",
"433 716 CURVE"
);
},
{
closed = 1;
nodes = (
"180 6 OFFCURVE",
"181 13 OFFCURVE",
"184 20 CURVE",
"205 9 OFFCURVE",
"228 0 OFFCURVE",
"251 -5 CURVE",
"251 -14 OFFCURVE",
"251 -20 OFFCURVE",
"250 -25 CURVE",
"196 -25 LINE SMOOTH",
"185 -25 OFFCURVE",
"180 -17 OFFCURVE",
"180 -1 CURVE SMOOTH"
);
}
);
width = 692;
}
);
note = Oslash;
unicode = 00D8;
},
{
glyphname = OE;
lastChange = "2021-11-18 14:34:11 +0000";
layers = (
{
layerId = "F72AA8BB-7F63-4F07-AEAC-030E55A5CABB";
paths = (
{
closed = 1;
nodes = (
"-1 154 OFFCURVE",
"136 -13 OFFCURVE",
"315 -13 CURVE SMOOTH",
"368 -13 OFFCURVE",
"433 7 OFFCURVE",
"510 47 CURVE",
"507 43 OFFCURVE",
"505 37 OFFCURVE",
"505 29 CURVE SMOOTH",
"505 13 OFFCURVE",
"515 5 OFFCURVE",
"536 5 CURVE SMOOTH",
"569 5 OFFCURVE",
"618 7 OFFCURVE",
"684 10 CURVE SMOOTH",
"750 13 OFFCURVE",
"800 15 OFFCURVE",
"833 15 CURVE SMOOTH",
"848 15 OFFCURVE",
"868 12 OFFCURVE",
"893 7 CURVE SMOOTH",
"918 2 OFFCURVE",
"936 -1 OFFCURVE",
"945 -1 CURVE SMOOTH",
"963 -1 OFFCURVE",
"972 26 OFFCURVE",
"972 79 CURVE SMOOTH",
"972 99 OFFCURVE",
"957 168 OFFCURVE",
"957 189 CURVE SMOOTH",
"957 208 LINE",
"956 213 OFFCURVE",
"950 216 OFFCURVE",
"941 216 CURVE SMOOTH",
"921 216 OFFCURVE",
"851 205 OFFCURVE",
"830 205 CURVE SMOOTH",
"764 205 LINE",
"763 224 OFFCURVE",
"759 240 OFFCURVE",
"753 253 CURVE",
"764 253 LINE",
"773 237 OFFCURVE",
"819 229 OFFCURVE",
"902 229 CURVE SMOOTH",
"922 229 OFFCURVE",
"932 237 OFFCURVE",
"932 254 CURVE SMOOTH",
"932 261 OFFCURVE",
"930 267 OFFCURVE",
"925 270 CURVE",
"926 275 OFFCURVE",
"931 298 OFFCURVE",
"938 337 CURVE SMOOTH",
"945 376 OFFCURVE",
"949 398 OFFCURVE",
"949 402 CURVE SMOOTH",
"949 416 OFFCURVE",
"936 423 OFFCURVE",
"910 423 CURVE SMOOTH",
"893 423 OFFCURVE",
"868 423 OFFCURVE",
"835 421 CURVE SMOOTH",
"802 419 OFFCURVE",
"777 418 OFFCURVE",
"760 418 CURVE",
"761 449 LINE SMOOTH",
"761 453 OFFCURVE",
"790 455 OFFCURVE",
"848 455 CURVE SMOOTH",
"867 455 OFFCURVE",
"914 450 OFFCURVE",
"934 450 CURVE SMOOTH",
"945 450 OFFCURVE",
"951 456 OFFCURVE",
"951 468 CURVE SMOOTH",
"951 473 OFFCURVE",
"949 477 OFFCURVE",
"946 481 CURVE",
"946 571 LINE SMOOTH",
"946 578 OFFCURVE",
"949 604 OFFCURVE",
"949 616 CURVE SMOOTH",
"949 638 OFFCURVE",
"942 649 OFFCURVE",
"927 649 CURVE SMOOTH",
"902 649 OFFCURVE",
"813 640 OFFCURVE",
"787 640 CURVE SMOOTH",
"768 640 OFFCURVE",
"740 641 OFFCURVE",
"702 642 CURVE SMOOTH",
"663 643 OFFCURVE",
"634 643 OFFCURVE",
"615 643 CURVE SMOOTH",
"599 643 OFFCURVE",
"562 652 OFFCURVE",
"546 652 CURVE SMOOTH",
"533 652 OFFCURVE",
"522 646 OFFCURVE",
"514 635 CURVE",
"463 659 OFFCURVE",
"405 671 OFFCURVE",
"340 671 CURVE SMOOTH",
"304 671 OFFCURVE",
"171 660 OFFCURVE",
"169 614 CURVE",
"59 567 OFFCURVE",
"-1 442 OFFCURVE",
"-1 327 CURVE SMOOTH"
);
},
{
closed = 1;
nodes = (
"140 573 OFFCURVE",
"160 587 OFFCURVE",
"175 596 CURVE",
"178 595 OFFCURVE",
"181 594 OFFCURVE",
"184 594 CURVE SMOOTH",
"195 594 OFFCURVE",
"258 623 OFFCURVE",
"264 629 CURVE",
"269 558 OFFCURVE",
"297 523 OFFCURVE",
"347 523 CURVE SMOOTH",
"367 523 OFFCURVE",
"391 533 OFFCURVE",
"418 553 CURVE SMOOTH",
"444 573 OFFCURVE",
"467 583 OFFCURVE",
"485 583 CURVE SMOOTH",
"492 583 OFFCURVE",
"500 582 OFFCURVE",
"507 579 CURVE",
"507 572 OFFCURVE",
"510 552 OFFCURVE",
"514 520 CURVE SMOOTH",
"517 495 OFFCURVE",
"519 475 OFFCURVE",
"519 459 CURVE SMOOTH",
"519 446 OFFCURVE",
"519 431 OFFCURVE",
"518 415 CURVE",
"492 405 OFFCURVE",
"480 400 OFFCURVE",
"483 400 CURVE SMOOTH",
"474 400 LINE",
"470 429 OFFCURVE",
"445 462 OFFCURVE",
"418 462 CURVE SMOOTH",
"410 462 OFFCURVE",
"406 458 OFFCURVE",
"406 450 CURVE SMOOTH",
"406 440 OFFCURVE",
"410 431 OFFCURVE",
"419 423 CURVE SMOOTH",
"449 397 OFFCURVE",
"456 381 OFFCURVE",
"456 339 CURVE SMOOTH",
"456 288 OFFCURVE",
"406 246 OFFCURVE",
"354 246 CURVE SMOOTH",
"286 246 OFFCURVE",
"255 300 OFFCURVE",
"255 362 CURVE SMOOTH",
"255 409 OFFCURVE",
"287 459 OFFCURVE",
"332 463 CURVE SMOOTH",
"373 467 OFFCURVE",
"393 471 OFFCURVE",
"393 474 CURVE SMOOTH",
"393 482 OFFCURVE",
"359 490 OFFCURVE",
"347 490 CURVE SMOOTH",
"271 490 OFFCURVE",
"234 403 OFFCURVE",
"234 338 CURVE SMOOTH",
"234 295 OFFCURVE",
"240 265 OFFCURVE",
"253 247 CURVE SMOOTH",
"268 226 OFFCURVE",
"296 216 OFFCURVE",
"337 217 CURVE SMOOTH",
"345 217 LINE",
"353 209 OFFCURVE",
"444 169 OFFCURVE",
"455 169 CURVE SMOOTH",
"468 169 OFFCURVE",
"488 177 OFFCURVE",
"516 192 CURVE",
"519 151 OFFCURVE",
"521 125 OFFCURVE",
"521 113 CURVE",
"518 87 LINE",
"488 68 OFFCURVE",
"459 53 OFFCURVE",
"432 44 CURVE",
"433 47 OFFCURVE",
"440 57 OFFCURVE",
"451 74 CURVE SMOOTH",
"460 87 OFFCURVE",
"464 97 OFFCURVE",
"464 103 CURVE SMOOTH",
"464 122 OFFCURVE",
"453 132 OFFCURVE",
"431 132 CURVE SMOOTH",
"426 132 OFFCURVE",
"420 131 OFFCURVE",
"413 128 CURVE SMOOTH",
"404 124 OFFCURVE",
"398 123 OFFCURVE",
"395 122 CURVE SMOOTH",
"361 111 OFFCURVE",
"324 108 OFFCURVE",
"324 65 CURVE SMOOTH",
"324 49 OFFCURVE",
"328 36 OFFCURVE",
"337 26 CURVE",
"294 26 OFFCURVE",
"251 35 OFFCURVE",
"207 53 CURVE",
"214 71 OFFCURVE",
"217 92 OFFCURVE",
"217 115 CURVE SMOOTH",
"217 143 OFFCURVE",
"208 181 OFFCURVE",
"190 228 CURVE SMOOTH",
"172 274 OFFCURVE",
"163 309 OFFCURVE",
"163 330 CURVE SMOOTH",
"163 348 OFFCURVE",
"177 416 OFFCURVE",
"177 436 CURVE SMOOTH",
"177 490 OFFCURVE",
"156 529 OFFCURVE",
"113 552 CURVE"
);
},
{
closed = 1;
nodes = (
"646 518 OFFCURVE",
"659 533 OFFCURVE",
"685 557 CURVE SMOOTH",
"704 575 OFFCURVE",
"715 592 OFFCURVE",
"720 608 CURVE",
"731 608 OFFCURVE",
"752 607 OFFCURVE",
"785 606 CURVE SMOOTH",
"814 605 OFFCURVE",
"836 605 OFFCURVE",
"853 606 CURVE SMOOTH",
"877 606 OFFCURVE",
"898 608 OFFCURVE",
"917 612 CURVE",
"912 585 OFFCURVE",
"909 566 OFFCURVE",
"909 553 CURVE SMOOTH",
"909 541 OFFCURVE",
"917 516 OFFCURVE",
"917 504 CURVE SMOOTH",
"917 495 LINE",
"909 494 OFFCURVE",
"902 493 OFFCURVE",
"895 492 CURVE",
"898 501 OFFCURVE",
"899 509 OFFCURVE",
"899 517 CURVE SMOOTH",
"899 552 OFFCURVE",
"881 569 OFFCURVE",
"846 569 CURVE SMOOTH",
"798 569 OFFCURVE",
"763 530 OFFCURVE",
"762 481 CURVE",
"739 482 OFFCURVE",
"727 474 OFFCURVE",
"727 456 CURVE SMOOTH",
"727 451 OFFCURVE",
"731 437 OFFCURVE",
"740 414 CURVE",
"732 405 LINE",
"732 399 OFFCURVE",
"757 396 OFFCURVE",
"806 396 CURVE",
"814 371 OFFCURVE",
"816 339 OFFCURVE",
"856 339 CURVE SMOOTH",
"879 339 OFFCURVE",
"894 350 OFFCURVE",
"901 373 CURVE",
"898 332 OFFCURVE",
"899 299 OFFCURVE",
"904 272 CURVE",
"893 272 OFFCURVE",
"859 266 OFFCURVE",
"846 267 CURVE SMOOTH",
"840 267 LINE",
"818 290 OFFCURVE",
"805 303 OFFCURVE",
"802 306 CURVE SMOOTH",
"789 319 OFFCURVE",
"770 323 OFFCURVE",
"751 323 CURVE SMOOTH",
"719 323 OFFCURVE",
"696 314 OFFCURVE",
"681 295 CURVE",
"682 311 OFFCURVE",
"683 327 OFFCURVE",
"683 342 CURVE SMOOTH",
"683 407 OFFCURVE",
"670 464 OFFCURVE",
"643 513 CURVE"
);
},
{
closed = 1;
nodes = (
"553 175 OFFCURVE",
"553 191 OFFCURVE",
"553 203 CURVE",
"604 211 OFFCURVE",
"629 234 OFFCURVE",
"629 272 CURVE SMOOTH",
"629 347 LINE SMOOTH",
"629 361 OFFCURVE",
"625 374 OFFCURVE",
"618 386 CURVE",
"633 400 OFFCURVE",
"641 415 OFFCURVE",
"641 431 CURVE SMOOTH",
"641 433 LINE",
"654 398 OFFCURVE",
"660 359 OFFCURVE",
"660 315 CURVE SMOOTH",
"660 274 OFFCURVE",
"656 244 OFFCURVE",
"648 223 CURVE",
"645 220 OFFCURVE",
"643 218 OFFCURVE",
"640 217 CURVE SMOOTH",
"609 207 OFFCURVE",
"593 179 OFFCURVE",
"589 143 CURVE",
"577 131 OFFCURVE",
"564 120 OFFCURVE",
"550 109 CURVE",
"550 116 OFFCURVE",
"551 132 OFFCURVE",
"552 156 CURVE SMOOTH"
);
},
{
closed = 1;
nodes = (
"534 59 LINE SMOOTH",
"539 62 OFFCURVE",
"543 63 OFFCURVE",
"546 66 CURVE",
"563 76 OFFCURVE",
"578 88 OFFCURVE",
"591 101 CURVE",
"597 76 OFFCURVE",
"608 56 OFFCURVE",
"625 42 CURVE",
"605 43 OFFCURVE",
"549 51 OFFCURVE",
"525 51 CURVE SMOOTH",
"518 51 LINE"
);
}
);
width = 984;
}
);
note = OE;
unicode = 0152;
},
{
glyphname = P;
lastChange = "2021-11-18 14:34:11 +0000";
layers = (
{
layerId = "F72AA8BB-7F63-4F07-AEAC-030E55A5CABB";
paths = (
{
closed = 1;
nodes = (
"20 544 OFFCURVE",
"23 454 OFFCURVE",
"26 334 CURVE SMOOTH",
"29 214 OFFCURVE",
"30 124 OFFCURVE",
"33 63 CURVE SMOOTH",
"35 15 OFFCURVE",
"39 -9 OFFCURVE",
"46 -9 CURVE SMOOTH",
"61 -9 OFFCURVE",
"100 6 OFFCURVE",
"117 7 CURVE SMOOTH",
"140 8 OFFCURVE",
"219 -1 OFFCURVE",
"241 0 CURVE SMOOTH",
"266 1 OFFCURVE",
"279 9 OFFCURVE",
"278 25 CURVE SMOOTH",
"278 34 OFFCURVE",
"271 57 OFFCURVE",
"271 68 CURVE SMOOTH",
"270 86 OFFCURVE",
"273 112 OFFCURVE",
"277 145 CURVE SMOOTH",
"281 178 OFFCURVE",
"283 200 OFFCURVE",
"283 211 CURVE SMOOTH",
"282 236 OFFCURVE",
"270 248 OFFCURVE",
"247 247 CURVE SMOOTH",
"232 246 OFFCURVE",
"225 240 OFFCURVE",
"226 229 CURVE",
"231 210 OFFCURVE",
"235 195 OFFCURVE",
"239 186 CURVE SMOOTH",
"220 225 OFFCURVE",
"191 244 OFFCURVE",
"151 242 CURVE SMOOTH",
"128 241 OFFCURVE",
"108 231 OFFCURVE",
"93 212 CURVE SMOOTH",
"76 191 OFFCURVE",
"66 180 OFFCURVE",
"63 179 CURVE",
"61 228 LINE SMOOTH",
"60 263 OFFCURVE",
"59 289 OFFCURVE",
"59 306 CURVE",
"66 307 OFFCURVE",
"73 308 OFFCURVE",
"80 309 CURVE SMOOTH",
"92 309 OFFCURVE",
"121 298 OFFCURVE",
"134 298 CURVE SMOOTH",
"174 301 OFFCURVE",
"212 336 OFFCURVE",
"210 375 CURVE SMOOTH",
"209 390 OFFCURVE",
"202 407 OFFCURVE",
"189 425 CURVE SMOOTH",
"176 443 OFFCURVE",
"167 458 OFFCURVE",
"167 469 CURVE SMOOTH",
"167 506 OFFCURVE",
"161 531 OFFCURVE",
"153 543 CURVE SMOOTH",
"141 562 OFFCURVE",
"116 571 OFFCURVE",
"79 567 CURVE SMOOTH",
"69 566 LINE",
"72 579 OFFCURVE",
"74 588 OFFCURVE",
"75 594 CURVE",
"82 593 OFFCURVE",
"90 593 OFFCURVE",
"99 593 CURVE SMOOTH",
"112 593 OFFCURVE",
"130 595 OFFCURVE",
"155 598 CURVE SMOOTH",
"182 601 OFFCURVE",
"201 603 OFFCURVE",
"210 604 CURVE",
"241 555 OFFCURVE",
"285 532 OFFCURVE",
"343 534 CURVE SMOOTH",
"356 535 OFFCURVE",
"384 542 OFFCURVE",
"396 543 CURVE SMOOTH",
"424 543 OFFCURVE",
"438 514 OFFCURVE",
"454 491 CURVE",
"467 479 OFFCURVE",
"484 473 OFFCURVE",
"507 474 CURVE SMOOTH",
"517 475 OFFCURVE",
"525 476 OFFCURVE",
"530 477 CURVE",
"538 456 OFFCURVE",
"542 435 OFFCURVE",
"543 414 CURVE SMOOTH",
"545 367 OFFCURVE",
"531 326 OFFCURVE",
"500 289 CURVE SMOOTH",
"469 252 OFFCURVE",
"431 231 OFFCURVE",
"385 227 CURVE SMOOTH",
"337 223 LINE SMOOTH",
"312 220 OFFCURVE",
"299 215 OFFCURVE",
"299 209 CURVE SMOOTH",
"299 201 OFFCURVE",
"319 189 OFFCURVE",
"327 189 CURVE SMOOTH",
"449 194 OFFCURVE",
"517 226 OFFCURVE",
"563 344 CURVE SMOOTH",
"570 362 OFFCURVE",
"573 380 OFFCURVE",
"572 399 CURVE SMOOTH",
"564 552 OFFCURVE",
"472 646 OFFCURVE",
"319 641 CURVE",
"261 636 OFFCURVE",
"218 631 OFFCURVE",
"189 626 CURVE",
"135 623 OFFCURVE",
"95 622 OFFCURVE",
"68 621 CURVE",
"61 629 OFFCURVE",
"50 633 OFFCURVE",
"36 632 CURVE SMOOTH",
"23 631 OFFCURVE",
"17 622 OFFCURVE",
"18 604 CURVE SMOOTH"
);
},
{
closed = 1;
nodes = (
"217 451 OFFCURVE",
"222 445 OFFCURVE",
"232 442 CURVE",
"234 442 LINE",
"237 429 LINE",
"237 398 LINE SMOOTH",
"238 384 OFFCURVE",
"241 375 OFFCURVE",
"248 371 CURVE",
"257 394 OFFCURVE",
"263 416 OFFCURVE",
"268 439 CURVE",
"314 440 OFFCURVE",
"338 429 OFFCURVE",
"339 405 CURVE SMOOTH",
"339 384 OFFCURVE",
"319 360 OFFCURVE",
"296 360 CURVE",
"295 359 OFFCURVE",
"260 362 OFFCURVE",
"248 362 CURVE SMOOTH",
"238 361 OFFCURVE",
"233 360 OFFCURVE",
"233 357 CURVE SMOOTH",
"234 343 OFFCURVE",
"252 337 OFFCURVE",
"288 338 CURVE SMOOTH",
"305 338 OFFCURVE",
"318 341 OFFCURVE",
"328 346 CURVE",
"327 329 OFFCURVE",
"326 317 OFFCURVE",
"324 309 CURVE",
"325 277 OFFCURVE",
"354 257 OFFCURVE",
"387 258 CURVE SMOOTH",
"432 259 OFFCURVE",
"467 288 OFFCURVE",
"465 333 CURVE SMOOTH",
"464 358 OFFCURVE",
"452 376 OFFCURVE",
"429 386 CURVE SMOOTH",
"405 396 OFFCURVE",
"393 407 OFFCURVE",
"393 419 CURVE SMOOTH",
"392 449 OFFCURVE",
"379 463 OFFCURVE",
"354 460 CURVE SMOOTH",
"349 460 LINE",
"344 463 OFFCURVE",
"326 468 OFFCURVE",
"294 475 CURVE SMOOTH",
"262 482 OFFCURVE",
"243 485 OFFCURVE",
"237 484 CURVE SMOOTH",
"228 484 OFFCURVE",
"216 467 OFFCURVE",
"217 458 CURVE SMOOTH"
);
}
);
width = 576;
}
);
note = P;
unicode = 0050;
},
{
glyphname = Thorn;
lastChange = "2021-11-18 14:34:11 +0000";
layers = (
{
layerId = "F72AA8BB-7F63-4F07-AEAC-030E55A5CABB";
paths = (
{
closed = 1;
nodes = (
"21 501 OFFCURVE",
"23 413 OFFCURVE",
"26 293 CURVE SMOOTH",
"29 173 OFFCURVE",
"32 127 OFFCURVE",
"35 66 CURVE SMOOTH",
"37 18 OFFCURVE",
"41 -6 OFFCURVE",
"48 -6 CURVE SMOOTH",
"63 -6 OFFCURVE",
"102 9 OFFCURVE",
"119 10 CURVE SMOOTH",
"142 11 OFFCURVE",
"221 2 OFFCURVE",
"243 3 CURVE SMOOTH",
"268 4 OFFCURVE",
"280 12 OFFCURVE",
"280 28 CURVE SMOOTH",
"280 55 OFFCURVE",
"269 83 OFFCURVE",
"277 104 CURVE SMOOTH",
"290 137 OFFCURVE",
"283 159 OFFCURVE",
"283 170 CURVE SMOOTH",
"282 195 OFFCURVE",
"270 207 OFFCURVE",
"247 206 CURVE SMOOTH",
"232 205 OFFCURVE",
"225 199 OFFCURVE",
"226 188 CURVE",
"231 169 OFFCURVE",
"235 154 OFFCURVE",
"239 145 CURVE SMOOTH",
"220 184 OFFCURVE",
"191 203 OFFCURVE",
"151 201 CURVE SMOOTH",
"128 200 OFFCURVE",
"108 190 OFFCURVE",
"93 171 CURVE SMOOTH",
"76 150 OFFCURVE",
"66 139 OFFCURVE",
"63 138 CURVE",
"61 187 LINE SMOOTH",
"60 222 OFFCURVE",
"59 248 OFFCURVE",
"59 265 CURVE",
"66 266 OFFCURVE",
"73 267 OFFCURVE",
"80 268 CURVE SMOOTH",
"92 268 OFFCURVE",
"121 257 OFFCURVE",
"134 257 CURVE SMOOTH",
"174 260 OFFCURVE",
"212 295 OFFCURVE",
"210 334 CURVE SMOOTH",
"209 349 OFFCURVE",
"202 366 OFFCURVE",
"189 384 CURVE SMOOTH",
"176 402 OFFCURVE",
"167 417 OFFCURVE",
"167 428 CURVE SMOOTH",
"167 465 OFFCURVE",
"161 490 OFFCURVE",
"153 502 CURVE SMOOTH",
"141 521 OFFCURVE",
"116 530 OFFCURVE",
"79 526 CURVE SMOOTH",
"69 525 LINE",
"72 538 OFFCURVE",
"65 585 OFFCURVE",
"66 591 CURVE",
"45 657 OFFCURVE",
"73 656 OFFCURVE",
"111 636 CURVE",
"123 634 OFFCURVE",
"157 697 OFFCURVE",
"175 680 CURVE SMOOTH",
"180 675 OFFCURVE",
"170 537 OFFCURVE",
"175 532 CURVE SMOOTH",
"192 515 OFFCURVE",
"206 563 OFFCURVE",
"210 563 CURVE",
"241 514 OFFCURVE",
"285 491 OFFCURVE",
"343 493 CURVE SMOOTH",
"356 494 OFFCURVE",
"384 501 OFFCURVE",
"396 502 CURVE SMOOTH",
"424 502 OFFCURVE",
"438 473 OFFCURVE",
"454 450 CURVE",
"467 438 OFFCURVE",
"484 432 OFFCURVE",
"507 433 CURVE SMOOTH",
"517 434 OFFCURVE",
"525 435 OFFCURVE",
"530 436 CURVE",
"538 415 OFFCURVE",
"542 394 OFFCURVE",
"543 373 CURVE SMOOTH",
"545 326 OFFCURVE",
"531 285 OFFCURVE",
"500 248 CURVE SMOOTH",
"469 211 OFFCURVE",
"431 190 OFFCURVE",
"385 186 CURVE SMOOTH",
"337 182 LINE SMOOTH",
"312 180 OFFCURVE",
"299 174 OFFCURVE",
"299 168 CURVE SMOOTH",
"299 160 OFFCURVE",
"319 148 OFFCURVE",
"327 148 CURVE SMOOTH",
"449 153 OFFCURVE",
"517 185 OFFCURVE",
"563 303 CURVE SMOOTH",
"570 321 OFFCURVE",
"573 339 OFFCURVE",
"572 358 CURVE SMOOTH",
"564 511 OFFCURVE",
"472 605 OFFCURVE",
"319 600 CURVE",
"279 597 OFFCURVE",
"246 593 OFFCURVE",
"220 590 CURVE",
"220 653 OFFCURVE",
"219 717 OFFCURVE",
"210 715 CURVE",
"173 731 OFFCURVE",
"59 726 OFFCURVE",
"13 715 CURVE",
"1 640 OFFCURVE",
"16 600 OFFCURVE",
"18 563 CURVE SMOOTH"
);
},
{
closed = 1;
nodes = (
"217 410 OFFCURVE",
"222 404 OFFCURVE",
"232 401 CURVE",
"234 401 LINE",
"237 388 LINE",
"237 357 LINE SMOOTH",
"237 343 OFFCURVE",
"241 334 OFFCURVE",
"248 330 CURVE",
"257 353 OFFCURVE",
"263 375 OFFCURVE",
"268 398 CURVE",
"314 399 OFFCURVE",
"338 388 OFFCURVE",
"339 364 CURVE SMOOTH",
"339 343 OFFCURVE",
"319 319 OFFCURVE",
"296 319 CURVE",
"295 318 OFFCURVE",
"260 321 OFFCURVE",
"248 321 CURVE SMOOTH",
"238 320 OFFCURVE",
"233 319 OFFCURVE",
"233 316 CURVE SMOOTH",
"234 302 OFFCURVE",
"252 296 OFFCURVE",
"288 297 CURVE SMOOTH",
"305 297 OFFCURVE",
"318 300 OFFCURVE",
"328 305 CURVE",
"327 288 OFFCURVE",
"326 276 OFFCURVE",
"324 268 CURVE",
"325 236 OFFCURVE",
"354 216 OFFCURVE",
"387 217 CURVE SMOOTH",
"432 218 OFFCURVE",
"467 247 OFFCURVE",
"465 292 CURVE SMOOTH",
"464 317 OFFCURVE",
"452 335 OFFCURVE",
"429 345 CURVE SMOOTH",
"405 355 OFFCURVE",
"393 366 OFFCURVE",
"393 378 CURVE SMOOTH",
"392 408 OFFCURVE",
"379 419 OFFCURVE",
"354 419 CURVE SMOOTH",
"349 419 LINE",
"344 422 OFFCURVE",
"326 427 OFFCURVE",
"294 434 CURVE SMOOTH",
"262 441 OFFCURVE",
"243 444 OFFCURVE",
"237 443 CURVE SMOOTH",
"228 443 OFFCURVE",
"216 426 OFFCURVE",
"217 417 CURVE SMOOTH"
);
}
);
width = 576;
}
);
unicode = 00DE;
},
{
glyphname = Q;
lastChange = "2021-11-18 14:34:11 +0000";
layers = (
{
layerId = "F72AA8BB-7F63-4F07-AEAC-030E55A5CABB";
paths = (
{
closed = 1;
nodes = (
"17 349 OFFCURVE",
"19 342 OFFCURVE",
"24 337 CURVE",
"28 337 OFFCURVE",
"32 344 OFFCURVE",
"35 359 CURVE SMOOTH",
"39 387 LINE",
"49 391 OFFCURVE",
"59 393 OFFCURVE",
"68 393 CURVE SMOOTH",
"81 393 OFFCURVE",
"98 388 OFFCURVE",
"119 377 CURVE SMOOTH",
"140 366 OFFCURVE",
"158 361 OFFCURVE",
"171 361 CURVE SMOOTH",
"204 361 OFFCURVE",
"227 373 OFFCURVE",
"238 398 CURVE",
"245 421 OFFCURVE",
"251 444 OFFCURVE",
"258 468 CURVE SMOOTH",
"265 492 OFFCURVE",
"280 504 OFFCURVE",
"305 504 CURVE SMOOTH",
"373 504 OFFCURVE",
"463 531 OFFCURVE",
"473 609 CURVE",
"552 584 OFFCURVE",
"568 575 OFFCURVE",
"614 506 CURVE",
"586 497 OFFCURVE",
"566 489 OFFCURVE",
"553 482 CURVE",
"522 479 OFFCURVE",
"490 483 OFFCURVE",
"466 452 CURVE",
"451 459 OFFCURVE",
"432 463 OFFCURVE",
"409 463 CURVE SMOOTH",
"390 463 OFFCURVE",
"373 461 OFFCURVE",
"360 456 CURVE",
"329 460 OFFCURVE",
"305 448 OFFCURVE",
"286 421 CURVE SMOOTH",
"270 398 OFFCURVE",
"261 370 OFFCURVE",
"261 339 CURVE SMOOTH",
"261 305 OFFCURVE",
"269 276 OFFCURVE",
"284 251 CURVE",
"268 252 OFFCURVE",
"222 267 OFFCURVE",
"202 267 CURVE SMOOTH",
"146 267 OFFCURVE",
"112 234 OFFCURVE",
"99 167 CURVE",
"66 210 OFFCURVE",
"49 246 OFFCURVE",
"49 275 CURVE SMOOTH",
"49 294 OFFCURVE",
"47 306 OFFCURVE",
"43 313 CURVE",
"35 312 OFFCURVE",
"31 300 OFFCURVE",
"31 275 CURVE SMOOTH",
"31 104 OFFCURVE",
"231 21 OFFCURVE",
"377 21 CURVE SMOOTH",
"400 21 OFFCURVE",
"473 43 OFFCURVE",
"494 43 CURVE SMOOTH",
"498 43 OFFCURVE",
"507 31 OFFCURVE",
"522 6 CURVE SMOOTH",
"536 -18 OFFCURVE",
"547 -31 OFFCURVE",
"555 -31 CURVE SMOOTH",
"581 -31 OFFCURVE",
"738 51 OFFCURVE",
"738 65 CURVE SMOOTH",
"738 93 OFFCURVE",
"665 147 OFFCURVE",
"640 158 CURVE",
"679 219 OFFCURVE",
"698 281 OFFCURVE",
"698 342 CURVE SMOOTH",
"698 453 OFFCURVE",
"668 532 OFFCURVE",
"608 577 CURVE SMOOTH",
"541 628 OFFCURVE",
"425 661 OFFCURVE",
"341 661 CURVE SMOOTH",
"280 661 OFFCURVE",
"182 640 OFFCURVE",
"136 598 CURVE SMOOTH",
"73 541 OFFCURVE",
"17 443 OFFCURVE",
"17 356 CURVE SMOOTH"
);
},
{
closed = 1;
nodes = (
"388 294 LINE SMOOTH",
"434 314 OFFCURVE",
"458 325 OFFCURVE",
"460 325 CURVE SMOOTH",
"466 325 OFFCURVE",
"477 314 OFFCURVE",
"492 291 CURVE SMOOTH",
"509 266 OFFCURVE",
"520 253 OFFCURVE",
"525 251 CURVE",
"533 251 OFFCURVE",
"542 263 OFFCURVE",
"542 271 CURVE SMOOTH",
"542 274 OFFCURVE",
"540 277 OFFCURVE",
"537 282 CURVE",
"546 299 OFFCURVE",
"551 318 OFFCURVE",
"550 339 CURVE SMOOTH",
"550 349 LINE",
"587 349 OFFCURVE",
"610 341 OFFCURVE",
"622 329 CURVE SMOOTH",
"625 326 OFFCURVE",
"634 303 OFFCURVE",
"648 262 CURVE",
"643 236 OFFCURVE",
"632 212 OFFCURVE",
"613 191 CURVE SMOOTH",
"593 169 OFFCURVE",
"584 156 OFFCURVE",
"584 152 CURVE SMOOTH",
"584 143 OFFCURVE",
"591 137 OFFCURVE",
"605 132 CURVE",
"612 132 OFFCURVE",
"619 136 OFFCURVE",
"627 143 CURVE",
"659 105 LINE SMOOTH",
"671 90 OFFCURVE",
"683 79 OFFCURVE",
"694 70 CURVE",
"691 67 OFFCURVE",
"688 65 OFFCURVE",
"687 65 CURVE",
"666 54 OFFCURVE",
"580 18 OFFCURVE",
"560 18 CURVE SMOOTH",
"546 18 OFFCURVE",
"539 30 OFFCURVE",
"539 53 CURVE SMOOTH",
"539 74 OFFCURVE",
"538 87 OFFCURVE",
"535 92 CURVE SMOOTH",
"531 99 OFFCURVE",
"518 103 OFFCURVE",
"497 103 CURVE SMOOTH",
"480 103 OFFCURVE",
"460 97 OFFCURVE",
"437 86 CURVE SMOOTH",
"404 70 OFFCURVE",
"385 61 OFFCURVE",
"380 59 CURVE",
"387 86 OFFCURVE",
"400 105 OFFCURVE",
"419 115 CURVE SMOOTH",
"465 135 LINE",
"480 144 OFFCURVE",
"487 162 OFFCURVE",
"487 189 CURVE SMOOTH",
"487 240 OFFCURVE",
"451 281 OFFCURVE",
"402 281 CURVE SMOOTH",
"394 281 OFFCURVE",
"386 280 OFFCURVE",
"379 278 CURVE",
"376 280 OFFCURVE",
"374 283 OFFCURVE",
"374 288 CURVE"
);
},
{
closed = 1;
nodes = (
"284 368 OFFCURVE",
"298 399 OFFCURVE",
"325 422 CURVE",
"322 414 OFFCURVE",
"323 410 OFFCURVE",
"327 410 CURVE SMOOTH",
"325 410 OFFCURVE",
"334 414 OFFCURVE",
"355 423 CURVE SMOOTH",
"375 431 OFFCURVE",
"392 435 OFFCURVE",
"407 435 CURVE SMOOTH",
"470 435 OFFCURVE",
"525 390 OFFCURVE",
"525 327 CURVE SMOOTH",
"525 320 OFFCURVE",
"523 312 OFFCURVE",
"520 301 CURVE",
"498 322 OFFCURVE",
"485 339 OFFCURVE",
"480 352 CURVE",
"472 356 LINE",
"454 356 OFFCURVE",
"345 309 OFFCURVE",
"345 298 CURVE SMOOTH",
"345 296 OFFCURVE",
"351 282 OFFCURVE",
"364 256 CURVE SMOOTH",
"388 208 LINE",
"326 228 OFFCURVE",
"284 260 OFFCURVE",
"284 330 CURVE SMOOTH"
);
}
);
width = 742;
}
);
note = Q;
unicode = 0051;
},
{
glyphname = R;
lastChange = "2021-11-18 14:34:11 +0000";
layers = (
{
anchors = (
{
name = bottom;
position = "{312, 0}";
},
{
name = top;
position = "{312, 650}";
}
);
layerId = "F72AA8BB-7F63-4F07-AEAC-030E55A5CABB";
paths = (
{
closed = 1;
nodes = (
"112 17 OFFCURVE",
"149 14 OFFCURVE",
"186 13 CURVE SMOOTH",
"218 12 OFFCURVE",
"231 11 OFFCURVE",
"225 11 CURVE SMOOTH",
"243 11 OFFCURVE",
"253 15 OFFCURVE",
"253 24 CURVE SMOOTH",
"253 47 OFFCURVE",
"249 102 OFFCURVE",
"250 125 CURVE SMOOTH",
"251 143 OFFCURVE",
"268 208 OFFCURVE",
"269 225 CURVE SMOOTH",
"270 248 OFFCURVE",
"262 260 OFFCURVE",
"243 261 CURVE SMOOTH",
"226 262 OFFCURVE",
"217 254 OFFCURVE",
"216 238 CURVE SMOOTH",
"215 218 OFFCURVE",
"225 151 OFFCURVE",
"224 130 CURVE",
"213 137 OFFCURVE",
"202 140 OFFCURVE",
"191 140 CURVE SMOOTH",
"172 141 OFFCURVE",
"152 138 OFFCURVE",
"130 132 CURVE SMOOTH",
"102 124 OFFCURVE",
"88 114 OFFCURVE",
"87 99 CURVE SMOOTH",
"86 83 OFFCURVE",
"96 69 OFFCURVE",
"116 58 CURVE",
"52 62 LINE SMOOTH",
"43 62 OFFCURVE",
"38 66 OFFCURVE",
"38 73 CURVE SMOOTH",
"43 130 OFFCURVE",
"47 174 OFFCURVE",
"50 203 CURVE",
"61 201 OFFCURVE",
"71 200 OFFCURVE",
"82 200 CURVE SMOOTH",
"142 200 OFFCURVE",
"190 233 OFFCURVE",
"194 294 CURVE SMOOTH",
"195 308 OFFCURVE",
"190 325 OFFCURVE",
"181 345 CURVE SMOOTH",
"172 366 OFFCURVE",
"167 380 OFFCURVE",
"167 390 CURVE SMOOTH",
"167 423 OFFCURVE",
"205 429 OFFCURVE",
"233 438 CURVE",
"235 420 OFFCURVE",
"237 402 OFFCURVE",
"238 384 CURVE SMOOTH",
"241 362 OFFCURVE",
"251 351 OFFCURVE",
"267 350 CURVE SMOOTH",
"291 349 OFFCURVE",
"307 348 OFFCURVE",
"315 350 CURVE SMOOTH",
"330 354 OFFCURVE",
"342 363 OFFCURVE",
"351 378 CURVE",
"360 383 OFFCURVE",
"365 391 OFFCURVE",
"364 403 CURVE",
"369 412 OFFCURVE",
"371 421 OFFCURVE",
"371 429 CURVE SMOOTH",
"372 445 OFFCURVE",
"368 453 OFFCURVE",
"361 453 CURVE SMOOTH",
"358 453 LINE",
"345 474 OFFCURVE",
"319 486 OFFCURVE",
"278 488 CURVE",
"290 511 OFFCURVE",
"315 527 OFFCURVE",
"353 537 CURVE SMOOTH",
"396 548 OFFCURVE",
"426 563 OFFCURVE",
"443 584 CURVE",
"472 571 OFFCURVE",
"493 554 OFFCURVE",
"506 535 CURVE",
"501 522 OFFCURVE",
"485 507 OFFCURVE",
"460 489 CURVE SMOOTH",
"439 474 OFFCURVE",
"427 454 OFFCURVE",
"426 427 CURVE SMOOTH",
"425 397 OFFCURVE",
"434 377 OFFCURVE",
"455 366 CURVE SMOOTH",
"459 364 OFFCURVE",
"482 358 OFFCURVE",
"524 348 CURVE",
"507 317 OFFCURVE",
"478 294 OFFCURVE",
"437 281 CURVE",
"431 292 OFFCURVE",
"425 297 OFFCURVE",
"420 297 CURVE SMOOTH",
"416 297 LINE",
"405 312 OFFCURVE",
"392 319 OFFCURVE",
"378 320 CURVE SMOOTH",
"337 323 OFFCURVE",
"308 292 OFFCURVE",
"305 249 CURVE SMOOTH",
"304 234 OFFCURVE",
"307 221 OFFCURVE",
"314 210 CURVE SMOOTH",
"326 191 OFFCURVE",
"332 180 OFFCURVE",
"333 178 CURVE SMOOTH",
"345 154 OFFCURVE",
"349 126 OFFCURVE",
"356 100 CURVE",
"368 76 OFFCURVE",
"394 63 OFFCURVE",
"435 61 CURVE SMOOTH",
"456 60 OFFCURVE",
"468 59 OFFCURVE",
"471 58 CURVE SMOOTH",
"482 54 OFFCURVE",
"492 47 OFFCURVE",
"500 34 CURVE",
"470 35 LINE SMOOTH",
"406 37 OFFCURVE",
"368 40 OFFCURVE",
"355 45 CURVE SMOOTH",
"341 50 OFFCURVE",
"332 63 OFFCURVE",
"326 85 CURVE SMOOTH",
"317 118 OFFCURVE",
"302 150 OFFCURVE",
"281 180 CURVE",
"273 176 LINE",
"268 167 LINE",
"268 161 OFFCURVE",
"275 137 OFFCURVE",
"289 95 CURVE SMOOTH",
"302 56 OFFCURVE",
"313 30 OFFCURVE",
"317 18 CURVE SMOOTH",
"320 9 OFFCURVE",
"328 4 OFFCURVE",
"339 3 CURVE SMOOTH",
"352 3 OFFCURVE",
"385 8 OFFCURVE",
"398 7 CURVE SMOOTH",
"505 2 OFFCURVE",
"566 0 OFFCURVE",
"582 1 CURVE",
"585 0 OFFCURVE",
"588 -1 OFFCURVE",
"591 -1 CURVE SMOOTH",
"606 -1 OFFCURVE",
"614 8 OFFCURVE",
"615 26 CURVE SMOOTH",
"617 55 OFFCURVE",
"486 219 OFFCURVE",
"458 252 CURVE",
"529 271 OFFCURVE",
"568 333 OFFCURVE",
"571 404 CURVE SMOOTH",
"574 485 OFFCURVE",
"549 545 OFFCURVE",
"494 586 CURVE SMOOTH",
"451 618 OFFCURVE",
"385 631 OFFCURVE",
"300 648 CURVE SMOOTH",
"295 649 OFFCURVE",
"225 652 OFFCURVE",
"90 660 CURVE SMOOTH",
"73 661 OFFCURVE",
"61 659 OFFCURVE",
"56 657 CURVE SMOOTH",
"47 653 OFFCURVE",
"42 643 OFFCURVE",
"41 627 CURVE SMOOTH",
"39 591 OFFCURVE",
"37 537 OFFCURVE",
"35 464 CURVE SMOOTH",
"32 371 OFFCURVE",
"29 279 OFFCURVE",
"16 187 CURVE SMOOTH",
"9 136 OFFCURVE",
"4 97 OFFCURVE",
"3 72 CURVE SMOOTH",
"2 43 OFFCURVE",
"26 25 OFFCURVE",
"75 18 CURVE"
);
},
{
closed = 1;
nodes = (
"268 449 OFFCURVE",
"270 452 OFFCURVE",
"275 452 CURVE SMOOTH",
"312 452 OFFCURVE",
"324 451 OFFCURVE",
"339 415 CURVE",
"331 388 OFFCURVE",
"314 374 OFFCURVE",
"288 376 CURVE SMOOTH",
"273 377 OFFCURVE",
"265 386 OFFCURVE",
"265 404 CURVE SMOOTH",
"265 412 OFFCURVE",
"267 433 OFFCURVE",
"267 440 CURVE SMOOTH"
);
}
);
width = 623;
}
);
note = R;
unicode = 0052;
},
{
glyphname = S;
lastChange = "2021-11-18 14:34:11 +0000";
layers = (
{
anchors = (
{
name = bottom;
position = "{304, 0}";
},
{
name = top;
position = "{306, 650}";
}
);
layerId = "F72AA8BB-7F63-4F07-AEAC-030E55A5CABB";
paths = (
{
closed = 1;
nodes = (
"13 79 OFFCURVE",
"14 74 OFFCURVE",
"16 69 CURVE SMOOTH",
"31 31 OFFCURVE",
"235 6 OFFCURVE",
"279 6 CURVE SMOOTH",
"422 6 OFFCURVE",
"544 85 OFFCURVE",
"544 239 CURVE SMOOTH",
"544 323 OFFCURVE",
"506 361 OFFCURVE",
"432 391 CURVE",
"398 402 OFFCURVE",
"364 413 OFFCURVE",
"331 425 CURVE SMOOTH",
"302 436 OFFCURVE",
"288 444 OFFCURVE",
"288 450 CURVE SMOOTH",
"288 458 OFFCURVE",
"304 462 OFFCURVE",
"337 462 CURVE SMOOTH",
"368 462 OFFCURVE",
"395 456 OFFCURVE",
"419 444 CURVE",
"423 427 OFFCURVE",
"432 419 OFFCURVE",
"445 419 CURVE SMOOTH",
"457 419 OFFCURVE",
"464 427 OFFCURVE",
"467 444 CURVE SMOOTH",
"473 479 OFFCURVE",
"481 507 OFFCURVE",
"494 529 CURVE",
"494 530 OFFCURVE",
"502 539 OFFCURVE",
"514 556 CURVE SMOOTH",
"523 569 OFFCURVE",
"528 578 OFFCURVE",
"528 584 CURVE SMOOTH",
"528 621 OFFCURVE",
"343 659 OFFCURVE",
"306 659 CURVE SMOOTH",
"166 659 OFFCURVE",
"38 564 OFFCURVE",
"38 416 CURVE SMOOTH",
"38 320 OFFCURVE",
"129 248 OFFCURVE",
"221 248 CURVE SMOOTH",
"235 248 OFFCURVE",
"242 250 OFFCURVE",
"242 254 CURVE SMOOTH",
"242 255 OFFCURVE",
"240 257 OFFCURVE",
"237 258 CURVE SMOOTH",
"223 263 OFFCURVE",
"180 272 OFFCURVE",
"164 281 CURVE SMOOTH",
"107 313 OFFCURVE",
"68 340 OFFCURVE",
"68 413 CURVE SMOOTH",
"68 421 OFFCURVE",
"69 429 OFFCURVE",
"70 438 CURVE",
"88 417 OFFCURVE",
"110 407 OFFCURVE",
"136 407 CURVE SMOOTH",
"170 407 OFFCURVE",
"211 422 OFFCURVE",
"215 461 CURVE SMOOTH",
"218 487 OFFCURVE",
"220 503 OFFCURVE",
"223 508 CURVE SMOOTH",
"231 521 OFFCURVE",
"252 536 OFFCURVE",
"288 551 CURVE SMOOTH",
"322 565 OFFCURVE",
"345 587 OFFCURVE",
"356 616 CURVE",
"380 614 OFFCURVE",
"404 610 OFFCURVE",
"427 603 CURVE",
"414 586 OFFCURVE",
"407 571 OFFCURVE",
"407 556 CURVE SMOOTH",
"407 531 OFFCURVE",
"419 510 OFFCURVE",
"444 493 CURVE",
"433 479 OFFCURVE",
"425 468 OFFCURVE",
"422 460 CURVE",
"393 481 OFFCURVE",
"361 492 OFFCURVE",
"326 492 CURVE SMOOTH",
"279 492 OFFCURVE",
"255 475 OFFCURVE",
"255 442 CURVE SMOOTH",
"255 434 OFFCURVE",
"258 425 OFFCURVE",
"263 414 CURVE",
"253 401 LINE",
"248 382 OFFCURVE",
"239 368 OFFCURVE",
"224 358 CURVE SMOOTH",
"208 348 OFFCURVE",
"201 336 OFFCURVE",
"201 323 CURVE SMOOTH",
"201 295 OFFCURVE",
"221 273 OFFCURVE",
"249 273 CURVE SMOOTH",
"262 273 OFFCURVE",
"273 281 OFFCURVE",
"284 298 CURVE SMOOTH",
"295 315 OFFCURVE",
"306 323 OFFCURVE",
"317 323 CURVE SMOOTH",
"326 323 OFFCURVE",
"353 315 OFFCURVE",
"364 315 CURVE SMOOTH",
"396 315 OFFCURVE",
"421 334 OFFCURVE",
"421 366 CURVE",
"447 356 OFFCURVE",
"466 342 OFFCURVE",
"477 325 CURVE",
"438 307 OFFCURVE",
"419 280 OFFCURVE",
"419 243 CURVE SMOOTH",
"419 232 OFFCURVE",
"421 207 OFFCURVE",
"421 198 CURVE SMOOTH",
"421 166 OFFCURVE",
"405 150 OFFCURVE",
"373 150 CURVE SMOOTH",
"333 150 OFFCURVE",
"302 141 OFFCURVE",
"281 124 CURVE SMOOTH",
"259 107 OFFCURVE",
"238 98 OFFCURVE",
"217 98 CURVE SMOOTH",
"204 98 OFFCURVE",
"170 104 OFFCURVE",
"155 104 CURVE SMOOTH",
"122 104 OFFCURVE",
"94 94 OFFCURVE",
"71 73 CURVE",
"62 76 OFFCURVE",
"58 83 OFFCURVE",
"58 92 CURVE SMOOTH",
"58 103 OFFCURVE",
"64 124 OFFCURVE",
"77 157 CURVE SMOOTH",
"94 199 OFFCURVE",
"103 222 OFFCURVE",
"104 225 CURVE",
"158 188 OFFCURVE",
"206 170 OFFCURVE",
"248 170 CURVE SMOOTH",
"276 170 OFFCURVE",
"314 192 OFFCURVE",
"314 219 CURVE SMOOTH",
"314 234 OFFCURVE",
"298 253 OFFCURVE",
"283 253 CURVE SMOOTH",
"272 253 OFFCURVE",
"266 251 OFFCURVE",
"266 246 CURVE SMOOTH",
"266 243 OFFCURVE",
"292 234 OFFCURVE",
"292 219 CURVE SMOOTH",
"292 202 OFFCURVE",
"276 194 OFFCURVE",
"243 194 CURVE SMOOTH",
"196 194 OFFCURVE",
"152 219 OFFCURVE",
"119 250 CURVE SMOOTH",
"105 263 OFFCURVE",
"96 269 OFFCURVE",
"92 269 CURVE SMOOTH",
"80 269 OFFCURVE",
"67 255 OFFCURVE",
"67 243 CURVE SMOOTH",
"67 236 OFFCURVE",
"73 221 OFFCURVE",
"73 216 CURVE SMOOTH",
"73 199 OFFCURVE",
"63 174 OFFCURVE",
"43 139 CURVE SMOOTH",
"23 103 OFFCURVE",
"13 85 OFFCURVE",
"13 83 CURVE SMOOTH"
);
}
);
width = 565;
}
);
note = S;
unicode = 0053;
},
{
glyphname = Germandbls;
lastChange = "2021-11-18 14:34:11 +0000";
layers = (
{
layerId = "F72AA8BB-7F63-4F07-AEAC-030E55A5CABB";
paths = (
{
closed = 1;
nodes = (
"-11 -182 OFFCURVE",
"11 -190 OFFCURVE",
"52 -187 CURVE SMOOTH",
"68 -186 OFFCURVE",
"84 -182 OFFCURVE",
"101 -171 CURVE SMOOTH",
"115 -161 OFFCURVE",
"130 -153 OFFCURVE",
"144 -143 CURVE",
"204 -111 OFFCURVE",
"266 -72 OFFCURVE",
"264 7 CURVE SMOOTH",
"264 28 OFFCURVE",
"263 49 OFFCURVE",
"263 71 CURVE SMOOTH",
"265 110 OFFCURVE",
"268 150 OFFCURVE",
"270 190 CURVE SMOOTH",
"273 236 OFFCURVE",
"272 275 OFFCURVE",
"270 308 CURVE SMOOTH",
"267 356 OFFCURVE",
"261 406 OFFCURVE",
"253 454 CURVE",
"260 464 OFFCURVE",
"265 471 OFFCURVE",
"264 477 CURVE",
"272 488 OFFCURVE",
"305 496 OFFCURVE",
"319 495 CURVE SMOOTH",
"339 493 OFFCURVE",
"349 477 OFFCURVE",
"351 450 CURVE SMOOTH",
"353 422 OFFCURVE",
"346 405 OFFCURVE",
"329 398 CURVE SMOOTH",
"305 388 OFFCURVE",
"295 367 OFFCURVE",
"298 334 CURVE SMOOTH",
"300 306 OFFCURVE",
"312 290 OFFCURVE",
"336 283 CURVE SMOOTH",
"356 277 OFFCURVE",
"371 271 OFFCURVE",
"378 264 CURVE SMOOTH",
"389 254 OFFCURVE",
"391 239 OFFCURVE",
"384 219 CURVE SMOOTH",
"378 201 OFFCURVE",
"328 186 OFFCURVE",
"310 185 CURVE SMOOTH",
"306 185 OFFCURVE",
"301 128 OFFCURVE",
"304 85 CURVE SMOOTH",
"307 48 OFFCURVE",
"313 28 OFFCURVE",
"323 26 CURVE SMOOTH",
"343 23 OFFCURVE",
"364 22 OFFCURVE",
"387 23 CURVE SMOOTH",
"439 27 OFFCURVE",
"486 42 OFFCURVE",
"527 67 CURVE SMOOTH",
"596 109 OFFCURVE",
"615 164 OFFCURVE",
"610 243 CURVE SMOOTH",
"606 295 OFFCURVE",
"574 363 OFFCURVE",
"527 385 CURVE",
"531 388 OFFCURVE",
"556 427 OFFCURVE",
"556 432 CURVE",
"565 454 OFFCURVE",
"568 480 OFFCURVE",
"566 511 CURVE SMOOTH",
"564 552 OFFCURVE",
"543 610 OFFCURVE",
"504 625 CURVE",
"435 675 OFFCURVE",
"359 673 OFFCURVE",
"279 668 CURVE SMOOTH",
"213 663 OFFCURVE",
"176 657 OFFCURVE",
"118 616 CURVE SMOOTH",
"66 579 OFFCURVE",
"42 551 OFFCURVE",
"34 476 CURVE",
"33 474 OFFCURVE",
"31 471 OFFCURVE",
"32 467 CURVE SMOOTH",
"41 332 OFFCURVE",
"29 188 OFFCURVE",
"40 33 CURVE SMOOTH",
"42 6 OFFCURVE",
"41 -17 OFFCURVE",
"39 -34 CURVE SMOOTH",
"30 -100 LINE SMOOTH",
"27 -122 OFFCURVE",
"26 -135 OFFCURVE",
"24 -140 CURVE",
"22 -142 LINE",
"-1 -145 OFFCURVE",
"-13 -153 OFFCURVE",
"-12 -165 CURVE SMOOTH"
);
},
{
closed = 1;
nodes = (
"224 515 OFFCURVE",
"238 535 OFFCURVE",
"259 545 CURVE",
"261 545 OFFCURVE",
"272 547 OFFCURVE",
"295 553 CURVE SMOOTH",
"334 562 OFFCURVE",
"348 575 OFFCURVE",
"359 616 CURVE SMOOTH",
"363 630 OFFCURVE",
"364 641 OFFCURVE",
"360 652 CURVE",
"445 645 OFFCURVE",
"536 615 OFFCURVE",
"543 509 CURVE SMOOTH",
"546 471 OFFCURVE",
"538 438 OFFCURVE",
"519 409 CURVE",
"509 401 OFFCURVE",
"502 395 OFFCURVE",
"498 391 CURVE",
"473 389 OFFCURVE",
"463 381 OFFCURVE",
"467 365 CURVE SMOOTH",
"470 352 OFFCURVE",
"485 346 OFFCURVE",
"509 346 CURVE SMOOTH",
"532 347 OFFCURVE",
"549 338 OFFCURVE",
"559 320 CURVE SMOOTH",
"582 277 OFFCURVE",
"593 247 OFFCURVE",
"593 231 CURVE SMOOTH",
"593 211 OFFCURVE",
"588 188 OFFCURVE",
"574 163 CURVE",
"564 166 OFFCURVE",
"555 171 OFFCURVE",
"550 178 CURVE",
"543 196 OFFCURVE",
"538 210 OFFCURVE",
"537 219 CURVE SMOOTH",
"531 246 OFFCURVE",
"516 264 OFFCURVE",
"494 273 CURVE SMOOTH",
"464 286 OFFCURVE",
"435 288 OFFCURVE",
"409 277 CURVE",
"400 293 OFFCURVE",
"392 305 OFFCURVE",
"384 315 CURVE",
"394 321 OFFCURVE",
"405 330 OFFCURVE",
"416 343 CURVE SMOOTH",
"430 360 OFFCURVE",
"432 378 OFFCURVE",
"428 397 CURVE SMOOTH",
"421 433 OFFCURVE",
"444 438 OFFCURVE",
"457 450 CURVE SMOOTH",
"466 458 OFFCURVE",
"468 468 OFFCURVE",
"466 480 CURVE SMOOTH",
"464 495 OFFCURVE",
"456 506 OFFCURVE",
"443 513 CURVE SMOOTH",
"427 522 OFFCURVE",
"411 524 OFFCURVE",
"397 516 CURVE SMOOTH",
"382 509 OFFCURVE",
"372 500 OFFCURVE",
"366 488 CURVE SMOOTH",
"365 487 OFFCURVE",
"365 486 OFFCURVE",
"365 485 CURVE",
"354 512 OFFCURVE",
"338 525 OFFCURVE",
"317 522 CURVE SMOOTH",
"271 516 OFFCURVE",
"246 501 OFFCURVE",
"242 482 CURVE",
"238 482 LINE",
"233 484 OFFCURVE",
"226 485 OFFCURVE",
"218 485 CURVE"
);
},
{
closed = 1;
nodes = (
"43 -158 OFFCURVE",
"49 -147 OFFCURVE",
"51 -134 CURVE SMOOTH",
"51 -132 OFFCURVE",
"52 -120 OFFCURVE",
"53 -96 CURVE",
"64 -70 OFFCURVE",
"67 -26 OFFCURVE",
"63 34 CURVE SMOOTH",
"58 102 OFFCURVE",
"55 170 OFFCURVE",
"53 240 CURVE",
"83 225 OFFCURVE",
"110 218 OFFCURVE",
"133 220 CURVE SMOOTH",
"177 223 OFFCURVE",
"209 255 OFFCURVE",
"229 314 CURVE",
"241 313 OFFCURVE",
"247 311 OFFCURVE",
"247 307 CURVE SMOOTH",
"249 274 OFFCURVE",
"251 235 OFFCURVE",
"247 189 CURVE SMOOTH",
"244 150 OFFCURVE",
"242 110 OFFCURVE",
"240 71 CURVE",
"222 79 OFFCURVE",
"204 81 OFFCURVE",
"188 80 CURVE SMOOTH",
"134 76 OFFCURVE",
"103 23 OFFCURVE",
"108 -41 CURVE SMOOTH",
"110 -69 OFFCURVE",
"119 -97 OFFCURVE",
"133 -122 CURVE",
"93 -147 LINE SMOOTH",
"77 -156 OFFCURVE",
"63 -161 OFFCURVE",
"50 -162 CURVE SMOOTH",
"45 -162 OFFCURVE",
"41 -163 OFFCURVE",
"35 -162 CURVE"
);
}
);
width = 613;
}
);
unicode = 1E9E;
},
{
glyphname = Schwa;
lastChange = "2021-11-18 14:34:11 +0000";
layers = (
{
layerId = "F72AA8BB-7F63-4F07-AEAC-030E55A5CABB";
paths = (
{
closed = 1;
nodes = (
"619 519 OFFCURVE",
"497 680 OFFCURVE",
"311 680 CURVE SMOOTH",
"231 680 OFFCURVE",
"161 653 OFFCURVE",
"103 599 CURVE SMOOTH",
"55 555 OFFCURVE",
"31 511 OFFCURVE",
"31 472 CURVE SMOOTH",
"31 455 OFFCURVE",
"37 447 OFFCURVE",
"50 446 CURVE SMOOTH",
"70 442 OFFCURVE",
"98 429 OFFCURVE",
"118 428 CURVE SMOOTH",
"167 421 OFFCURVE",
"203 415 OFFCURVE",
"228 410 CURVE SMOOTH",
"234 409 OFFCURVE",
"245 419 OFFCURVE",
"259 442 CURVE SMOOTH",
"274 465 OFFCURVE",
"294 474 OFFCURVE",
"322 471 CURVE SMOOTH",
"375 467 OFFCURVE",
"399 427 OFFCURVE",
"393 350 CURVE",
"301 354 OFFCURVE",
"249 355 OFFCURVE",
"235 356 CURVE SMOOTH",
"222 357 OFFCURVE",
"151 364 OFFCURVE",
"23 382 CURVE SMOOTH",
"-2 386 OFFCURVE",
"0 351 OFFCURVE",
"0 326 CURVE SMOOTH",
"0 157 OFFCURVE",
"103 9 OFFCURVE",
"281 -6 CURVE SMOOTH",
"364 -14 OFFCURVE",
"439 14 OFFCURVE",
"507 81 CURVE SMOOTH",
"582 156 OFFCURVE",
"619 244 OFFCURVE",
"619 343 CURVE SMOOTH"
);
},
{
closed = 1;
nodes = (
"465 256 OFFCURVE",
"427 264 OFFCURVE",
"393 276 CURVE",
"225 290 LINE SMOOTH",
"205 291 OFFCURVE",
"180 262 OFFCURVE",
"180 234 CURVE SMOOTH",
"180 212 OFFCURVE",
"196 197 OFFCURVE",
"226 185 CURVE SMOOTH",
"250 175 OFFCURVE",
"274 171 OFFCURVE",
"298 172 CURVE SMOOTH",
"324 172 OFFCURVE",
"358 150 OFFCURVE",
"358 122 CURVE SMOOTH",
"358 116 OFFCURVE",
"357 111 OFFCURVE",
"355 105 CURVE",
"333 70 OFFCURVE",
"312 28 OFFCURVE",
"283 31 CURVE SMOOTH",
"226 35 OFFCURVE",
"162 73 OFFCURVE",
"139 113 CURVE SMOOTH",
"135 122 OFFCURVE",
"133 134 OFFCURVE",
"136 148 CURVE SMOOTH",
"139 169 OFFCURVE",
"141 181 OFFCURVE",
"141 184 CURVE SMOOTH",
"141 204 OFFCURVE",
"120 230 OFFCURVE",
"82 269 CURVE SMOOTH",
"78 272 OFFCURVE",
"77 276 OFFCURVE",
"77 281 CURVE SMOOTH",
"77 301 OFFCURVE",
"121 331 OFFCURVE",
"145 327 CURVE SMOOTH",
"246 312 OFFCURVE",
"334 309 OFFCURVE",
"408 312 CURVE",
"421 311 OFFCURVE",
"436 325 OFFCURVE",
"453 357 CURVE SMOOTH",
"469 389 OFFCURVE",
"478 421 OFFCURVE",
"478 452 CURVE SMOOTH",
"478 496 OFFCURVE",
"461 517 OFFCURVE",
"429 517 CURVE SMOOTH",
"414 517 OFFCURVE",
"335 508 OFFCURVE",
"325 509 CURVE SMOOTH",
"276 515 OFFCURVE",
"241 492 OFFCURVE",
"219 448 CURVE",
"209 449 OFFCURVE",
"133 460 OFFCURVE",
"133 473 CURVE SMOOTH",
"133 477 OFFCURVE",
"156 484 OFFCURVE",
"203 495 CURVE SMOOTH",
"286 514 OFFCURVE",
"312 525 OFFCURVE",
"357 595 CURVE SMOOTH",
"370 616 OFFCURVE",
"382 625 OFFCURVE",
"395 625 CURVE SMOOTH",
"406 625 OFFCURVE",
"419 620 OFFCURVE",
"435 612 CURVE SMOOTH",
"525 563 OFFCURVE",
"582 459 OFFCURVE",
"582 344 CURVE SMOOTH",
"582 287 OFFCURVE",
"570 256 OFFCURVE",
"502 256 CURVE SMOOTH"
);
},
{
closed = 1;
nodes = (
"273 208 OFFCURVE",
"256 222 OFFCURVE",
"247 251 CURVE",
"359 241 LINE",
"343 220 OFFCURVE",
"323 209 OFFCURVE",
"298 209 CURVE SMOOTH"
);
}
);
width = 629;
}
);
unicode = 018F;
},
{
glyphname = T;
lastChange = "2021-11-18 14:34:38 +0000";
layers = (
{
anchors = (
{
name = bottom;
position = "{257, 21}";
},
{
name = center;
position = "{272, 327}";
},
{
name = top;
position = "{297, 659}";
}
);
layerId = "F72AA8BB-7F63-4F07-AEAC-030E55A5CABB";
paths = (
{
closed = 1;
nodes = (
"89 444 OFFCURVE",
"128 447 OFFCURVE",
"163 450 CURVE",
"150 426 OFFCURVE",
"147 397 OFFCURVE",
"146 370 CURVE SMOOTH",
"145 339 OFFCURVE",
"142 292 OFFCURVE",
"137 230 CURVE SMOOTH",
"132 168 OFFCURVE",
"128 121 OFFCURVE",
"127 90 CURVE SMOOTH",
"126 77 OFFCURVE",
"125 68 OFFCURVE",
"125 64 CURVE SMOOTH",
"125 30 OFFCURVE",
"143 28 OFFCURVE",
"171 27 CURVE SMOOTH",
"246 24 OFFCURVE",
"289 21 OFFCURVE",
"299 21 CURVE SMOOTH",
"353 21 OFFCURVE",
"380 26 OFFCURVE",
"381 37 CURVE SMOOTH",
"383 58 OFFCURVE",
"378 113 OFFCURVE",
"379 136 CURVE SMOOTH",
"379 137 OFFCURVE",
"379 146 OFFCURVE",
"381 165 CURVE SMOOTH",
"383 182 OFFCURVE",
"384 195 OFFCURVE",
"384 205 CURVE SMOOTH",
"384 222 OFFCURVE",
"382 232 OFFCURVE",
"377 236 CURVE",
"368 236 OFFCURVE",
"360 191 OFFCURVE",
"360 182 CURVE SMOOTH",
"357 123 OFFCURVE",
"355 92 OFFCURVE",
"353 87 CURVE SMOOTH",
"347 72 OFFCURVE",
"331 65 OFFCURVE",
"303 65 CURVE SMOOTH",
"295 65 OFFCURVE",
"284 65 OFFCURVE",
"271 66 CURVE",
"301 90 OFFCURVE",
"317 119 OFFCURVE",
"319 152 CURVE SMOOTH",
"320 167 OFFCURVE",
"306 200 OFFCURVE",
"308 213 CURVE SMOOTH",
"309 220 OFFCURVE",
"310 227 OFFCURVE",
"311 234 CURVE SMOOTH",
"312 242 OFFCURVE",
"312 249 OFFCURVE",
"309 256 CURVE SMOOTH",
"301 275 OFFCURVE",
"289 291 OFFCURVE",
"270 302 CURVE SMOOTH",
"247 315 OFFCURVE",
"232 326 OFFCURVE",
"227 333 CURVE SMOOTH",
"206 362 OFFCURVE",
"188 378 OFFCURVE",
"176 384 CURVE",
"179 413 OFFCURVE",
"182 435 OFFCURVE",
"184 450 CURVE",
"193 450 OFFCURVE",
"198 451 OFFCURVE",
"201 454 CURVE",
"200 473 OFFCURVE",
"192 483 OFFCURVE",
"178 484 CURVE SMOOTH",
"160 485 OFFCURVE",
"92 480 OFFCURVE",
"74 480 CURVE",
"68 481 OFFCURVE",
"65 483 OFFCURVE",
"65 488 CURVE SMOOTH",
"65 496 OFFCURVE",
"74 518 OFFCURVE",
"74 527 CURVE SMOOTH",
"74 555 LINE",
"105 532 OFFCURVE",
"135 520 OFFCURVE",
"164 519 CURVE SMOOTH",
"188 518 OFFCURVE",
"202 516 OFFCURVE",
"207 515 CURVE SMOOTH",
"224 512 OFFCURVE",
"233 501 OFFCURVE",
"234 485 CURVE SMOOTH",
"237 429 OFFCURVE",
"246 375 OFFCURVE",
"313 370 CURVE SMOOTH",
"326 369 OFFCURVE",
"345 374 OFFCURVE",
"370 385 CURVE",
"370 361 LINE",
"367 341 OFFCURVE",
"365 319 OFFCURVE",
"365 299 CURVE SMOOTH",
"365 284 OFFCURVE",
"367 276 OFFCURVE",
"371 276 CURVE SMOOTH",
"381 275 OFFCURVE",
"386 284 OFFCURVE",
"387 302 CURVE SMOOTH",
"387 328 OFFCURVE",
"387 354 OFFCURVE",
"388 379 CURVE SMOOTH",
"390 418 OFFCURVE",
"397 437 OFFCURVE",
"410 436 CURVE SMOOTH",
"430 434 OFFCURVE",
"478 421 OFFCURVE",
"498 420 CURVE SMOOTH",
"515 419 OFFCURVE",
"524 429 OFFCURVE",
"525 448 CURVE SMOOTH",
"534 616 LINE SMOOTH",
"536 645 OFFCURVE",
"523 660 OFFCURVE",
"498 661 CURVE SMOOTH",
"476 662 OFFCURVE",
"443 662 OFFCURVE",
"398 660 CURVE SMOOTH",
"353 658 OFFCURVE",
"320 658 OFFCURVE",
"297 659 CURVE SMOOTH",
"272 660 OFFCURVE",
"234 665 OFFCURVE",
"183 673 CURVE SMOOTH",
"131 681 OFFCURVE",
"93 685 OFFCURVE",
"68 687 CURVE SMOOTH",
"54 688 OFFCURVE",
"46 681 OFFCURVE",
"43 667 CURVE",
"35 590 OFFCURVE",
"31 527 OFFCURVE",
"29 480 CURVE SMOOTH",
"28 455 OFFCURVE",
"33 442 OFFCURVE",
"46 441 CURVE"
);
}
);
width = 544;
}
);
note = T;
unicode = 0054;
},
{
glyphname = U;
lastChange = "2021-11-18 14:34:11 +0000";
layers = (
{
anchors = (
{
name = bottom;
position = "{339, 7}";
},
{
name = ogonek;
position = "{515, 31}";
},
{
name = top;
position = "{309, 650}";
},
{
name = topright;
position = "{506, 650}";
}
);
layerId = "F72AA8BB-7F63-4F07-AEAC-030E55A5CABB";
paths = (
{
closed = 1;
nodes = (
"16 551 OFFCURVE",
"21 513 OFFCURVE",
"25 487 CURVE",
"30 406 OFFCURVE",
"35 326 OFFCURVE",
"40 246 CURVE SMOOTH",
"49 163 OFFCURVE",
"72 103 OFFCURVE",
"110 67 CURVE SMOOTH",
"157 22 OFFCURVE",
"234 1 OFFCURVE",
"339 7 CURVE SMOOTH",
"388 10 OFFCURVE",
"515 31 OFFCURVE",
"539 77 CURVE",
"590 97 OFFCURVE",
"616 154 OFFCURVE",
"616 247 CURVE SMOOTH",
"616 259 OFFCURVE",
"615 284 OFFCURVE",
"613 321 CURVE SMOOTH",
"609 411 LINE SMOOTH",
"606 479 OFFCURVE",
"598 530 OFFCURVE",
"596 564 CURVE SMOOTH",
"595 584 OFFCURVE",
"604 628 OFFCURVE",
"604 644 CURVE SMOOTH",
"603 655 OFFCURVE",
"597 660 OFFCURVE",
"585 661 CURVE SMOOTH",
"538 665 OFFCURVE",
"477 667 OFFCURVE",
"402 662 CURVE SMOOTH",
"369 660 OFFCURVE",
"354 635 OFFCURVE",
"357 586 CURVE SMOOTH",
"368 375 LINE SMOOTH",
"369 352 OFFCURVE",
"380 298 OFFCURVE",
"381 275 CURVE SMOOTH",
"382 248 OFFCURVE",
"368 221 OFFCURVE",
"343 220 CURVE SMOOTH",
"317 219 OFFCURVE",
"297 225 OFFCURVE",
"287 241 CURVE SMOOTH",
"279 254 OFFCURVE",
"274 274 OFFCURVE",
"272 301 CURVE SMOOTH",
"271 316 OFFCURVE",
"270 324 OFFCURVE",
"268 325 CURVE",
"261 324 OFFCURVE",
"260 310 OFFCURVE",
"261 283 CURVE SMOOTH",
"262 256 OFFCURVE",
"265 236 OFFCURVE",
"270 221 CURVE",
"264 200 OFFCURVE",
"249 185 OFFCURVE",
"226 178 CURVE SMOOTH",
"207 172 OFFCURVE",
"187 166 OFFCURVE",
"167 160 CURVE",
"147 149 OFFCURVE",
"136 128 OFFCURVE",
"135 98 CURVE",
"101 130 OFFCURVE",
"79 177 OFFCURVE",
"68 238 CURVE",
"89 230 OFFCURVE",
"110 227 OFFCURVE",
"133 228 CURVE SMOOTH",
"174 230 OFFCURVE",
"195 246 OFFCURVE",
"193 276 CURVE SMOOTH",
"192 295 OFFCURVE",
"168 335 OFFCURVE",
"167 355 CURVE SMOOTH",
"166 378 OFFCURVE",
"175 400 OFFCURVE",
"196 420 CURVE SMOOTH",
"216 439 OFFCURVE",
"225 461 OFFCURVE",
"224 486 CURVE SMOOTH",
"222 530 OFFCURVE",
"192 556 OFFCURVE",
"149 555 CURVE SMOOTH",
"115 554 OFFCURVE",
"94 556 OFFCURVE",
"87 562 CURVE SMOOTH",
"72 575 OFFCURVE",
"60 582 OFFCURVE",
"50 585 CURVE",
"48 594 LINE",
"99 599 OFFCURVE",
"138 601 OFFCURVE",
"164 604 CURVE SMOOTH",
"173 605 OFFCURVE",
"185 604 OFFCURVE",
"200 602 CURVE SMOOTH",
"217 600 OFFCURVE",
"229 599 OFFCURVE",
"236 599 CURVE",
"235 590 OFFCURVE",
"238 559 OFFCURVE",
"246 504 CURVE SMOOTH",
"254 452 OFFCURVE",
"260 420 OFFCURVE",
"265 408 CURVE",
"270 409 OFFCURVE",
"272 436 OFFCURVE",
"268 487 CURVE SMOOTH",
"267 499 OFFCURVE",
"267 517 OFFCURVE",
"268 541 CURVE SMOOTH",
"269 565 OFFCURVE",
"269 583 OFFCURVE",
"269 594 CURVE",
"267 601 LINE",
"278 603 OFFCURVE",
"283 607 OFFCURVE",
"282 614 CURVE SMOOTH",
"280 630 OFFCURVE",
"261 648 OFFCURVE",
"245 648 CURVE SMOOTH",
"227 647 OFFCURVE",
"157 632 OFFCURVE",
"136 631 CURVE SMOOTH",
"113 630 OFFCURVE",
"60 632 OFFCURVE",
"39 631 CURVE SMOOTH",
"19 630 OFFCURVE",
"9 620 OFFCURVE",
"10 601 CURVE SMOOTH"
);
},
{
closed = 1;
nodes = (
"384 616 OFFCURVE",
"389 620 OFFCURVE",
"398 621 CURVE SMOOTH",
"421 621 OFFCURVE",
"439 621 OFFCURVE",
"451 620 CURVE",
"451 615 LINE SMOOTH",
"451 599 OFFCURVE",
"448 577 OFFCURVE",
"437 550 CURVE SMOOTH",
"426 522 OFFCURVE",
"419 502 OFFCURVE",
"420 487 CURVE SMOOTH",
"423 436 OFFCURVE",
"460 397 OFFCURVE",
"509 400 CURVE SMOOTH",
"518 400 OFFCURVE",
"539 409 OFFCURVE",
"547 409 CURVE SMOOTH",
"560 409 OFFCURVE",
"572 398 OFFCURVE",
"583 390 CURVE",
"587 310 OFFCURVE",
"589 265 OFFCURVE",
"589 254 CURVE SMOOTH",
"589 173 OFFCURVE",
"578 125 OFFCURVE",
"555 109 CURVE",
"560 123 OFFCURVE",
"563 136 OFFCURVE",
"562 147 CURVE",
"557 143 OFFCURVE",
"554 139 OFFCURVE",
"552 136 CURVE SMOOTH",
"541 119 OFFCURVE",
"526 105 OFFCURVE",
"509 93 CURVE",
"474 87 OFFCURVE",
"456 80 OFFCURVE",
"456 72 CURVE",
"457 70 OFFCURVE",
"459 68 OFFCURVE",
"463 67 CURVE",
"440 58 OFFCURVE",
"415 51 OFFCURVE",
"389 47 CURVE",
"389 46 OFFCURVE",
"388 61 OFFCURVE",
"387 92 CURVE SMOOTH",
"386 122 OFFCURVE",
"399 143 OFFCURVE",
"426 155 CURVE",
"452 163 OFFCURVE",
"478 171 OFFCURVE",
"503 179 CURVE SMOOTH",
"531 190 OFFCURVE",
"544 210 OFFCURVE",
"542 237 CURVE SMOOTH",
"541 273 OFFCURVE",
"498 306 OFFCURVE",
"462 305 CURVE SMOOTH",
"451 304 OFFCURVE",
"424 294 OFFCURVE",
"412 294 CURVE SMOOTH",
"409 294 LINE",
"402 335 OFFCURVE",
"396 367 OFFCURVE",
"393 388 CURVE",
"382 585 LINE SMOOTH",
"381 598 OFFCURVE",
"381 606 OFFCURVE",
"382 609 CURVE SMOOTH"
);
}
);
width = 641;
}
);
note = U;
unicode = 0055;
},
{
glyphname = V;
lastChange = "2021-11-18 14:34:11 +0000";
layers = (
{
layerId = "F72AA8BB-7F63-4F07-AEAC-030E55A5CABB";
paths = (
{
closed = 1;
nodes = (
"99 375 OFFCURVE",
"112 336 OFFCURVE",
"127 285 CURVE SMOOTH",
"143 232 OFFCURVE",
"157 193 OFFCURVE",
"167 170 CURVE SMOOTH",
"176 149 OFFCURVE",
"187 139 OFFCURVE",
"199 138 CURVE SMOOTH",
"206 138 OFFCURVE",
"209 143 OFFCURVE",
"210 153 CURVE SMOOTH",
"210 165 OFFCURVE",
"205 183 OFFCURVE",
"196 206 CURVE",
"238 216 OFFCURVE",
"259 241 OFFCURVE",
"261 282 CURVE SMOOTH",
"262 305 OFFCURVE",
"251 332 OFFCURVE",
"230 364 CURVE SMOOTH",
"209 396 OFFCURVE",
"197 417 OFFCURVE",
"198 428 CURVE SMOOTH",
"198 440 OFFCURVE",
"209 465 OFFCURVE",
"209 477 CURVE SMOOTH",
"210 500 OFFCURVE",
"204 519 OFFCURVE",
"190 534 CURVE SMOOTH",
"182 543 OFFCURVE",
"166 554 OFFCURVE",
"143 569 CURVE SMOOTH",
"120 584 OFFCURVE",
"104 595 OFFCURVE",
"95 606 CURVE",
"119 605 OFFCURVE",
"177 609 OFFCURVE",
"201 609 CURVE SMOOTH",
"233 607 OFFCURVE",
"240 581 OFFCURVE",
"242 553 CURVE SMOOTH",
"246 527 OFFCURVE",
"257 488 OFFCURVE",
"273 436 CURVE SMOOTH",
"289 384 OFFCURVE",
"299 344 OFFCURVE",
"303 316 CURVE SMOOTH",
"312 254 OFFCURVE",
"321 223 OFFCURVE",
"332 222 CURVE SMOOTH",
"343 222 OFFCURVE",
"349 266 OFFCURVE",
"350 276 CURVE SMOOTH",
"350 286 OFFCURVE",
"349 297 OFFCURVE",
"348 310 CURVE",
"367 361 OFFCURVE",
"381 398 OFFCURVE",
"391 423 CURVE",
"407 400 OFFCURVE",
"429 387 OFFCURVE",
"458 386 CURVE SMOOTH",
"491 385 OFFCURVE",
"521 407 OFFCURVE",
"521 440 CURVE SMOOTH",
"522 451 OFFCURVE",
"518 469 OFFCURVE",
"508 493 CURVE SMOOTH",
"498 517 OFFCURVE",
"494 536 OFFCURVE",
"494 549 CURVE SMOOTH",
"494 576 OFFCURVE",
"507 596 OFFCURVE",
"532 609 CURVE",
"635 605 LINE",
"637 585 OFFCURVE",
"601 488 OFFCURVE",
"527 314 CURVE",
"514 316 OFFCURVE",
"503 317 OFFCURVE",
"492 317 CURVE SMOOTH",
"429 317 OFFCURVE",
"415 275 OFFCURVE",
"399 223 CURVE SMOOTH",
"390 192 OFFCURVE",
"374 173 OFFCURVE",
"366 157 CURVE SMOOTH",
"365 155 OFFCURVE",
"349 143 OFFCURVE",
"320 124 CURVE SMOOTH",
"305 114 OFFCURVE",
"295 96 OFFCURVE",
"290 69 CURVE",
"268 75 OFFCURVE",
"250 78 OFFCURVE",
"235 78 CURVE SMOOTH",
"213 79 OFFCURVE",
"202 70 OFFCURVE",
"201 49 CURVE SMOOTH",
"201 30 OFFCURVE",
"217 14 OFFCURVE",
"234 14 CURVE SMOOTH",
"246 13 OFFCURVE",
"279 14 OFFCURVE",
"333 15 CURVE SMOOTH",
"390 16 OFFCURVE",
"420 17 OFFCURVE",
"425 19 CURVE SMOOTH",
"429 21 OFFCURVE",
"434 27 OFFCURVE",
"438 40 CURVE SMOOTH",
"446 66 LINE SMOOTH",
"512 249 OFFCURVE",
"576 420 OFFCURVE",
"659 569 CURVE SMOOTH",
"664 578 OFFCURVE",
"670 588 OFFCURVE",
"676 598 CURVE SMOOTH",
"684 611 OFFCURVE",
"688 620 OFFCURVE",
"688 627 CURVE SMOOTH",
"689 634 OFFCURVE",
"683 638 OFFCURVE",
"672 638 CURVE SMOOTH",
"660 639 OFFCURVE",
"651 635 OFFCURVE",
"646 628 CURVE",
"556 636 OFFCURVE",
"493 639 OFFCURVE",
"456 638 CURVE SMOOTH",
"443 638 OFFCURVE",
"435 634 OFFCURVE",
"430 627 CURVE SMOOTH",
"427 623 OFFCURVE",
"425 614 OFFCURVE",
"420 599 CURVE SMOOTH",
"384 491 OFFCURVE",
"359 408 OFFCURVE",
"340 353 CURVE",
"309 466 OFFCURVE",
"287 550 OFFCURVE",
"272 607 CURVE SMOOTH",
"265 635 OFFCURVE",
"247 649 OFFCURVE",
"220 650 CURVE SMOOTH",
"203 651 OFFCURVE",
"177 653 OFFCURVE",
"143 658 CURVE SMOOTH",
"108 663 OFFCURVE",
"83 665 OFFCURVE",
"66 665 CURVE SMOOTH",
"23 667 OFFCURVE",
"1 654 OFFCURVE",
"0 627 CURVE SMOOTH",
"0 603 OFFCURVE",
"69 432 OFFCURVE",
"86 400 CURVE SMOOTH"
);
}
);
width = 663;
}
);
note = V;
unicode = 0056;
},
{
glyphname = W;
lastChange = "2021-11-18 14:34:11 +0000";
layers = (
{
anchors = (
{
name = bottom;
position = "{494, 0}";
},
{
name = top;
position = "{516, 650}";
}
);
layerId = "F72AA8BB-7F63-4F07-AEAC-030E55A5CABB";
paths = (
{
closed = 1;
nodes = (
"679 10 OFFCURVE",
"715 12 OFFCURVE",
"718 12 CURVE SMOOTH",
"769 12 OFFCURVE",
"799 27 OFFCURVE",
"806 46 CURVE SMOOTH",
"825 97 OFFCURVE",
"856 189 OFFCURVE",
"894 323 CURVE SMOOTH",
"928 442 OFFCURVE",
"961 533 OFFCURVE",
"989 596 CURVE SMOOTH",
"996 612 OFFCURVE",
"1000 623 OFFCURVE",
"1000 630 CURVE SMOOTH",
"999 643 OFFCURVE",
"987 651 OFFCURVE",
"962 652 CURVE SMOOTH",
"903 654 OFFCURVE",
"833 654 OFFCURVE",
"754 653 CURVE SMOOTH",
"731 653 OFFCURVE",
"716 633 OFFCURVE",
"713 593 CURVE SMOOTH",
"705 491 LINE",
"692 424 OFFCURVE",
"683 373 OFFCURVE",
"678 340 CURVE",
"670 368 OFFCURVE",
"659 413 OFFCURVE",
"648 475 CURVE SMOOTH",
"644 500 OFFCURVE",
"621 621 OFFCURVE",
"606 641 CURVE SMOOTH",
"599 650 OFFCURVE",
"589 654 OFFCURVE",
"576 654 CURVE SMOOTH",
"555 654 OFFCURVE",
"484 641 OFFCURVE",
"463 641 CURVE SMOOTH",
"444 640 OFFCURVE",
"432 640 OFFCURVE",
"427 638 CURVE SMOOTH",
"415 633 OFFCURVE",
"408 625 OFFCURVE",
"405 612 CURVE SMOOTH",
"392 556 OFFCURVE",
"382 513 OFFCURVE",
"375 483 CURVE SMOOTH",
"370 462 OFFCURVE",
"366 441 OFFCURVE",
"361 420 CURVE SMOOTH",
"353 387 OFFCURVE",
"347 368 OFFCURVE",
"344 364 CURVE",
"343 364 OFFCURVE",
"335 380 OFFCURVE",
"328 383 CURVE",
"322 383 OFFCURVE",
"319 377 OFFCURVE",
"319 364 CURVE SMOOTH",
"320 345 OFFCURVE",
"333 244 OFFCURVE",
"353 244 CURVE SMOOTH",
"378 245 OFFCURVE",
"391 256 OFFCURVE",
"390 277 CURVE SMOOTH",
"390 289 OFFCURVE",
"376 317 OFFCURVE",
"376 329 CURVE SMOOTH",
"376 328 OFFCURVE",
"380 347 OFFCURVE",
"388 388 CURVE",
"397 387 OFFCURVE",
"405 386 OFFCURVE",
"412 386 CURVE SMOOTH",
"458 386 OFFCURVE",
"472 400 OFFCURVE",
"479 443 CURVE SMOOTH",
"486 487 OFFCURVE",
"494 505 OFFCURVE",
"536 525 CURVE SMOOTH",
"567 540 OFFCURVE",
"585 549 OFFCURVE",
"591 554 CURVE",
"603 486 OFFCURVE",
"613 441 OFFCURVE",
"621 419 CURVE",
"603 402 OFFCURVE",
"594 380 OFFCURVE",
"595 354 CURVE SMOOTH",
"596 323 OFFCURVE",
"622 283 OFFCURVE",
"623 271 CURVE SMOOTH",
"623 254 OFFCURVE",
"609 213 OFFCURVE",
"610 196 CURVE SMOOTH",
"611 132 OFFCURVE",
"668 87 OFFCURVE",
"733 87 CURVE SMOOTH",
"748 88 OFFCURVE",
"762 90 OFFCURVE",
"777 95 CURVE",
"769 70 OFFCURVE",
"764 55 OFFCURVE",
"735 53 CURVE",
"691 54 OFFCURVE",
"658 58 OFFCURVE",
"636 58 CURVE SMOOTH",
"625 58 LINE SMOOTH",
"610 58 OFFCURVE",
"593 115 OFFCURVE",
"575 232 CURVE SMOOTH",
"557 348 OFFCURVE",
"540 406 OFFCURVE",
"525 406 CURVE SMOOTH",
"504 405 OFFCURVE",
"485 387 OFFCURVE",
"485 367 CURVE",
"496 330 OFFCURVE",
"508 301 OFFCURVE",
"519 278 CURVE",
"558 124 OFFCURVE",
"577 41 OFFCURVE",
"578 28 CURVE SMOOTH",
"579 15 OFFCURVE",
"590 9 OFFCURVE",
"611 9 CURVE SMOOTH"
);
},
{
closed = 1;
nodes = (
"848 327 OFFCURVE",
"841 345 OFFCURVE",
"835 372 CURVE SMOOTH",
"825 419 OFFCURVE",
"811 445 OFFCURVE",
"757 445 CURVE",
"748 444 OFFCURVE",
"738 443 OFFCURVE",
"727 442 CURVE",
"730 465 OFFCURVE",
"754 590 OFFCURVE",
"762 605 CURVE SMOOTH",
"763 607 LINE",
"767 607 OFFCURVE",
"775 583 OFFCURVE",
"775 578 CURVE SMOOTH",
"775 570 OFFCURVE",
"771 549 OFFCURVE",
"771 541 CURVE SMOOTH",
"771 509 OFFCURVE",
"799 488 OFFCURVE",
"832 488 CURVE SMOOTH",
"877 489 OFFCURVE",
"912 519 OFFCURVE",
"912 563 CURVE SMOOTH",
"911 592 OFFCURVE",
"898 610 OFFCURVE",
"872 617 CURVE",
"923 619 LINE SMOOTH",
"938 620 OFFCURVE",
"947 618 OFFCURVE",
"952 613 CURVE",
"951 610 OFFCURVE",
"919 511 OFFCURVE",
"855 317 CURVE"
);
},
{
closed = 1;
nodes = (
"413 2 LINE SMOOTH",
"444 2 OFFCURVE",
"464 15 OFFCURVE",
"472 40 CURVE SMOOTH",
"476 53 OFFCURVE",
"484 89 OFFCURVE",
"494 148 CURVE SMOOTH",
"504 207 OFFCURVE",
"509 242 OFFCURVE",
"508 255 CURVE SMOOTH",
"508 280 OFFCURVE",
"504 292 OFFCURVE",
"496 292 CURVE SMOOTH",
"493 292 OFFCURVE",
"487 281 OFFCURVE",
"482 258 CURVE SMOOTH",
"479 244 OFFCURVE",
"475 230 OFFCURVE",
"472 217 CURVE",
"460 226 OFFCURVE",
"446 240 OFFCURVE",
"434 240 CURVE SMOOTH",
"409 239 OFFCURVE",
"397 227 OFFCURVE",
"398 204 CURVE SMOOTH",
"398 179 OFFCURVE",
"420 108 OFFCURVE",
"443 97 CURVE",
"440 80 OFFCURVE",
"439 70 OFFCURVE",
"437 66 CURVE SMOOTH",
"432 55 OFFCURVE",
"425 50 OFFCURVE",
"414 50 CURVE SMOOTH",
"328 50 LINE",
"349 79 OFFCURVE",
"359 111 OFFCURVE",
"358 145 CURVE SMOOTH",
"358 172 OFFCURVE",
"346 196 OFFCURVE",
"323 218 CURVE SMOOTH",
"302 235 OFFCURVE",
"281 251 OFFCURVE",
"260 268 CURVE SMOOTH",
"237 288 OFFCURVE",
"226 310 OFFCURVE",
"225 333 CURVE SMOOTH",
"225 340 OFFCURVE",
"230 356 OFFCURVE",
"239 380 CURVE SMOOTH",
"248 403 OFFCURVE",
"251 423 OFFCURVE",
"251 438 CURVE SMOOTH",
"251 474 OFFCURVE",
"236 504 OFFCURVE",
"207 528 CURVE SMOOTH",
"178 552 OFFCURVE",
"146 563 OFFCURVE",
"111 559 CURVE SMOOTH",
"93 557 LINE",
"87 570 OFFCURVE",
"82 580 OFFCURVE",
"79 586 CURVE",
"79 590 OFFCURVE",
"80 592 OFFCURVE",
"82 593 CURVE",
"105 593 OFFCURVE",
"132 593 OFFCURVE",
"163 594 CURVE SMOOTH",
"207 595 OFFCURVE",
"234 596 OFFCURVE",
"245 596 CURVE SMOOTH",
"252 596 OFFCURVE",
"260 580 OFFCURVE",
"268 548 CURVE SMOOTH",
"276 516 OFFCURVE",
"284 500 OFFCURVE",
"292 500 CURVE SMOOTH",
"296 500 OFFCURVE",
"298 505 OFFCURVE",
"298 515 CURVE SMOOTH",
"298 535 OFFCURVE",
"278 597 OFFCURVE",
"278 616 CURVE SMOOTH",
"277 652 OFFCURVE",
"279 651 OFFCURVE",
"242 650 CURVE SMOOTH",
"221 650 OFFCURVE",
"190 648 OFFCURVE",
"148 643 CURVE SMOOTH",
"106 638 OFFCURVE",
"74 636 OFFCURVE",
"53 636 CURVE SMOOTH",
"29 635 OFFCURVE",
"17 626 OFFCURVE",
"17 608 CURVE SMOOTH",
"17 596 OFFCURVE",
"24 579 OFFCURVE",
"38 558 CURVE SMOOTH",
"54 533 OFFCURVE",
"63 516 OFFCURVE",
"66 508 CURVE SMOOTH",
"122 358 OFFCURVE",
"161 246 OFFCURVE",
"187 170 CURVE SMOOTH",
"190 161 OFFCURVE",
"197 140 OFFCURVE",
"211 105 CURVE SMOOTH",
"222 78 OFFCURVE",
"229 57 OFFCURVE",
"233 40 CURVE SMOOTH",
"239 13 OFFCURVE",
"254 0 OFFCURVE",
"277 0 CURVE SMOOTH"
);
},
{
closed = 1;
nodes = (
"316 431 OFFCURVE",
"322 446 OFFCURVE",
"322 451 CURVE SMOOTH",
"322 457 OFFCURVE",
"320 461 OFFCURVE",
"316 464 CURVE",
"303 469 LINE",
"298 469 OFFCURVE",
"295 466 OFFCURVE",
"295 459 CURVE SMOOTH",
"295 440 OFFCURVE",
"300 430 OFFCURVE",
"311 430 CURVE"
);
}
);
width = 988;
}
);
note = W;
unicode = 0057;
},
{
glyphname = X;
lastChange = "2021-11-18 14:34:11 +0000";
layers = (
{
layerId = "F72AA8BB-7F63-4F07-AEAC-030E55A5CABB";
paths = (
{
closed = 1;
nodes = (
"92 18 OFFCURVE",
"151 19 OFFCURVE",
"191 20 CURVE",
"256 16 LINE SMOOTH",
"273 15 OFFCURVE",
"292 36 OFFCURVE",
"312 77 CURVE SMOOTH",
"326 106 OFFCURVE",
"340 135 OFFCURVE",
"354 164 CURVE",
"357 153 OFFCURVE",
"389 101 OFFCURVE",
"391 86 CURVE",
"398 57 OFFCURVE",
"403 35 OFFCURVE",
"409 21 CURVE SMOOTH",
"412 14 OFFCURVE",
"438 14 OFFCURVE",
"485 5 CURVE SMOOTH",
"490 4 OFFCURVE",
"519 3 OFFCURVE",
"572 0 CURVE SMOOTH",
"606 -2 OFFCURVE",
"637 -1 OFFCURVE",
"664 4 CURVE",
"668 0 OFFCURVE",
"672 -2 OFFCURVE",
"677 -2 CURVE SMOOTH",
"694 -3 OFFCURVE",
"701 3 OFFCURVE",
"703 16 CURVE SMOOTH",
"705 30 OFFCURVE",
"531 274 OFFCURVE",
"516 276 CURVE SMOOTH",
"514 276 OFFCURVE",
"513 275 OFFCURVE",
"512 272 CURVE",
"512 266 OFFCURVE",
"533 228 OFFCURVE",
"575 159 CURVE SMOOTH",
"620 85 OFFCURVE",
"645 42 OFFCURVE",
"650 30 CURVE",
"601 32 OFFCURVE",
"564 33 OFFCURVE",
"539 34 CURVE SMOOTH",
"511 36 LINE",
"525 49 OFFCURVE",
"533 64 OFFCURVE",
"534 83 CURVE SMOOTH",
"535 107 OFFCURVE",
"506 135 OFFCURVE",
"507 147 CURVE SMOOTH",
"507 158 OFFCURVE",
"520 177 OFFCURVE",
"520 188 CURVE SMOOTH",
"521 207 OFFCURVE",
"500 224 OFFCURVE",
"480 225 CURVE SMOOTH",
"465 226 OFFCURVE",
"451 221 OFFCURVE",
"440 210 CURVE SMOOTH",
"418 188 OFFCURVE",
"422 148 OFFCURVE",
"420 143 CURVE SMOOTH",
"418 138 OFFCURVE",
"412 130 OFFCURVE",
"403 120 CURVE",
"382 161 OFFCURVE",
"371 182 OFFCURVE",
"370 183 CURVE",
"381 193 OFFCURVE",
"388 203 OFFCURVE",
"392 212 CURVE",
"393 223 OFFCURVE",
"374 236 OFFCURVE",
"362 236 CURVE",
"357 237 OFFCURVE",
"339 205 OFFCURVE",
"308 142 CURVE SMOOTH",
"277 79 OFFCURVE",
"253 47 OFFCURVE",
"236 48 CURVE SMOOTH",
"171 52 LINE",
"184 73 OFFCURVE",
"191 97 OFFCURVE",
"192 125 CURVE SMOOTH",
"192 139 LINE SMOOTH",
"193 170 OFFCURVE",
"208 194 OFFCURVE",
"237 209 CURVE SMOOTH",
"264 222 OFFCURVE",
"292 235 OFFCURVE",
"320 248 CURVE",
"350 269 OFFCURVE",
"365 302 OFFCURVE",
"368 347 CURVE SMOOTH",
"370 381 OFFCURVE",
"362 408 OFFCURVE",
"345 429 CURVE SMOOTH",
"334 442 OFFCURVE",
"314 455 OFFCURVE",
"287 468 CURVE SMOOTH",
"258 482 OFFCURVE",
"239 493 OFFCURVE",
"232 500 CURVE SMOOTH",
"224 508 OFFCURVE",
"217 525 OFFCURVE",
"209 554 CURVE SMOOTH",
"201 582 OFFCURVE",
"188 605 OFFCURVE",
"169 624 CURVE",
"212 623 OFFCURVE",
"245 623 OFFCURVE",
"268 622 CURVE SMOOTH",
"290 621 OFFCURVE",
"309 608 OFFCURVE",
"323 583 CURVE",
"353 513 LINE",
"344 499 OFFCURVE",
"340 488 OFFCURVE",
"340 481 CURVE SMOOTH",
"339 471 OFFCURVE",
"346 466 OFFCURVE",
"359 465 CURVE SMOOTH",
"374 464 OFFCURVE",
"403 500 OFFCURVE",
"433 579 CURVE SMOOTH",
"438 592 OFFCURVE",
"451 601 OFFCURVE",
"471 603 CURVE SMOOTH",
"479 604 OFFCURVE",
"496 603 OFFCURVE",
"521 602 CURVE",
"519 588 OFFCURVE",
"506 571 OFFCURVE",
"483 552 CURVE SMOOTH",
"459 532 OFFCURVE",
"446 509 OFFCURVE",
"445 483 CURVE SMOOTH",
"443 444 OFFCURVE",
"462 417 OFFCURVE",
"501 400 CURVE",
"473 372 LINE SMOOTH",
"459 358 OFFCURVE",
"453 347 OFFCURVE",
"452 340 CURVE SMOOTH",
"452 329 OFFCURVE",
"458 324 OFFCURVE",
"471 323 CURVE SMOOTH",
"486 322 OFFCURVE",
"505 338 OFFCURVE",
"528 371 CURVE SMOOTH",
"542 394 OFFCURVE",
"557 417 OFFCURVE",
"571 441 CURVE SMOOTH",
"574 446 OFFCURVE",
"596 476 OFFCURVE",
"638 531 CURVE SMOOTH",
"676 581 OFFCURVE",
"696 608 OFFCURVE",
"696 613 CURVE SMOOTH",
"696 637 OFFCURVE",
"660 634 OFFCURVE",
"585 633 CURVE SMOOTH",
"510 632 OFFCURVE",
"478 635 OFFCURVE",
"459 635 CURVE SMOOTH",
"431 635 OFFCURVE",
"414 628 OFFCURVE",
"408 614 CURVE SMOOTH",
"389 571 OFFCURVE",
"375 543 OFFCURVE",
"365 529 CURVE",
"348 576 OFFCURVE",
"334 611 OFFCURVE",
"326 635 CURVE SMOOTH",
"324 641 OFFCURVE",
"317 645 OFFCURVE",
"306 645 CURVE SMOOTH",
"282 645 OFFCURVE",
"198 648 OFFCURVE",
"174 649 CURVE SMOOTH",
"156 650 OFFCURVE",
"100 673 OFFCURVE",
"85 674 CURVE SMOOTH",
"59 676 OFFCURVE",
"47 666 OFFCURVE",
"44 645 CURVE SMOOTH",
"43 638 OFFCURVE",
"48 629 OFFCURVE",
"57 620 CURVE SMOOTH",
"70 607 OFFCURVE",
"76 600 OFFCURVE",
"78 597 CURVE SMOOTH",
"121 532 OFFCURVE",
"165 453 OFFCURVE",
"222 364 CURVE",
"195 335 OFFCURVE",
"21 94 OFFCURVE",
"12 69 CURVE",
"-4 68 OFFCURVE",
"-12 59 OFFCURVE",
"-13 42 CURVE SMOOTH",
"-14 28 OFFCURVE",
"-5 20 OFFCURVE",
"13 20 CURVE SMOOTH"
);
}
);
width = 699;
}
);
note = X;
unicode = 0058;
},
{
glyphname = Y;
lastChange = "2021-11-18 14:34:11 +0000";
layers = (
{
anchors = (
{
name = bottom;
position = "{363, -9}";
},
{
name = top;
position = "{354, 650}";
},
{
name = topleft;
position = "{20, 650}";
}
);
layerId = "F72AA8BB-7F63-4F07-AEAC-030E55A5CABB";
paths = (
{
closed = 1;
nodes = (
"12 603 OFFCURVE",
"19 594 OFFCURVE",
"34 591 CURVE",
"32 584 OFFCURVE",
"55 539 OFFCURVE",
"104 456 CURVE SMOOTH",
"142 391 OFFCURVE",
"170 344 OFFCURVE",
"188 316 CURVE",
"205 295 OFFCURVE",
"226 275 OFFCURVE",
"226 246 CURVE SMOOTH",
"226 225 OFFCURVE",
"225 193 OFFCURVE",
"222 150 CURVE SMOOTH",
"219 107 OFFCURVE",
"218 75 OFFCURVE",
"218 54 CURVE SMOOTH",
"218 -1 OFFCURVE",
"231 -15 OFFCURVE",
"286 -15 CURVE SMOOTH",
"307 -15 OFFCURVE",
"363 -9 OFFCURVE",
"384 -9 CURVE SMOOTH",
"399 -9 OFFCURVE",
"433 -13 OFFCURVE",
"445 -13 CURVE SMOOTH",
"477 -13 OFFCURVE",
"493 5 OFFCURVE",
"493 42 CURVE SMOOTH",
"493 66 OFFCURVE",
"490 103 OFFCURVE",
"484 152 CURVE SMOOTH",
"478 200 OFFCURVE",
"475 237 OFFCURVE",
"475 262 CURVE SMOOTH",
"475 267 OFFCURVE",
"510 326 OFFCURVE",
"580 439 CURVE SMOOTH",
"650 552 OFFCURVE",
"684 616 OFFCURVE",
"684 632 CURVE SMOOTH",
"684 651 OFFCURVE",
"664 660 OFFCURVE",
"623 660 CURVE SMOOTH",
"603 660 OFFCURVE",
"575 656 OFFCURVE",
"538 648 CURVE SMOOTH",
"500 640 OFFCURVE",
"473 636 OFFCURVE",
"454 636 CURVE SMOOTH",
"422 636 OFFCURVE",
"403 628 OFFCURVE",
"398 611 CURVE",
"382 571 LINE SMOOTH",
"375 553 OFFCURVE",
"371 540 OFFCURVE",
"371 532 CURVE SMOOTH",
"371 522 OFFCURVE",
"374 517 OFFCURVE",
"380 517 CURVE SMOOTH",
"394 517 OFFCURVE",
"406 529 OFFCURVE",
"415 554 CURVE SMOOTH",
"424 579 OFFCURVE",
"434 591 OFFCURVE",
"443 591 CURVE SMOOTH",
"453 591 LINE",
"453 575 OFFCURVE",
"462 537 OFFCURVE",
"462 522 CURVE SMOOTH",
"462 509 OFFCURVE",
"456 493 OFFCURVE",
"443 473 CURVE SMOOTH",
"430 453 OFFCURVE",
"423 433 OFFCURVE",
"423 413 CURVE SMOOTH",
"423 380 OFFCURVE",
"430 350 OFFCURVE",
"445 323 CURVE",
"437 306 OFFCURVE",
"433 281 OFFCURVE",
"433 249 CURVE SMOOTH",
"433 230 OFFCURVE",
"434 201 OFFCURVE",
"436 162 CURVE SMOOTH",
"438 122 OFFCURVE",
"438 93 OFFCURVE",
"438 74 CURVE SMOOTH",
"438 59 OFFCURVE",
"437 50 OFFCURVE",
"435 46 CURVE SMOOTH",
"432 39 OFFCURVE",
"424 35 OFFCURVE",
"411 36 CURVE SMOOTH",
"395 37 OFFCURVE",
"374 36 OFFCURVE",
"347 35 CURVE SMOOTH",
"314 34 OFFCURVE",
"293 34 OFFCURVE",
"283 34 CURVE SMOOTH",
"271 34 OFFCURVE",
"265 40 OFFCURVE",
"266 53 CURVE SMOOTH",
"267 73 LINE",
"354 73 OFFCURVE",
"398 111 OFFCURVE",
"398 187 CURVE SMOOTH",
"398 213 OFFCURVE",
"393 234 OFFCURVE",
"380 248 CURVE SMOOTH",
"375 253 OFFCURVE",
"364 262 OFFCURVE",
"346 275 CURVE SMOOTH",
"334 284 OFFCURVE",
"328 293 OFFCURVE",
"328 304 CURVE SMOOTH",
"328 347 OFFCURVE",
"289 381 OFFCURVE",
"246 381 CURVE SMOOTH",
"235 381 OFFCURVE",
"225 380 OFFCURVE",
"216 377 CURVE",
"180 449 OFFCURVE",
"136 519 OFFCURVE",
"83 588 CURVE",
"118 590 OFFCURVE",
"152 591 OFFCURVE",
"184 591 CURVE",
"181 568 OFFCURVE",
"203 544 OFFCURVE",
"203 529 CURVE SMOOTH",
"203 520 OFFCURVE",
"198 500 OFFCURVE",
"198 491 CURVE SMOOTH",
"198 459 OFFCURVE",
"225 439 OFFCURVE",
"258 439 CURVE SMOOTH",
"279 439 OFFCURVE",
"297 444 OFFCURVE",
"312 455 CURVE",
"323 416 OFFCURVE",
"337 396 OFFCURVE",
"355 396 CURVE SMOOTH",
"373 396 OFFCURVE",
"382 407 OFFCURVE",
"382 428 CURVE SMOOTH",
"382 429 OFFCURVE",
"370 457 OFFCURVE",
"346 514 CURVE SMOOTH",
"321 574 OFFCURVE",
"306 610 OFFCURVE",
"303 621 CURVE SMOOTH",
"300 632 OFFCURVE",
"289 637 OFFCURVE",
"273 637 CURVE SMOOTH",
"251 637 OFFCURVE",
"219 640 OFFCURVE",
"176 645 CURVE SMOOTH",
"132 650 OFFCURVE",
"100 653 OFFCURVE",
"79 653 CURVE SMOOTH",
"58 653 OFFCURVE",
"12 644 OFFCURVE",
"12 616 CURVE SMOOTH"
);
}
);
width = 683;
}
);
note = Y;
unicode = 0059;
},
{
glyphname = Z;
lastChange = "2021-11-18 14:34:11 +0000";
layers = (
{
anchors = (
{
name = bottom;
position = "{348, 0}";
},
{
name = center;
position = "{348, 325}";
},
{
name = top;
position = "{377, 650}";
}
);
layerId = "F72AA8BB-7F63-4F07-AEAC-030E55A5CABB";
paths = (
{
closed = 1;
nodes = (
"125 -5 OFFCURVE",
"196 -1 OFFCURVE",
"292 8 CURVE SMOOTH",
"387 16 OFFCURVE",
"458 22 OFFCURVE",
"505 24 CURVE SMOOTH",
"532 24 OFFCURVE",
"621 15 OFFCURVE",
"646 17 CURVE SMOOTH",
"666 17 OFFCURVE",
"675 27 OFFCURVE",
"675 46 CURVE SMOOTH",
"672 171 LINE SMOOTH",
"671 192 OFFCURVE",
"671 203 OFFCURVE",
"671 206 CURVE SMOOTH",
"668 238 OFFCURVE",
"659 254 OFFCURVE",
"642 253 CURVE SMOOTH",
"634 253 OFFCURVE",
"629 248 OFFCURVE",
"628 239 CURVE",
"586 246 OFFCURVE",
"541 249 OFFCURVE",
"493 246 CURVE SMOOTH",
"449 243 LINE",
"507 355 LINE SMOOTH",
"548 435 OFFCURVE",
"571 464 OFFCURVE",
"630 528 CURVE SMOOTH",
"655 556 OFFCURVE",
"689 593 OFFCURVE",
"690 633 CURVE SMOOTH",
"690 642 OFFCURVE",
"685 647 OFFCURVE",
"677 646 CURVE SMOOTH",
"623 641 OFFCURVE",
"563 567 OFFCURVE",
"501 417 CURVE",
"500 417 OFFCURVE",
"496 426 OFFCURVE",
"490 442 CURVE SMOOTH",
"484 458 OFFCURVE",
"471 466 OFFCURVE",
"452 465 CURVE SMOOTH",
"425 464 OFFCURVE",
"404 446 OFFCURVE",
"404 419 CURVE SMOOTH",
"404 410 OFFCURVE",
"411 399 OFFCURVE",
"423 387 CURVE SMOOTH",
"435 375 OFFCURVE",
"442 366 OFFCURVE",
"441 357 CURVE SMOOTH",
"443 345 OFFCURVE",
"422 310 OFFCURVE",
"424 291 CURVE SMOOTH",
"425 281 LINE",
"402 244 OFFCURVE",
"392 220 OFFCURVE",
"391 210 CURVE SMOOTH",
"392 197 OFFCURVE",
"397 191 OFFCURVE",
"407 191 CURVE SMOOTH",
"412 191 OFFCURVE",
"420 198 OFFCURVE",
"429 211 CURVE",
"445 200 OFFCURVE",
"471 196 OFFCURVE",
"504 197 CURVE SMOOTH",
"559 199 OFFCURVE",
"599 199 OFFCURVE",
"623 198 CURVE",
"623 173 OFFCURVE",
"621 147 OFFCURVE",
"619 122 CURVE SMOOTH",
"615 89 OFFCURVE",
"603 72 OFFCURVE",
"582 69 CURVE",
"523 136 OFFCURVE",
"463 169 OFFCURVE",
"404 167 CURVE SMOOTH",
"368 165 OFFCURVE",
"327 154 OFFCURVE",
"282 133 CURVE SMOOTH",
"236 111 OFFCURVE",
"200 86 OFFCURVE",
"175 59 CURVE",
"146 57 OFFCURVE",
"122 60 OFFCURVE",
"103 66 CURVE",
"141 120 OFFCURVE",
"170 163 OFFCURVE",
"187 194 CURVE",
"197 192 OFFCURVE",
"206 192 OFFCURVE",
"213 193 CURVE SMOOTH",
"228 194 OFFCURVE",
"243 201 OFFCURVE",
"256 216 CURVE SMOOTH",
"279 239 OFFCURVE",
"291 252 OFFCURVE",
"293 253 CURVE SMOOTH",
"329 275 OFFCURVE",
"344 304 OFFCURVE",
"343 327 CURVE SMOOTH",
"342 346 OFFCURVE",
"332 368 OFFCURVE",
"313 391 CURVE",
"349 425 OFFCURVE",
"366 447 OFFCURVE",
"366 458 CURVE SMOOTH",
"366 474 OFFCURVE",
"344 493 OFFCURVE",
"327 492 CURVE SMOOTH",
"320 491 OFFCURVE",
"312 489 OFFCURVE",
"304 484 CURVE SMOOTH",
"291 477 OFFCURVE",
"283 473 OFFCURVE",
"281 472 CURVE",
"267 497 OFFCURVE",
"248 510 OFFCURVE",
"221 512 CURVE SMOOTH",
"214 512 OFFCURVE",
"202 518 OFFCURVE",
"186 530 CURVE SMOOTH",
"170 541 OFFCURVE",
"152 544 OFFCURVE",
"135 543 CURVE SMOOTH",
"123 542 LINE",
"125 581 OFFCURVE",
"146 602 OFFCURVE",
"185 606 CURVE SMOOTH",
"194 607 OFFCURVE",
"205 607 OFFCURVE",
"220 606 CURVE SMOOTH",
"238 606 OFFCURVE",
"250 606 OFFCURVE",
"257 606 CURVE SMOOTH",
"284 608 OFFCURVE",
"312 592 OFFCURVE",
"340 561 CURVE SMOOTH",
"368 530 OFFCURVE",
"394 514 OFFCURVE",
"419 515 CURVE SMOOTH",
"468 518 OFFCURVE",
"515 562 OFFCURVE",
"506 609 CURVE SMOOTH",
"504 619 LINE",
"568 623 LINE SMOOTH",
"601 625 OFFCURVE",
"620 631 OFFCURVE",
"624 637 CURVE",
"623 645 OFFCURVE",
"613 650 OFFCURVE",
"593 651 CURVE SMOOTH",
"539 655 OFFCURVE",
"474 656 OFFCURVE",
"395 652 CURVE SMOOTH",
"329 649 OFFCURVE",
"263 644 OFFCURVE",
"198 642 CURVE SMOOTH",
"181 642 OFFCURVE",
"139 645 OFFCURVE",
"122 644 CURVE SMOOTH",
"110 644 OFFCURVE",
"101 641 OFFCURVE",
"92 638 CURVE SMOOTH",
"83 634 OFFCURVE",
"78 608 OFFCURVE",
"79 561 CURVE SMOOTH",
"79 547 OFFCURVE",
"79 517 OFFCURVE",
"81 471 CURVE SMOOTH",
"82 431 OFFCURVE",
"92 411 OFFCURVE",
"109 411 CURVE SMOOTH",
"122 411 OFFCURVE",
"143 416 OFFCURVE",
"171 423 CURVE SMOOTH",
"200 429 OFFCURVE",
"223 433 OFFCURVE",
"238 434 CURVE SMOOTH",
"261 434 OFFCURVE",
"275 432 OFFCURVE",
"279 425 CURVE",
"279 417 OFFCURVE",
"105 109 OFFCURVE",
"81 72 CURVE",
"74 74 OFFCURVE",
"68 74 OFFCURVE",
"63 74 CURVE SMOOTH",
"42 72 OFFCURVE",
"32 56 OFFCURVE",
"33 27 CURVE SMOOTH",
"34 4 OFFCURVE",
"49 -8 OFFCURVE",
"78 -7 CURVE SMOOTH"
);
}
);
width = 695;
}
);
note = Z;
unicode = 005A;
},
{
glyphname = a;
lastChange = "2021-11-18 14:28:15 +0000";
layers = (
{
anchors = (
{
name = bottom;
position = "{248, 0}";
},
{
name = ogonek;
position = "{545, 26}";
},
{
name = top;
position = "{212, 565}";
}
);
layerId = "F72AA8BB-7F63-4F07-AEAC-030E55A5CABB";
paths = (
{
closed = 1;
nodes = (
"14 57 OFFCURVE",
"70 -20 OFFCURVE",
"170 -20 CURVE SMOOTH",
"215 -20 OFFCURVE",
"252 -6 OFFCURVE",
"281 21 CURVE",
"297 42 OFFCURVE",
"307 56 OFFCURVE",
"310 65 CURVE SMOOTH",
"314 76 OFFCURVE",
"309 82 OFFCURVE",
"297 82 CURVE SMOOTH",
"289 82 OFFCURVE",
"283 78 OFFCURVE",
"280 71 CURVE SMOOTH",
"264 34 OFFCURVE",
"230 14 OFFCURVE",
"179 11 CURVE SMOOTH",
"168 10 OFFCURVE",
"153 15 OFFCURVE",
"136 26 CURVE SMOOTH",
"119 37 OFFCURVE",
"109 46 OFFCURVE",
"106 56 CURVE SMOOTH",
"105 61 OFFCURVE",
"110 65 OFFCURVE",
"122 67 CURVE SMOOTH",
"134 69 OFFCURVE",
"141 73 OFFCURVE",
"144 80 CURVE SMOOTH",
"154 104 OFFCURVE",
"158 125 OFFCURVE",
"158 142 CURVE SMOOTH",
"158 184 OFFCURVE",
"132 211 OFFCURVE",
"97 228 CURVE SMOOTH",
"82 235 OFFCURVE",
"75 242 OFFCURVE",
"75 247 CURVE SMOOTH",
"75 273 OFFCURVE",
"146 300 OFFCURVE",
"165 306 CURVE SMOOTH",
"172 308 OFFCURVE",
"190 312 OFFCURVE",
"220 318 CURVE SMOOTH",
"245 323 OFFCURVE",
"263 329 OFFCURVE",
"274 334 CURVE SMOOTH",
"285 339 OFFCURVE",
"290 355 OFFCURVE",
"290 384 CURVE SMOOTH",
"290 427 OFFCURVE",
"288 476 OFFCURVE",
"234 476 CURVE SMOOTH",
"201 476 OFFCURVE",
"183 455 OFFCURVE",
"181 413 CURVE",
"153 416 OFFCURVE",
"134 426 OFFCURVE",
"124 441 CURVE",
"103 452 OFFCURVE",
"93 463 OFFCURVE",
"93 474 CURVE SMOOTH",
"93 485 OFFCURVE",
"102 495 OFFCURVE",
"120 505 CURVE SMOOTH",
"152 523 OFFCURVE",
"194 533 OFFCURVE",
"245 536 CURVE SMOOTH",
"254 537 OFFCURVE",
"271 528 OFFCURVE",
"294 510 CURVE SMOOTH",
"321 489 OFFCURVE",
"334 470 OFFCURVE",
"334 452 CURVE SMOOTH",
"334 445 OFFCURVE",
"332 438 OFFCURVE",
"328 432 CURVE SMOOTH",
"315 413 OFFCURVE",
"309 394 OFFCURVE",
"309 373 CURVE SMOOTH",
"309 335 OFFCURVE",
"327 308 OFFCURVE",
"363 291 CURVE SMOOTH",
"368 289 OFFCURVE",
"378 289 OFFCURVE",
"391 294 CURVE SMOOTH",
"404 299 OFFCURVE",
"411 300 OFFCURVE",
"414 300 CURVE SMOOTH",
"420 300 OFFCURVE",
"423 296 OFFCURVE",
"423 289 CURVE SMOOTH",
"423 244 OFFCURVE",
"423 200 OFFCURVE",
"424 156 CURVE SMOOTH",
"427 103 OFFCURVE",
"441 65 OFFCURVE",
"466 42 CURVE",
"346 52 LINE SMOOTH",
"332 53 OFFCURVE",
"325 47 OFFCURVE",
"325 34 CURVE SMOOTH",
"325 25 OFFCURVE",
"327 20 OFFCURVE",
"332 20 CURVE SMOOTH",
"489 12 LINE SMOOTH",
"494 12 OFFCURVE",
"498 13 OFFCURVE",
"502 17 CURVE SMOOTH",
"506 21 OFFCURVE",
"506 25 OFFCURVE",
"504 28 CURVE SMOOTH",
"465 87 OFFCURVE",
"457 220 OFFCURVE",
"454 291 CURVE SMOOTH",
"450 366 OFFCURVE",
"446 414 OFFCURVE",
"443 433 CURVE SMOOTH",
"436 480 OFFCURVE",
"417 514 OFFCURVE",
"390 535 CURVE SMOOTH",
"358 560 OFFCURVE",
"309 571 OFFCURVE",
"243 567 CURVE SMOOTH",
"96 558 OFFCURVE",
"25 501 OFFCURVE",
"31 390 CURVE SMOOTH",
"32 379 OFFCURVE",
"37 374 OFFCURVE",
"47 375 CURVE",
"98 386 OFFCURVE",
"148 388 OFFCURVE",
"197 383 CURVE",
"208 383 OFFCURVE",
"213 388 OFFCURVE",
"212 399 CURVE SMOOTH",
"209 430 OFFCURVE",
"218 446 OFFCURVE",
"233 446 CURVE SMOOTH",
"238 446 OFFCURVE",
"244 444 OFFCURVE",
"250 439 CURVE",
"253 434 OFFCURVE",
"255 422 OFFCURVE",
"257 402 CURVE SMOOTH",
"259 383 OFFCURVE",
"258 369 OFFCURVE",
"256 360 CURVE",
"254 360 LINE",
"211 349 OFFCURVE",
"178 341 OFFCURVE",
"156 336 CURVE SMOOTH",
"105 321 OFFCURVE",
"68 297 OFFCURVE",
"43 264 CURVE SMOOTH",
"18 231 OFFCURVE",
"7 193 OFFCURVE",
"9 152 CURVE SMOOTH"
);
},
{
closed = 1;
nodes = (
"166 127 OFFCURVE",
"193 90 OFFCURVE",
"235 90 CURVE SMOOTH",
"267 90 OFFCURVE",
"287 106 OFFCURVE",
"296 138 CURVE",
"297 139 OFFCURVE",
"300 140 OFFCURVE",
"305 140 CURVE SMOOTH",
"323 140 LINE SMOOTH",
"356 140 OFFCURVE",
"383 155 OFFCURVE",
"383 191 CURVE SMOOTH",
"383 205 OFFCURVE",
"376 220 OFFCURVE",
"363 236 CURVE SMOOTH",
"350 252 OFFCURVE",
"342 262 OFFCURVE",
"342 267 CURVE SMOOTH",
"342 272 OFFCURVE",
"332 276 OFFCURVE",
"313 280 CURVE SMOOTH",
"294 284 OFFCURVE",
"281 285 OFFCURVE",
"275 283 CURVE SMOOTH",
"223 266 OFFCURVE",
"168 227 OFFCURVE",
"166 167 CURVE SMOOTH"
);
},
{
closed = 1;
nodes = (
"199 200 OFFCURVE",
"221 226 OFFCURVE",
"265 246 CURVE",
"266 209 OFFCURVE",
"267 183 OFFCURVE",
"268 168 CURVE SMOOTH",
"270 139 OFFCURVE",
"258 124 OFFCURVE",
"233 122 CURVE SMOOTH",
"222 121 OFFCURVE",
"214 125 OFFCURVE",
"207 134 CURVE SMOOTH",
"200 143 OFFCURVE",
"197 154 OFFCURVE",
"198 167 CURVE SMOOTH"
);
}
);
width = 495;
}
);
note = a;
unicode = 0061;
},
{
glyphname = ae;
lastChange = "2021-11-18 14:28:15 +0000";
layers = (
{
anchors = (
{
name = bottom;
position = "{472, 0}";
},
{
name = top;
position = "{472, 565}";
}
);
layerId = "F72AA8BB-7F63-4F07-AEAC-030E55A5CABB";
paths = (
{
closed = 1;
nodes = (
"383 205 OFFCURVE",
"376 220 OFFCURVE",
"363 236 CURVE SMOOTH",
"350 252 OFFCURVE",
"342 262 OFFCURVE",
"342 267 CURVE SMOOTH",
"342 272 OFFCURVE",
"332 276 OFFCURVE",
"313 280 CURVE SMOOTH",
"294 284 OFFCURVE",
"281 285 OFFCURVE",
"275 283 CURVE SMOOTH",
"223 266 OFFCURVE",
"168 227 OFFCURVE",
"166 167 CURVE SMOOTH",
"166 127 OFFCURVE",
"193 90 OFFCURVE",
"235 90 CURVE SMOOTH",
"267 90 OFFCURVE",
"287 106 OFFCURVE",
"296 138 CURVE",
"297 139 OFFCURVE",
"300 140 OFFCURVE",
"305 140 CURVE SMOOTH",
"323 140 LINE SMOOTH",
"356 140 OFFCURVE",
"383 155 OFFCURVE",
"383 191 CURVE SMOOTH"
);
},
{
closed = 1;
nodes = (
"222 121 OFFCURVE",
"214 125 OFFCURVE",
"207 134 CURVE SMOOTH",
"200 143 OFFCURVE",
"197 154 OFFCURVE",
"198 167 CURVE SMOOTH",
"199 200 OFFCURVE",
"221 226 OFFCURVE",
"265 246 CURVE",
"266 209 OFFCURVE",
"267 183 OFFCURVE",
"268 168 CURVE SMOOTH",
"270 139 OFFCURVE",
"258 124 OFFCURVE",
"233 122 CURVE SMOOTH"
);
},
{
closed = 1;
nodes = (
"453 297 OFFCURVE",
"453 315 OFFCURVE",
"453 318 CURVE",
"462 332 OFFCURVE",
"479 339 OFFCURVE",
"509 339 CURVE SMOOTH",
"540 339 OFFCURVE",
"571 332 OFFCURVE",
"600 322 CURVE",
"740 310 LINE SMOOTH",
"756 309 OFFCURVE",
"777 334 OFFCURVE",
"777 357 CURVE SMOOTH",
"777 375 OFFCURVE",
"764 388 OFFCURVE",
"739 398 CURVE SMOOTH",
"719 406 OFFCURVE",
"699 410 OFFCURVE",
"679 409 CURVE SMOOTH",
"657 409 OFFCURVE",
"629 427 OFFCURVE",
"629 451 CURVE SMOOTH",
"629 456 OFFCURVE",
"630 460 OFFCURVE",
"631 465 CURVE",
"650 494 OFFCURVE",
"667 529 OFFCURVE",
"691 527 CURVE SMOOTH",
"739 523 OFFCURVE",
"792 492 OFFCURVE",
"811 458 CURVE SMOOTH",
"815 451 OFFCURVE",
"816 441 OFFCURVE",
"814 429 CURVE SMOOTH",
"811 411 OFFCURVE",
"810 401 OFFCURVE",
"810 399 CURVE SMOOTH",
"810 382 OFFCURVE",
"827 360 OFFCURVE",
"859 328 CURVE SMOOTH",
"862 325 OFFCURVE",
"863 322 OFFCURVE",
"863 318 CURVE SMOOTH",
"863 301 OFFCURVE",
"826 276 OFFCURVE",
"806 279 CURVE SMOOTH",
"722 292 OFFCURVE",
"649 294 OFFCURVE",
"587 292 CURVE",
"576 293 OFFCURVE",
"564 281 OFFCURVE",
"550 254 CURVE SMOOTH",
"536 227 OFFCURVE",
"529 201 OFFCURVE",
"529 175 CURVE SMOOTH",
"529 138 OFFCURVE",
"543 120 OFFCURVE",
"570 120 CURVE SMOOTH",
"582 120 OFFCURVE",
"648 128 OFFCURVE",
"656 127 CURVE SMOOTH",
"697 122 OFFCURVE",
"726 141 OFFCURVE",
"745 178 CURVE",
"753 177 OFFCURVE",
"816 168 OFFCURVE",
"816 157 CURVE SMOOTH",
"816 154 OFFCURVE",
"797 148 OFFCURVE",
"758 139 CURVE SMOOTH",
"689 123 OFFCURVE",
"667 114 OFFCURVE",
"630 55 CURVE SMOOTH",
"619 38 OFFCURVE",
"609 30 OFFCURVE",
"598 30 CURVE SMOOTH",
"589 30 OFFCURVE",
"578 34 OFFCURVE",
"565 41 CURVE SMOOTH",
"538 56 OFFCURVE",
"515 76 OFFCURVE",
"486 125 CURVE",
"465 152 OFFCURVE",
"430 138 OFFCURVE",
"443 103 CURVE",
"450 85 OFFCURVE",
"457 50 OFFCURVE",
"466 42 CURVE",
"346 52 LINE SMOOTH",
"332 53 OFFCURVE",
"325 47 OFFCURVE",
"325 34 CURVE SMOOTH",
"325 25 OFFCURVE",
"327 20 OFFCURVE",
"332 20 CURVE SMOOTH",
"489 12 LINE SMOOTH",
"494 12 OFFCURVE",
"498 13 OFFCURVE",
"502 17 CURVE SMOOTH",
"506 21 OFFCURVE",
"506 25 OFFCURVE",
"504 28 CURVE SMOOTH",
"497 38 OFFCURVE",
"492 50 OFFCURVE",
"487 64 CURVE",
"531 15 OFFCURVE",
"593 -16 OFFCURVE",
"668 -16 CURVE SMOOTH",
"735 -16 OFFCURVE",
"793 7 OFFCURVE",
"841 52 CURVE SMOOTH",
"881 89 OFFCURVE",
"901 125 OFFCURVE",
"901 158 CURVE SMOOTH",
"901 172 OFFCURVE",
"896 179 OFFCURVE",
"885 180 CURVE SMOOTH",
"869 183 OFFCURVE",
"845 194 OFFCURVE",
"829 195 CURVE SMOOTH",
"788 201 OFFCURVE",
"758 206 OFFCURVE",
"737 210 CURVE SMOOTH",
"732 211 OFFCURVE",
"723 202 OFFCURVE",
"711 183 CURVE SMOOTH",
"699 164 OFFCURVE",
"682 156 OFFCURVE",
"659 159 CURVE SMOOTH",
"615 162 OFFCURVE",
"595 196 OFFCURVE",
"600 260 CURVE",
"676 257 OFFCURVE",
"720 256 OFFCURVE",
"731 255 CURVE SMOOTH",
"742 254 OFFCURVE",
"801 248 OFFCURVE",
"908 233 CURVE SMOOTH",
"929 230 OFFCURVE",
"927 259 OFFCURVE",
"927 280 CURVE SMOOTH",
"927 421 OFFCURVE",
"841 545 OFFCURVE",
"693 558 CURVE SMOOTH",
"624 564 OFFCURVE",
"561 541 OFFCURVE",
"505 485 CURVE SMOOTH",
"481 461 OFFCURVE",
"461 435 OFFCURVE",
"446 407 CURVE",
"445 418 OFFCURVE",
"444 427 OFFCURVE",
"443 433 CURVE SMOOTH",
"436 480 OFFCURVE",
"417 514 OFFCURVE",
"390 535 CURVE SMOOTH",
"358 560 OFFCURVE",
"309 571 OFFCURVE",
"243 567 CURVE SMOOTH",
"96 558 OFFCURVE",
"25 501 OFFCURVE",
"31 390 CURVE SMOOTH",
"32 379 OFFCURVE",
"37 374 OFFCURVE",
"47 375 CURVE",
"98 386 OFFCURVE",
"148 388 OFFCURVE",
"197 383 CURVE",
"208 383 OFFCURVE",
"213 388 OFFCURVE",
"212 399 CURVE SMOOTH",
"209 430 OFFCURVE",
"218 446 OFFCURVE",
"233 446 CURVE SMOOTH",
"238 446 OFFCURVE",
"244 444 OFFCURVE",
"250 439 CURVE",
"253 434 OFFCURVE",
"255 422 OFFCURVE",
"257 402 CURVE SMOOTH",
"259 383 OFFCURVE",
"258 369 OFFCURVE",
"256 360 CURVE",
"254 360 LINE",
"211 349 OFFCURVE",
"178 341 OFFCURVE",
"156 336 CURVE SMOOTH",
"105 321 OFFCURVE",
"68 297 OFFCURVE",
"43 264 CURVE SMOOTH",
"18 231 OFFCURVE",
"7 193 OFFCURVE",
"9 152 CURVE SMOOTH",
"14 57 OFFCURVE",
"70 -20 OFFCURVE",
"170 -20 CURVE SMOOTH",
"215 -20 OFFCURVE",
"252 -6 OFFCURVE",
"281 21 CURVE",
"297 42 OFFCURVE",
"307 56 OFFCURVE",
"310 65 CURVE SMOOTH",
"314 76 OFFCURVE",
"309 82 OFFCURVE",
"297 82 CURVE SMOOTH",
"289 82 OFFCURVE",
"283 78 OFFCURVE",
"280 71 CURVE SMOOTH",
"264 34 OFFCURVE",
"230 14 OFFCURVE",
"179 11 CURVE SMOOTH",
"168 10 OFFCURVE",
"153 15 OFFCURVE",
"136 26 CURVE SMOOTH",
"119 37 OFFCURVE",
"109 46 OFFCURVE",
"106 56 CURVE SMOOTH",
"105 61 OFFCURVE",
"110 65 OFFCURVE",
"122 67 CURVE SMOOTH",
"134 69 OFFCURVE",
"141 73 OFFCURVE",
"144 80 CURVE SMOOTH",
"154 104 OFFCURVE",
"158 125 OFFCURVE",
"158 142 CURVE SMOOTH",
"158 184 OFFCURVE",
"132 211 OFFCURVE",
"97 228 CURVE SMOOTH",
"82 235 OFFCURVE",
"75 242 OFFCURVE",
"75 247 CURVE SMOOTH",
"75 273 OFFCURVE",
"146 300 OFFCURVE",
"165 306 CURVE SMOOTH",
"172 308 OFFCURVE",
"190 312 OFFCURVE",
"220 318 CURVE SMOOTH",
"245 323 OFFCURVE",
"263 329 OFFCURVE",
"274 334 CURVE SMOOTH",
"285 339 OFFCURVE",
"290 355 OFFCURVE",
"290 384 CURVE SMOOTH",
"290 427 OFFCURVE",
"288 476 OFFCURVE",
"234 476 CURVE SMOOTH",
"201 476 OFFCURVE",
"183 455 OFFCURVE",
"181 413 CURVE",
"153 416 OFFCURVE",
"134 426 OFFCURVE",
"124 441 CURVE",
"103 452 OFFCURVE",
"93 463 OFFCURVE",
"93 474 CURVE SMOOTH",
"93 485 OFFCURVE",
"102 495 OFFCURVE",
"120 505 CURVE SMOOTH",
"152 523 OFFCURVE",
"194 533 OFFCURVE",
"245 536 CURVE SMOOTH",
"254 537 OFFCURVE",
"271 528 OFFCURVE",
"294 510 CURVE SMOOTH",
"321 489 OFFCURVE",
"334 470 OFFCURVE",
"334 452 CURVE SMOOTH",
"334 445 OFFCURVE",
"332 438 OFFCURVE",
"328 432 CURVE SMOOTH",
"315 413 OFFCURVE",
"309 394 OFFCURVE",
"309 373 CURVE SMOOTH",
"309 335 OFFCURVE",
"327 308 OFFCURVE",
"363 291 CURVE SMOOTH",
"368 289 OFFCURVE",
"378 289 OFFCURVE",
"391 294 CURVE SMOOTH",
"402 298 OFFCURVE",
"409 300 OFFCURVE",
"413 300 CURVE",
"413 298 OFFCURVE",
"413 271 OFFCURVE",
"413 269 CURVE",
"426 234 OFFCURVE",
"453 263 OFFCURVE",
"453 294 CURVE"
);
},
{
closed = 1;
nodes = (
"641 369 OFFCURVE",
"658 378 OFFCURVE",
"679 378 CURVE SMOOTH",
"700 379 OFFCURVE",
"714 367 OFFCURVE",
"721 343 CURVE",
"628 351 LINE"
);
}
);
width = 943;
}
);
unicode = 00E6;
},
{
glyphname = b;
lastChange = "2021-11-18 14:28:15 +0000";
layers = (
{
layerId = "F72AA8BB-7F63-4F07-AEAC-030E55A5CABB";
paths = (
{
closed = 1;
nodes = (
"183 13 LINE SMOOTH",
"195 13 OFFCURVE",
"199 27 OFFCURVE",
"202 36 CURVE",
"235 5 OFFCURVE",
"268 -11 OFFCURVE",
"301 -12 CURVE SMOOTH",
"366 -14 OFFCURVE",
"415 21 OFFCURVE",
"448 94 CURVE SMOOTH",
"471 145 OFFCURVE",
"485 206 OFFCURVE",
"487 276 CURVE SMOOTH",
"489 346 OFFCURVE",
"481 406 OFFCURVE",
"462 455 CURVE SMOOTH",
"434 526 OFFCURVE",
"387 563 OFFCURVE",
"321 565 CURVE SMOOTH",
"290 566 OFFCURVE",
"263 558 OFFCURVE",
"238 542 CURVE",
"242 658 LINE SMOOTH",
"243 666 OFFCURVE",
"236 674 OFFCURVE",
"227 674 CURVE SMOOTH",
"214 674 OFFCURVE",
"188 674 OFFCURVE",
"149 670 CURVE SMOOTH",
"130 668 OFFCURVE",
"99 669 OFFCURVE",
"55 673 CURVE SMOOTH",
"47 673 OFFCURVE",
"36 656 OFFCURVE",
"38 648 CURVE SMOOTH",
"41 636 OFFCURVE",
"44 602 OFFCURVE",
"46 545 CURVE SMOOTH",
"48 495 OFFCURVE",
"49 459 OFFCURVE",
"48 436 CURVE SMOOTH",
"41 265 OFFCURVE",
"31 155 OFFCURVE",
"26 104 CURVE SMOOTH",
"25 93 OFFCURVE",
"19 77 OFFCURVE",
"10 58 CURVE SMOOTH",
"0 38 OFFCURVE",
"-5 26 OFFCURVE",
"-5 21 CURVE SMOOTH",
"-5 12 OFFCURVE",
"4 7 OFFCURVE",
"21 8 CURVE SMOOTH"
);
},
{
closed = 1;
nodes = (
"65 180 LINE",
"149 219 OFFCURVE",
"178 337 OFFCURVE",
"178 421 CURVE SMOOTH",
"178 437 OFFCURVE",
"175 538 OFFCURVE",
"158 538 CURVE SMOOTH",
"153 538 OFFCURVE",
"143 531 OFFCURVE",
"127 517 CURVE SMOOTH",
"111 503 OFFCURVE",
"100 496 OFFCURVE",
"93 496 CURVE SMOOTH",
"85 496 OFFCURVE",
"80 502 OFFCURVE",
"77 515 CURVE",
"82 640 LINE",
"112 639 OFFCURVE",
"135 639 OFFCURVE",
"151 640 CURVE SMOOTH",
"156 640 OFFCURVE",
"158 638 OFFCURVE",
"158 634 CURVE SMOOTH",
"158 633 OFFCURVE",
"154 615 OFFCURVE",
"154 603 CURVE SMOOTH",
"154 569 OFFCURVE",
"194 497 OFFCURVE",
"230 497 CURVE SMOOTH",
"247 497 OFFCURVE",
"271 526 OFFCURVE",
"276 526 CURVE SMOOTH",
"281 526 OFFCURVE",
"289 522 OFFCURVE",
"302 511 CURVE SMOOTH",
"314 501 OFFCURVE",
"322 495 OFFCURVE",
"327 494 CURVE SMOOTH",
"340 491 OFFCURVE",
"370 504 OFFCURVE",
"379 504 CURVE SMOOTH",
"396 504 OFFCURVE",
"415 486 OFFCURVE",
"415 470 CURVE SMOOTH",
"415 455 OFFCURVE",
"404 438 OFFCURVE",
"379 427 CURVE SMOOTH",
"372 424 OFFCURVE",
"368 418 OFFCURVE",
"368 410 CURVE SMOOTH",
"368 398 OFFCURVE",
"395 351 OFFCURVE",
"403 343 CURVE",
"408 329 OFFCURVE",
"410 316 OFFCURVE",
"410 303 CURVE SMOOTH",
"410 271 OFFCURVE",
"400 255 OFFCURVE",
"380 255 CURVE SMOOTH",
"360 255 OFFCURVE",
"347 277 OFFCURVE",
"340 320 CURVE SMOOTH",
"338 333 OFFCURVE",
"334 353 OFFCURVE",
"328 381 CURVE SMOOTH",
"324 400 OFFCURVE",
"322 414 OFFCURVE",
"322 422 CURVE SMOOTH",
"323 447 OFFCURVE",
"302 466 OFFCURVE",
"275 466 CURVE SMOOTH",
"229 466 OFFCURVE",
"206 422 OFFCURVE",
"202 382 CURVE SMOOTH",
"195 316 OFFCURVE",
"191 279 OFFCURVE",
"190 272 CURVE SMOOTH",
"190 265 OFFCURVE",
"191 234 OFFCURVE",
"194 180 CURVE SMOOTH",
"197 122 OFFCURVE",
"213 93 OFFCURVE",
"241 93 CURVE SMOOTH",
"250 93 OFFCURVE",
"259 97 OFFCURVE",
"270 104 CURVE SMOOTH",
"299 123 OFFCURVE",
"327 133 OFFCURVE",
"354 133 CURVE SMOOTH",
"389 133 OFFCURVE",
"412 114 OFFCURVE",
"412 93 CURVE SMOOTH",
"412 81 OFFCURVE",
"405 72 OFFCURVE",
"391 64 CURVE SMOOTH",
"375 55 OFFCURVE",
"352 51 OFFCURVE",
"322 52 CURVE SMOOTH",
"300 53 OFFCURVE",
"273 61 OFFCURVE",
"240 76 CURVE SMOOTH",
"206 91 OFFCURVE",
"187 99 OFFCURVE",
"180 99 CURVE SMOOTH",
"171 99 OFFCURVE",
"166 92 OFFCURVE",
"166 79 CURVE SMOOTH",
"166 71 OFFCURVE",
"168 59 OFFCURVE",
"172 44 CURVE",
"149 51 OFFCURVE",
"126 55 OFFCURVE",
"102 58 CURVE SMOOTH",
"70 62 OFFCURVE",
"67 63 OFFCURVE",
"63 98 CURVE"
);
},
{
closed = 1;
nodes = (
"222 279 OFFCURVE",
"226 315 OFFCURVE",
"233 380 CURVE SMOOTH",
"237 417 OFFCURVE",
"246 435 OFFCURVE",
"260 435 CURVE SMOOTH",
"293 435 OFFCURVE",
"293 323 OFFCURVE",
"293 302 CURVE SMOOTH",
"293 279 OFFCURVE",
"286 124 OFFCURVE",
"251 124 CURVE SMOOTH",
"236 124 OFFCURVE",
"228 142 OFFCURVE",
"226 179 CURVE SMOOTH",
"223 234 OFFCURVE",
"221 265 OFFCURVE",
"221 272 CURVE SMOOTH"
);
}
);
width = 490;
}
);
note = b;
unicode = 0062;
},
{
glyphname = c;
lastChange = "2021-11-18 14:28:15 +0000";
layers = (
{
anchors = (
{
name = bottom;
position = "{260, 0}";
},
{
name = top;
position = "{266, 563}";
}
);
layerId = "F72AA8BB-7F63-4F07-AEAC-030E55A5CABB";
paths = (
{
closed = 1;
nodes = (
"9 196 OFFCURVE",
"26 134 OFFCURVE",
"60 91 CURVE SMOOTH",
"108 30 OFFCURVE",
"190 -12 OFFCURVE",
"266 -12 CURVE SMOOTH",
"363 -12 OFFCURVE",
"446 32 OFFCURVE",
"492 131 CURVE SMOOTH",
"497 142 OFFCURVE",
"446 163 OFFCURVE",
"405 183 CURVE SMOOTH",
"372 202 OFFCURVE",
"349 217 OFFCURVE",
"334 227 CURVE",
"329 229 OFFCURVE",
"320 222 OFFCURVE",
"309 206 CURVE SMOOTH",
"296 188 OFFCURVE",
"282 179 OFFCURVE",
"266 179 CURVE SMOOTH",
"211 179 OFFCURVE",
"199 233 OFFCURVE",
"199 277 CURVE SMOOTH",
"199 316 OFFCURVE",
"219 374 OFFCURVE",
"266 374 CURVE SMOOTH",
"281 374 OFFCURVE",
"295 366 OFFCURVE",
"308 351 CURVE SMOOTH",
"321 336 OFFCURVE",
"328 328 OFFCURVE",
"333 328 CURVE SMOOTH",
"348 329 OFFCURVE",
"362 336 OFFCURVE",
"375 348 CURVE SMOOTH",
"407 378 LINE",
"454 409 OFFCURVE",
"478 429 OFFCURVE",
"478 438 CURVE SMOOTH",
"478 440 OFFCURVE",
"477 442 OFFCURVE",
"476 443 CURVE SMOOTH",
"419 523 OFFCURVE",
"349 563 OFFCURVE",
"266 563 CURVE SMOOTH",
"201 563 OFFCURVE",
"140 534 OFFCURVE",
"83 475 CURVE SMOOTH",
"34 424 OFFCURVE",
"9 358 OFFCURVE",
"9 276 CURVE SMOOTH"
);
},
{
closed = 1;
nodes = (
"40 298 OFFCURVE",
"51 367 OFFCURVE",
"69 379 CURVE SMOOTH",
"77 384 OFFCURVE",
"90 385 OFFCURVE",
"109 381 CURVE SMOOTH",
"128 377 OFFCURVE",
"140 379 OFFCURVE",
"147 388 CURVE SMOOTH",
"156 400 OFFCURVE",
"167 420 OFFCURVE",
"180 449 CURVE SMOOTH",
"197 486 OFFCURVE",
"219 532 OFFCURVE",
"266 532 CURVE SMOOTH",
"297 532 OFFCURVE",
"346 477 OFFCURVE",
"346 446 CURVE SMOOTH",
"346 419 OFFCURVE",
"319 406 OFFCURVE",
"266 406 CURVE SMOOTH",
"222 406 OFFCURVE",
"192 379 OFFCURVE",
"175 325 CURVE",
"158 317 OFFCURVE",
"141 309 OFFCURVE",
"124 302 CURVE SMOOTH",
"91 285 OFFCURVE",
"75 262 OFFCURVE",
"75 235 CURVE SMOOTH",
"75 209 OFFCURVE",
"84 196 OFFCURVE",
"113 195 CURVE SMOOTH",
"133 194 OFFCURVE",
"143 191 OFFCURVE",
"143 185 CURVE SMOOTH",
"144 174 OFFCURVE",
"134 148 OFFCURVE",
"134 139 CURVE SMOOTH",
"134 133 OFFCURVE",
"136 128 OFFCURVE",
"140 124 CURVE SMOOTH",
"166 98 OFFCURVE",
"190 77 OFFCURVE",
"219 69 CURVE",
"214 60 OFFCURVE",
"209 50 OFFCURVE",
"203 42 CURVE SMOOTH",
"198 35 OFFCURVE",
"194 33 OFFCURVE",
"190 35 CURVE SMOOTH",
"105 78 OFFCURVE",
"40 165 OFFCURVE",
"40 276 CURVE SMOOTH"
);
},
{
closed = 1;
nodes = (
"303 119 OFFCURVE",
"317 128 OFFCURVE",
"318 129 CURVE SMOOTH",
"327 138 OFFCURVE",
"332 154 OFFCURVE",
"333 179 CURVE",
"351 179 OFFCURVE",
"430 139 OFFCURVE",
"430 117 CURVE SMOOTH",
"430 101 OFFCURVE",
"377 38 OFFCURVE",
"358 38 CURVE SMOOTH",
"351 38 OFFCURVE",
"344 42 OFFCURVE",
"337 50 CURVE",
"332 60 OFFCURVE",
"328 70 OFFCURVE",
"322 79 CURVE SMOOTH",
"311 96 OFFCURVE",
"295 104 OFFCURVE",
"276 104 CURVE"
);
}
);
width = 496;
}
);
note = c;
unicode = 0063;
},
